<svg width="248" height="88" viewBox="0 0 248 88" fill="none" xmlns="http://www.w3.org/2000/svg">
    <path d="M78.3172 15.165C78.3692 14.849 78.4922 14.5489 78.6771 14.2874C78.862 14.026 79.1038 13.81 79.3843 13.6557C79.6649 13.5015 79.9768 13.4131 80.2964 13.3971C80.6161 13.3812 80.9353 13.4382 81.2297 13.5638C81.5621 13.5981 81.8821 13.7086 82.1649 13.8866C82.4478 14.0646 82.6858 14.3054 82.8607 14.5903C83.0356 14.8752 83.1425 15.1966 83.1733 15.5295C83.204 15.8624 83.1578 16.1979 83.0381 16.5101L64.3626 86.1651C64.1949 86.7894 63.7863 87.3215 63.2266 87.6443C62.6669 87.9671 62.0019 88.0542 61.378 87.8865C60.7541 87.7187 60.2223 87.3099 59.8997 86.7498C59.5771 86.1898 59.49 85.5244 59.6577 84.9001L78.3172 15.165Z" fill="#0D3755"/>
    <path d="M117.958 15.166C118.012 14.8561 118.134 14.562 118.316 14.3054C118.498 14.0487 118.735 13.8359 119.009 13.6825C119.284 13.5291 119.589 13.4389 119.903 13.4185C120.216 13.3981 120.531 13.4481 120.823 13.5647C121.155 13.5991 121.475 13.7096 121.758 13.8876C122.041 14.0656 122.279 14.3064 122.454 14.5913C122.628 14.8762 122.735 15.1976 122.766 15.5305C122.797 15.8634 122.751 16.1989 122.631 16.5111L104.003 86.1661C103.805 86.7567 103.389 87.2494 102.84 87.5439C102.291 87.8384 101.651 87.9126 101.049 87.7514C100.448 87.5902 99.9304 87.2057 99.6021 86.6762C99.2739 86.1467 99.1596 85.512 99.2826 84.9011L117.958 15.166Z" fill="#0D3755"/>
    <path d="M0.0480071 5.15583C0.0480071 3.55457 0.816153 2.76995 2.36845 2.76995C2.69224 2.72047 3.02313 2.7482 3.33419 2.85086C3.64524 2.95353 3.92768 3.12823 4.15851 3.36076C4.38934 3.59329 4.56203 3.87706 4.66254 4.18899C4.76304 4.50092 4.78852 4.83219 4.73689 5.15583V45.796H25.3648C26.9651 45.796 27.7492 46.5646 27.7492 48.1018C27.8015 48.427 27.7759 48.7599 27.6746 49.0733C27.5733 49.3867 27.3991 49.6715 27.1663 49.9044C26.9336 50.1373 26.6489 50.3116 26.3357 50.413C26.0225 50.5144 25.6898 50.54 25.3648 50.4877H3.2006C1.0722 50.4877 0 49.2707 0 46.8208V5.18786L0.0480071 5.15583Z" fill="#0D3755"/>
    <path d="M45.0495 13.8976C53.5951 13.8976 58.1079 19.0377 58.1079 25.5388V48.629C58.1079 49.2661 57.855 49.877 57.4048 50.3274C56.9547 50.7779 56.3441 51.0309 55.7075 51.0309C55.0708 51.0309 54.4602 50.7779 54.0101 50.3274C53.5599 49.877 53.307 49.2661 53.307 48.629C53.307 47.3961 53.307 47.0278 53.307 46.4353C51.8781 47.8915 50.1679 49.0414 48.2805 49.815C46.3932 50.5886 44.3682 50.9696 42.3289 50.9349C36.0238 50.9349 29.9746 47.3961 29.9746 40.2064C29.9746 32.6804 36.8559 28.8214 43.6092 28.8214C47.2739 28.8214 51.1946 29.9102 53.307 32.0239V25.9871C53.307 21.5516 49.7063 18.5893 43.7052 18.5893C39.5284 18.5893 36.8239 20.1906 34.8395 20.1906C34.5591 20.2282 34.2739 20.204 34.0039 20.1195C33.7339 20.035 33.4856 19.8924 33.2766 19.7016C33.0676 19.5108 32.903 19.2765 32.7942 19.0151C32.6855 18.7538 32.6352 18.4718 32.6471 18.189C32.6928 17.6697 32.8815 17.1733 33.1923 16.7549C33.503 16.3365 33.9237 16.0126 34.4074 15.8191C37.793 14.4812 41.4101 13.8281 45.0495 13.8976ZM43.1291 46.4994C47.93 46.4994 53.211 43.9373 53.211 39.4858C53.211 35.5627 48.4101 33.3209 43.6092 33.3209C39.1123 33.3209 34.8075 35.3706 34.8075 39.8861C34.8075 44.4017 38.7603 46.4994 43.1291 46.4994Z" fill="#0D3755"/>
    <path d="M135.849 0C136.482 0 137.101 0.187825 137.627 0.539724C138.154 0.891622 138.564 1.39179 138.806 1.97697C139.048 2.56216 139.112 3.20608 138.988 3.82731C138.865 4.44854 138.56 5.01918 138.112 5.46706C137.665 5.91494 137.094 6.21995 136.473 6.34353C135.853 6.4671 135.209 6.40368 134.624 6.16128C134.039 5.91889 133.54 5.50841 133.188 4.98176C132.836 4.45511 132.648 3.83593 132.648 3.20253C132.648 2.35317 132.986 1.53859 133.586 0.937997C134.186 0.337406 135 0 135.849 0ZM133.625 16.3489C133.58 16.0265 133.61 15.6982 133.713 15.3894C133.816 15.0807 133.989 14.7999 134.218 14.569C134.448 14.3381 134.727 14.1633 135.035 14.0582C135.343 13.9531 135.671 13.9205 135.993 13.963C137.593 13.963 138.506 14.7316 138.506 16.3489V48.118C138.506 49.7193 137.673 50.4879 136.057 50.4879C135.732 50.5375 135.4 50.5109 135.086 50.4104C134.773 50.3098 134.487 50.138 134.252 49.9084C134.016 49.6787 133.837 49.3975 133.728 49.0869C133.619 48.7763 133.584 48.4446 133.625 48.118V16.3489Z" fill="#0D3755"/>
    <path d="M150.604 16.764C150.604 15.0826 151.372 14.25 152.909 14.25C154.445 14.25 155.293 15.0826 155.293 16.764V19.1979C156.227 17.4743 157.617 16.0412 159.31 15.0555C161.004 14.0697 162.936 13.5695 164.895 13.6095C166.528 13.5797 168.15 13.8751 169.668 14.4784C171.186 15.0817 172.569 15.9809 173.736 17.1237C174.904 18.2665 175.832 19.6301 176.469 21.1352C177.105 22.6404 177.435 24.257 177.441 25.8912V48.1488C177.441 49.75 176.657 50.4546 175.057 50.4546C174.743 50.4996 174.423 50.4712 174.122 50.3715C173.821 50.2718 173.548 50.1035 173.323 49.88C173.098 49.6565 172.928 49.3838 172.826 49.0834C172.724 48.783 172.694 48.463 172.736 48.1488V27.9728C172.736 21.5678 168.432 18.3652 164.127 18.3652C159.822 18.3652 155.261 21.6478 155.261 27.9728V48.1808C155.213 48.7695 154.944 49.3183 154.51 49.7185C154.076 50.1186 153.507 50.3407 152.917 50.3407C152.326 50.3407 151.758 50.1186 151.323 49.7185C150.889 49.3183 150.621 48.7695 150.572 48.1808L150.604 16.764Z" fill="#0D3755"/>
    <path d="M200.406 13.8988C208.951 13.8988 213.448 19.0389 213.448 25.54V48.6302C213.448 49.2673 213.195 49.8782 212.745 50.3286C212.295 50.7791 211.684 51.0321 211.048 51.0321C210.411 51.0321 209.8 50.7791 209.35 50.3286C208.9 49.8782 208.647 49.2673 208.647 48.6302C208.647 47.3973 208.647 47.029 208.647 46.4365C207.218 47.9052 205.504 49.0673 203.611 49.8519C201.719 50.6365 199.686 51.0271 197.637 51.0001C191.332 51.0001 185.299 47.4613 185.299 40.2716C185.299 32.7457 192.18 28.8866 198.933 28.8866C202.582 28.8866 206.503 29.9755 208.631 32.0892V25.9884C208.631 21.5528 205.031 18.5905 199.029 18.5905C194.853 18.5905 192.164 20.1918 190.164 20.1918C189.885 20.2269 189.601 20.2008 189.333 20.1151C189.065 20.0295 188.819 19.8864 188.612 19.6959C188.405 19.5054 188.241 19.272 188.134 19.012C188.026 18.7519 187.976 18.4715 187.987 18.1902C188.044 17.6758 188.242 17.1871 188.558 16.7775C188.874 16.368 189.297 16.0534 189.78 15.8684C193.158 14.5198 196.769 13.8505 200.406 13.8988ZM198.469 46.5006C203.366 46.5006 208.567 43.9385 208.567 39.487C208.567 35.5639 203.686 33.3222 198.965 33.3222C194.469 33.3222 190.164 35.3718 190.164 39.8873C190.164 44.4029 194.101 46.5006 198.469 46.5006Z" fill="#0D3755"/>
    <path d="M234.814 46.4368C238.287 46.4368 242.719 45.0277 242.719 40.8484C242.719 37.6458 238.735 35.8844 235.342 34.6675C229.485 32.5538 222.412 29.7196 222.412 24.2593C222.412 16.9895 228.525 13.771 235.342 13.771C238.801 13.7087 242.221 14.5065 245.296 16.0928C245.685 16.3193 246.006 16.6476 246.223 17.0426C246.44 17.4375 246.546 17.8842 246.528 18.3346C246.554 18.6321 246.515 18.9316 246.415 19.2129C246.315 19.4942 246.156 19.7506 245.948 19.9648C245.74 20.1789 245.488 20.3458 245.21 20.4541C244.932 20.5624 244.634 20.6095 244.336 20.5924C243.841 20.5859 243.357 20.4537 242.928 20.2081C240.514 19.0873 237.874 18.5393 235.214 18.6068C231.421 18.6068 227.501 19.9679 227.501 23.7629C227.501 26.7092 232.51 28.2624 237.326 30.1679C242.607 32.3617 248 34.6034 248 40.4C248 48.3103 241.055 51.1925 234.702 51.1925C230.452 51.136 226.315 49.821 222.812 47.4136C222.53 47.1792 222.308 46.8815 222.163 46.5448C222.018 46.208 221.956 45.8418 221.98 45.476C221.98 43.6826 222.876 42.8339 224.092 42.8339C224.773 42.8855 225.424 43.1361 225.964 43.5545C228.568 45.3618 231.646 46.364 234.814 46.4368Z" fill="#0D3755"/>
    <path d="M95.4258 23.6338C95.4778 23.3177 95.6009 23.0177 95.7857 22.7562C95.9706 22.4947 96.2124 22.2787 96.493 22.1245C96.7735 21.9703 97.0854 21.8818 97.4051 21.8659C97.7248 21.85 98.0439 21.9069 98.3384 22.0325C98.6707 22.0669 98.9907 22.1773 99.2736 22.3553C99.5564 22.5334 99.7945 22.7741 99.9693 23.059C100.144 23.3439 100.251 23.6653 100.282 23.9982C100.313 24.3311 100.266 24.6667 100.147 24.9788L91.9212 55.611C91.7535 56.2353 91.3449 56.7674 90.7852 57.0902C90.2254 57.413 89.5605 57.5001 88.9366 57.3324C88.3127 57.1646 87.7809 56.7558 87.4583 56.1957C87.1357 55.6357 87.0486 54.9703 87.2163 54.346L95.4258 23.6338Z" fill="#0D3755"/>
    <path d="M136.536 72.6006V86.5316C136.554 86.6859 136.534 86.8423 136.478 86.9873C136.422 87.1324 136.332 87.2617 136.216 87.3642C135.961 87.5233 135.668 87.6076 135.368 87.6076C135.068 87.6076 134.774 87.5233 134.519 87.3642C134.408 87.2585 134.322 87.1283 134.269 86.9838C134.217 86.8393 134.198 86.6845 134.215 86.5316V69.7503C134.192 69.5448 134.219 69.3367 134.294 69.1441C134.369 68.9514 134.491 68.7802 134.647 68.6455C134.988 68.4197 135.391 68.3076 135.8 68.3252C136.19 68.3045 136.578 68.3933 136.92 68.5814C137.174 68.788 137.367 69.059 137.48 69.366L143.881 84.578L150.282 69.366C150.395 69.059 150.589 68.788 150.843 68.5814C151.18 68.3935 151.56 68.2949 151.947 68.2949C152.333 68.2949 152.713 68.3935 153.051 68.5814C153.192 68.7261 153.3 68.9 153.366 69.091C153.432 69.282 153.456 69.4852 153.435 69.6863V86.5316C153.454 86.6832 153.438 86.8372 153.388 86.9816C153.338 87.1261 153.256 87.257 153.147 87.3642C152.899 87.5374 152.6 87.622 152.299 87.6044C151.992 87.6219 151.688 87.5375 151.435 87.3642C151.317 87.2627 151.228 87.133 151.175 86.9873C151.122 86.8416 151.106 86.6848 151.131 86.5316V72.5686L145.113 86.4035C145.008 86.6618 144.837 86.8882 144.617 87.06C144.353 87.239 144.041 87.3346 143.721 87.3346C143.402 87.3346 143.09 87.239 142.825 87.06C142.599 86.8941 142.427 86.6659 142.329 86.4035L136.536 72.6006Z" fill="#009655"/>
    <path d="M169.695 80.256C169.695 80.9125 169.327 81.2327 168.591 81.2327H159.341C159.259 82.4642 159.655 83.6798 160.445 84.6274C160.841 85.045 161.326 85.3694 161.862 85.5771C162.399 85.7847 162.976 85.8706 163.55 85.8284C164.394 85.8705 165.228 85.6281 165.918 85.1398C166.168 84.9732 166.394 84.774 166.59 84.5474L167.006 84.035C167.107 83.8831 167.232 83.748 167.374 83.6346C167.531 83.5317 167.716 83.4812 167.902 83.4905C168.171 83.4963 168.432 83.5797 168.655 83.7307C168.765 83.8016 168.856 83.8985 168.921 84.013C168.985 84.1275 169.02 84.256 169.023 84.3872C169.005 84.6934 168.899 84.988 168.719 85.2359C168.532 85.5333 168.318 85.8122 168.079 86.0686C167.781 86.3941 167.442 86.6794 167.07 86.9172C166.614 87.2139 166.118 87.4456 165.598 87.6058C164.933 87.7994 164.242 87.8912 163.55 87.878C162.605 87.8964 161.668 87.7164 160.797 87.3496C159.986 87.0175 159.263 86.5024 158.685 85.8444C158.089 85.1751 157.636 84.3902 157.356 83.5386C156.733 81.613 156.733 79.5395 157.356 77.6139C157.63 76.763 158.077 75.9779 158.669 75.308C159.245 74.673 159.949 74.1657 160.733 73.8189C161.591 73.4674 162.51 73.2879 163.438 73.2905C164.366 73.2721 165.288 73.4522 166.142 73.8189C166.895 74.1582 167.562 74.6615 168.094 75.292C168.632 75.945 169.04 76.6952 169.295 77.5018C169.571 78.3934 169.706 79.3227 169.695 80.256ZM163.438 75.276C162.89 75.273 162.346 75.3763 161.837 75.5803C161.379 75.7706 160.969 76.0605 160.637 76.4289C160.302 76.7944 160.037 77.2176 159.853 77.6779C159.659 78.1927 159.535 78.7313 159.485 79.2792H167.486C167.437 78.7706 167.325 78.2703 167.15 77.79C166.991 77.3253 166.739 76.8981 166.408 76.5346C166.078 76.1711 165.677 75.8791 165.23 75.6763C164.668 75.4155 164.057 75.2789 163.438 75.276Z" fill="#009655"/>
    <path d="M174.464 85.4596H182.625C182.759 85.4441 182.895 85.4591 183.023 85.5035C183.15 85.5478 183.266 85.6204 183.362 85.7158C183.502 85.9286 183.57 86.1817 183.554 86.4364C183.572 86.6914 183.505 86.9452 183.362 87.157C183.271 87.2589 183.156 87.336 183.027 87.3808C182.898 87.4257 182.76 87.4368 182.625 87.4132H172.768C171.887 87.4132 171.439 87.0129 171.439 86.2122C171.428 86.0189 171.467 85.826 171.551 85.6518C171.682 85.422 171.838 85.2072 172.015 85.0113L180.017 75.7079H172.672C172.537 75.7315 172.399 75.7204 172.27 75.6756C172.141 75.6307 172.026 75.5537 171.935 75.4517C171.792 75.24 171.725 74.9861 171.743 74.7311C171.727 74.4764 171.794 74.2233 171.935 74.0106C172.028 73.9103 172.143 73.8334 172.271 73.786C172.399 73.7387 172.536 73.7224 172.672 73.7384H181.633C182.529 73.7384 182.977 74.1387 182.977 74.9393C182.981 75.132 182.943 75.3231 182.865 75.4998C182.738 75.7316 182.582 75.9468 182.401 76.1403L174.464 85.4596Z" fill="#009655"/>
    <path d="M188.114 85.4594H196.276C196.41 85.4439 196.545 85.4589 196.673 85.5032C196.8 85.5476 196.916 85.6202 197.012 85.7156C197.153 85.9284 197.22 86.1814 197.204 86.4362C197.223 86.6911 197.155 86.945 197.012 87.1567C196.921 87.2587 196.806 87.3357 196.677 87.3806C196.548 87.4254 196.41 87.4366 196.276 87.4129H186.434C185.538 87.4129 185.105 87.0126 185.105 86.212C185.106 86.0211 185.139 85.8317 185.201 85.6515C185.336 85.4243 185.492 85.2099 185.666 85.011L193.667 75.7077H186.434C186.299 75.727 186.163 75.7138 186.035 75.6692C185.906 75.6246 185.791 75.55 185.698 75.4515C185.554 75.2397 185.487 74.9859 185.506 74.7309C185.489 74.4762 185.557 74.2231 185.698 74.0103C185.792 73.913 185.908 73.8381 186.035 73.791C186.162 73.7439 186.299 73.7258 186.434 73.7381H195.443C196.324 73.7381 196.772 74.1384 196.772 74.9391C196.775 75.1318 196.737 75.3229 196.66 75.4995C196.542 75.7377 196.385 75.9543 196.196 76.14L188.114 85.4594Z" fill="#009655"/>
    <path d="M199.732 69.7998C199.725 69.3919 199.874 68.9967 200.149 68.6949C200.443 68.4433 200.818 68.3067 201.205 68.3106C201.586 68.3106 201.955 68.4469 202.245 68.6949C202.392 68.8372 202.507 69.0096 202.581 69.2002C202.656 69.3909 202.689 69.5954 202.677 69.7998C202.688 69.997 202.658 70.1944 202.589 70.3792C202.519 70.564 202.411 70.732 202.272 70.8724C202.133 71.0128 201.967 71.1225 201.783 71.1943C201.599 71.266 201.402 71.2983 201.205 71.289C200.818 71.2929 200.443 71.1563 200.149 70.9047C200.007 70.7592 199.897 70.5859 199.825 70.3958C199.753 70.2056 199.722 70.0027 199.732 69.7998ZM200.069 74.6036C200.052 74.4473 200.07 74.2893 200.119 74.1401C200.169 73.991 200.25 73.8543 200.357 73.7389C200.617 73.5974 200.908 73.5232 201.205 73.5232C201.501 73.5232 201.793 73.5974 202.053 73.7389C202.172 73.8464 202.264 73.9812 202.319 74.1318C202.375 74.2824 202.393 74.4443 202.373 74.6036V86.469C202.395 86.6259 202.377 86.7859 202.321 86.9343C202.265 87.0826 202.173 87.2144 202.053 87.3176C201.799 87.4767 201.505 87.561 201.205 87.561C200.905 87.561 200.611 87.4767 200.357 87.3176C200.244 87.2095 200.16 87.076 200.11 86.9283C200.059 86.7807 200.045 86.6232 200.069 86.469V74.6036Z" fill="#009655"/>
    <path d="M205.782 80.5422C205.76 79.5036 205.917 78.469 206.246 77.4837C206.538 76.6353 207.001 75.8559 207.606 75.1939C208.203 74.5768 208.923 74.0914 209.718 73.7688C211.478 73.1448 213.399 73.1448 215.159 73.7688C215.955 74.0914 216.675 74.5768 217.272 75.1939C217.877 75.8559 218.34 76.6353 218.632 77.4837C218.966 78.468 219.129 79.5027 219.112 80.5422C219.13 81.5922 218.968 82.6375 218.632 83.6326C218.344 84.4828 217.881 85.263 217.272 85.9224C216.68 86.5494 215.959 87.041 215.159 87.3635C213.411 88.0524 211.467 88.0524 209.718 87.3635C208.919 87.041 208.198 86.5494 207.606 85.9224C206.997 85.263 206.534 84.4828 206.246 83.6326C205.915 82.6367 205.758 81.5913 205.782 80.5422ZM208.23 80.5422C208.148 81.9294 208.531 83.3043 209.318 84.4492C209.691 84.9335 210.18 85.3162 210.739 85.5624C211.298 85.8086 211.91 85.9104 212.519 85.8584C213.127 85.9046 213.737 85.8002 214.295 85.5544C214.854 85.3087 215.343 84.9291 215.719 84.4492C216.507 83.3043 216.889 81.9294 216.808 80.5422C216.885 79.1704 216.502 77.8122 215.719 76.6831C215.337 76.2104 214.847 75.8369 214.29 75.5944C213.732 75.3519 213.125 75.2475 212.519 75.29C211.912 75.2433 211.303 75.3459 210.746 75.5887C210.188 75.8315 209.698 76.2073 209.318 76.6831C208.536 77.8122 208.153 79.1704 208.23 80.5422Z" fill="#009655"/>
</svg>
