<?xml version="1.0"?>
<svg width="262" height="87" xmlns="http://www.w3.org/2000/svg" xmlns:svg="http://www.w3.org/2000/svg">
 <g class="layer">
  <title>Layer 1</title>
  <path d="m72.34,14.19c0.05,-0.29 0.16,-0.57 0.33,-0.81c0.17,-0.24 0.4,-0.44 0.66,-0.59c0.25,-0.14 0.54,-0.22 0.84,-0.23c0.29,-0.02 0.59,0.03 0.86,0.15c0.31,0.03 0.6,0.13 0.86,0.3c0.26,0.16 0.48,0.38 0.64,0.65c0.17,0.26 0.26,0.56 0.29,0.87c0.03,0.3 -0.01,0.61 -0.12,0.9l-17.24,64.38c-0.16,0.58 -0.53,1.07 -1.05,1.37c-0.52,0.3 -1.13,0.38 -1.71,0.22c-0.57,-0.15 -1.06,-0.53 -1.36,-1.05c-0.3,-0.52 -0.38,-1.13 -0.23,-1.71l17.23,-64.45z" fill="#0D3755" id="svg_1"/>
  <path d="m108.93,14.19c0.05,-0.29 0.16,-0.56 0.33,-0.8c0.17,-0.23 0.39,-0.43 0.64,-0.57c0.26,-0.14 0.54,-0.23 0.83,-0.25c0.29,-0.01 0.58,0.03 0.85,0.14c0.3,0.03 0.6,0.13 0.86,0.3c0.26,0.16 0.48,0.38 0.64,0.65c0.16,0.26 0.26,0.56 0.29,0.87c0.03,0.3 -0.01,0.61 -0.12,0.9l-17.2,64.38c-0.18,0.55 -0.57,1 -1.07,1.28c-0.51,0.27 -1.1,0.34 -1.66,0.19c-0.55,-0.15 -1.03,-0.51 -1.33,-1c-0.31,-0.49 -0.41,-1.07 -0.3,-1.64l17.24,-64.45z" fill="#0D3755" id="svg_2"/>
  <path d="m0.09,4.94c0,-1.48 0.71,-2.21 2.14,-2.21c0.3,-0.04 0.6,-0.02 0.89,0.08c0.29,0.09 0.55,0.26 0.76,0.47c0.21,0.22 0.37,0.48 0.47,0.77c0.09,0.28 0.11,0.59 0.06,0.89l0,37.56l19.05,0c1.47,0 2.2,0.71 2.2,2.13c0.05,0.3 0.02,0.61 -0.07,0.9c-0.09,0.29 -0.26,0.55 -0.47,0.77c-0.22,0.22 -0.48,0.38 -0.77,0.47c-0.29,0.09 -0.59,0.12 -0.89,0.07l-20.46,0c-1.97,0 -2.96,-1.13 -2.96,-3.39l0,-38.48l0.05,-0.03z" fill="#0D3755" id="svg_3"/>
  <path d="m41.63,13.02c7.88,0 12.05,4.75 12.05,10.76l0,21.34c0,0.59 -0.23,1.15 -0.65,1.57c-0.41,0.42 -0.98,0.65 -1.57,0.65c-0.58,0 -1.15,-0.23 -1.56,-0.65c-0.42,-0.42 -0.65,-0.98 -0.65,-1.57c0,-1.14 0,-1.48 0,-2.03c-1.32,1.35 -2.9,2.41 -4.64,3.13c-1.74,0.71 -3.61,1.06 -5.5,1.03c-5.82,0 -11.4,-3.27 -11.4,-9.91c0,-6.96 6.35,-10.53 12.59,-10.53c3.38,0 7,1.01 8.95,2.96l0,-5.58c0,-4.1 -3.33,-6.83 -8.87,-6.83c-3.85,0 -6.35,1.48 -8.18,1.48c-0.26,0.03 -0.52,0.01 -0.77,-0.07c-0.25,-0.08 -0.48,-0.21 -0.67,-0.39c-0.2,-0.17 -0.35,-0.39 -0.45,-0.63c-0.1,-0.24 -0.14,-0.5 -0.13,-0.76c0.04,-0.48 0.21,-0.94 0.5,-1.33c0.29,-0.39 0.68,-0.69 1.12,-0.86c3.13,-1.24 6.47,-1.84 9.83,-1.78zm-1.78,30.13c4.43,0 9.31,-2.37 9.31,-6.48c0,-3.63 -4.43,-5.7 -8.86,-5.7c-4.16,0 -8.13,1.9 -8.13,6.07c0,4.17 3.65,6.11 7.68,6.11z" fill="#0D3755" id="svg_4"/>
  <path d="m125.45,0.17c0.58,0 1.15,0.18 1.64,0.5c0.48,0.33 0.86,0.79 1.09,1.33c0.22,0.54 0.28,1.14 0.16,1.71c-0.11,0.58 -0.39,1.1 -0.8,1.52c-0.42,0.41 -0.94,0.69 -1.52,0.81c-0.57,0.11 -1.16,0.05 -1.7,-0.17c-0.54,-0.23 -1.01,-0.6 -1.33,-1.09c-0.32,-0.49 -0.5,-1.06 -0.5,-1.65c0,-0.78 0.31,-1.53 0.87,-2.09c0.55,-0.55 1.3,-0.87 2.09,-0.87zm-2.06,15.11c-0.04,-0.29 -0.01,-0.6 0.09,-0.88c0.09,-0.29 0.25,-0.55 0.46,-0.76c0.21,-0.21 0.47,-0.38 0.76,-0.47c0.28,-0.1 0.58,-0.13 0.88,-0.09c1.48,0 2.32,0.71 2.32,2.2l0,29.37c0,1.48 -0.77,2.19 -2.26,2.19c-0.3,0.04 -0.61,0.02 -0.9,-0.07c-0.29,-0.1 -0.55,-0.26 -0.77,-0.47c-0.22,-0.21 -0.38,-0.47 -0.48,-0.76c-0.1,-0.28 -0.13,-0.59 -0.1,-0.89l0,-29.37z" fill="#0D3755" id="svg_5"/>
  <path d="m139.07,15.67c0,-1.55 0.71,-2.32 2.12,-2.32c1.42,0 2.21,0.77 2.21,2.32l0,2.25c0.86,-1.59 2.14,-2.92 3.7,-3.83c1.57,-0.91 3.35,-1.37 5.16,-1.34c1.51,-0.02 3.01,0.25 4.41,0.81c1.4,0.55 2.67,1.39 3.75,2.44c1.08,1.06 1.94,2.32 2.52,3.71c0.59,1.39 0.9,2.89 0.9,4.4l0,20.57c0,1.48 -0.72,2.13 -2.2,2.13c-0.29,0.04 -0.58,0.01 -0.86,-0.08c-0.28,-0.09 -0.53,-0.25 -0.74,-0.45c-0.21,-0.21 -0.36,-0.46 -0.46,-0.74c-0.09,-0.28 -0.12,-0.57 -0.08,-0.86l0,-18.65c0,-5.92 -3.98,-8.88 -7.95,-8.88c-3.97,0 -8.18,3.03 -8.18,8.88l0,18.68c-0.05,0.54 -0.3,1.05 -0.7,1.42c-0.4,0.37 -0.92,0.57 -1.47,0.57c-0.54,0 -1.07,-0.2 -1.47,-0.57c-0.4,-0.37 -0.65,-0.88 -0.69,-1.42l0.03,-29.04z" fill="#0D3755" id="svg_6"/>
  <path d="m185.04,13.02c7.89,0 12.04,4.75 12.04,10.76l0,21.34c0,0.59 -0.23,1.15 -0.65,1.57c-0.41,0.42 -0.98,0.65 -1.56,0.65c-0.59,0 -1.16,-0.23 -1.57,-0.65c-0.42,-0.42 -0.65,-0.98 -0.65,-1.57c0,-1.14 0,-1.48 0,-2.03c-1.32,1.36 -2.9,2.43 -4.65,3.16c-1.75,0.73 -3.62,1.09 -5.51,1.06c-5.82,0 -11.39,-3.27 -11.39,-9.91c0,-6.96 6.35,-10.53 12.58,-10.53c3.37,0 6.99,1.01 8.95,2.96l0,-5.64c0,-4.1 -3.32,-6.83 -8.86,-6.83c-3.85,0 -6.34,1.48 -8.18,1.48c-0.26,0.03 -0.52,0 -0.77,-0.07c-0.25,-0.08 -0.47,-0.22 -0.66,-0.39c-0.2,-0.18 -0.35,-0.39 -0.45,-0.63c-0.1,-0.24 -0.14,-0.5 -0.13,-0.76c0.05,-0.48 0.23,-0.93 0.52,-1.31c0.3,-0.38 0.69,-0.67 1.13,-0.84c3.12,-1.25 6.46,-1.86 9.81,-1.82zm-1.79,30.13c4.53,0 9.33,-2.37 9.33,-6.48c0,-3.63 -4.51,-5.7 -8.87,-5.7c-4.15,0 -8.12,1.9 -8.12,6.07c0,4.17 3.63,6.11 7.66,6.11z" fill="#0D3755" id="svg_7"/>
  <path d="m216.8,43.09c3.21,0 7.3,-1.3 7.3,-5.16c0,-2.96 -3.68,-4.59 -6.81,-5.71c-5.41,-1.96 -11.94,-4.58 -11.94,-9.62c0,-6.72 5.65,-9.7 11.94,-9.7c3.19,-0.06 6.35,0.68 9.19,2.15c0.36,0.21 0.65,0.51 0.85,0.88c0.2,0.36 0.3,0.77 0.29,1.19c0.02,0.27 -0.02,0.55 -0.11,0.81c-0.09,0.26 -0.24,0.5 -0.43,0.7c-0.19,0.19 -0.42,0.35 -0.68,0.45c-0.26,0.1 -0.53,0.14 -0.81,0.13c-0.45,-0.01 -0.9,-0.13 -1.3,-0.36c-2.23,-1.03 -4.66,-1.54 -7.12,-1.48c-3.5,0 -7.12,1.26 -7.12,4.77c0,2.72 4.63,4.16 9.07,5.92c4.88,2.02 9.85,4.1 9.85,9.45c0,7.32 -6.41,9.98 -12.27,9.98c-3.92,-0.05 -7.74,-1.27 -10.98,-3.49c-0.26,-0.22 -0.46,-0.5 -0.6,-0.81c-0.13,-0.31 -0.19,-0.65 -0.16,-0.98c0,-1.66 0.82,-2.45 1.95,-2.45c0.62,0.05 1.22,0.28 1.72,0.67c2.41,1.67 5.25,2.6 8.17,2.66z" fill="#0D3755" id="svg_8"/>
  <path d="m88.13,22.02c0.05,-0.29 0.16,-0.57 0.33,-0.81c0.17,-0.24 0.4,-0.44 0.66,-0.59c0.25,-0.14 0.54,-0.22 0.84,-0.23c0.29,-0.02 0.59,0.03 0.86,0.15c0.31,0.03 0.6,0.13 0.86,0.3c0.26,0.16 0.48,0.38 0.65,0.65c0.16,0.26 0.26,0.56 0.28,0.87c0.03,0.3 -0.01,0.61 -0.12,0.9l-7.59,28.31c-0.16,0.58 -0.54,1.07 -1.05,1.37c-0.52,0.3 -1.13,0.38 -1.71,0.23c-0.58,-0.16 -1.07,-0.54 -1.36,-1.05c-0.3,-0.52 -0.38,-1.14 -0.23,-1.71l7.58,-28.39z" fill="#0D3755" id="svg_9"/>
  <path d="m136.2,77.83c0.12,-0.01 0.24,0.01 0.35,0.05c0.11,0.04 0.21,0.11 0.29,0.19c0.09,0.09 0.15,0.19 0.19,0.3c0.04,0.11 0.06,0.23 0.04,0.35c0.01,0.16 -0.02,0.33 -0.08,0.48c-0.07,0.16 -0.16,0.29 -0.28,0.41c-1.41,1.29 -3.24,2.01 -5.15,2.01c-5.49,0 -8.21,-4.62 -8.21,-9.27c0,-4.64 2.82,-9.5 8.35,-9.5c1.88,-0.03 3.71,0.67 5.08,1.97c0.13,0.1 0.25,0.23 0.33,0.39c0.08,0.15 0.12,0.31 0.13,0.48c0.01,0.12 -0.01,0.25 -0.05,0.36c-0.03,0.11 -0.1,0.22 -0.17,0.31c-0.08,0.09 -0.18,0.16 -0.29,0.21c-0.11,0.05 -0.23,0.08 -0.35,0.09c-0.28,-0.01 -0.54,-0.11 -0.75,-0.28c-1.07,-1.03 -2.51,-1.6 -3.99,-1.57c-4.24,0 -6.34,3.68 -6.34,7.4c0,3.71 2.17,7.57 6.35,7.57c0.74,0.01 1.47,-0.14 2.14,-0.43c0.68,-0.29 1.3,-0.71 1.81,-1.24c0.07,-0.09 0.16,-0.16 0.27,-0.21c0.1,-0.04 0.22,-0.07 0.33,-0.07z" fill="#E64010" id="svg_10"/>
  <path d="m151.3,74.72c0,3.61 -2.01,6.87 -5.82,6.87c-3.81,0 -5.84,-3.45 -5.84,-7.03c0,-3.58 2.01,-7.09 5.91,-7.09c3.9,0 5.75,3.66 5.75,7.25zm-9.77,-0.34c0,2.46 1.19,5.55 3.95,5.55c2.76,0 3.97,-2.53 3.97,-5.06c0,-2.53 -1.25,-5.62 -3.97,-5.62c-2.72,0 -3.95,2.66 -3.95,5.13z" fill="#E64010" id="svg_11"/>
  <path d="m154.15,68.79c0,-0.7 0.3,-1.07 0.9,-1.07c0.61,0 0.89,0.34 0.89,0.99l0,0.95c0.33,-0.65 0.83,-1.19 1.44,-1.58c0.61,-0.38 1.32,-0.6 2.05,-0.61c0.78,0.01 1.55,0.25 2.2,0.7c0.65,0.46 1.15,1.09 1.43,1.83c0.41,-0.77 1.02,-1.41 1.77,-1.86c0.74,-0.44 1.6,-0.68 2.47,-0.67c0.58,-0.03 1.15,0.06 1.7,0.26c0.54,0.2 1.04,0.51 1.46,0.91c0.42,0.4 0.75,0.88 0.98,1.41c0.24,0.53 0.36,1.1 0.36,1.68l0,8.65c0,0.57 -0.29,0.85 -0.88,0.85c-0.59,0 -0.92,-0.28 -0.92,-0.85l0,-7.83c0.03,-0.4 -0.02,-0.79 -0.14,-1.17c-0.13,-0.37 -0.33,-0.72 -0.58,-1.01c-0.26,-0.3 -0.58,-0.54 -0.94,-0.71c-0.35,-0.18 -0.74,-0.28 -1.13,-0.3c-0.47,0.02 -0.94,0.13 -1.37,0.33c-0.43,0.21 -0.81,0.49 -1.13,0.85c-0.31,0.35 -0.55,0.76 -0.71,1.21c-0.15,0.45 -0.21,0.93 -0.17,1.4l0,7.27c0,0.59 -0.28,0.89 -0.86,0.89c-0.12,0.02 -0.25,0.01 -0.36,-0.03c-0.12,-0.04 -0.23,-0.1 -0.32,-0.19c-0.08,-0.08 -0.15,-0.19 -0.19,-0.31c-0.04,-0.11 -0.05,-0.24 -0.03,-0.36l0,-7.87c0.04,-0.4 -0.01,-0.79 -0.13,-1.17c-0.12,-0.38 -0.32,-0.72 -0.59,-1.02c-0.26,-0.29 -0.58,-0.53 -0.94,-0.69c-0.36,-0.16 -0.75,-0.24 -1.15,-0.25c-0.47,0.01 -0.93,0.12 -1.36,0.31c-0.43,0.2 -0.81,0.48 -1.13,0.83c-0.31,0.35 -0.55,0.76 -0.71,1.2c-0.15,0.45 -0.21,0.92 -0.17,1.39l0,7.27c0,0.59 -0.28,0.89 -0.85,0.89c-0.12,0.02 -0.25,0.01 -0.37,-0.03c-0.11,-0.04 -0.22,-0.1 -0.31,-0.19c-0.09,-0.08 -0.15,-0.19 -0.19,-0.31c-0.04,-0.11 -0.05,-0.24 -0.03,-0.36l0,-11.63l0.01,0z" fill="#E64010" id="svg_12"/>
  <path d="m175,68.45c0,-0.62 0.28,-0.93 0.88,-0.93c0.61,0 0.9,0.31 0.9,0.93l0,1.83c0.32,-0.8 0.86,-1.5 1.56,-1.99c0.71,-0.5 1.54,-0.79 2.4,-0.82c3.74,0 5.61,3.64 5.61,7.13c0,3.5 -1.87,6.98 -5.61,6.98c-0.8,0.03 -1.6,-0.16 -2.3,-0.56c-0.71,-0.4 -1.28,-1 -1.66,-1.71l0,6.68c0.01,0.12 -0.01,0.24 -0.05,0.36c-0.05,0.12 -0.11,0.22 -0.2,0.31c-0.09,0.09 -0.19,0.16 -0.3,0.21c-0.12,0.05 -0.24,0.08 -0.36,0.08c-0.59,0 -0.87,-0.34 -0.87,-0.99l0,-17.51zm9.55,6.3c0,-2.4 -0.96,-5.46 -3.63,-5.46c-2.67,0 -4.01,2.83 -4.01,5.36c0,2.53 1.22,5.33 4.01,5.33c2.79,0 3.63,-2.8 3.63,-5.23z" fill="#E64010" id="svg_13"/>
  <path d="m200.51,74.72c0,3.61 -2.03,6.87 -5.84,6.87c-3.81,0 -5.82,-3.45 -5.82,-7.03c0,-3.58 2,-7.09 5.82,-7.09c3.83,0 5.84,3.66 5.84,7.25zm-9.78,-0.34c0,2.46 1.18,5.55 3.94,5.55c2.77,0 3.98,-2.53 3.98,-5.06c0,-2.53 -1.26,-5.62 -3.98,-5.62c-2.71,0 -3.94,2.66 -3.94,5.13z" fill="#E64010" id="svg_14"/>
  <path d="m203.36,68.7c0,-0.64 0.28,-0.95 0.86,-0.95c0.57,0 0.9,0.31 0.9,0.95l0,0.9c0.34,-0.65 0.86,-1.2 1.5,-1.57c0.64,-0.38 1.36,-0.57 2.1,-0.56c0.61,-0.01 1.22,0.1 1.79,0.32c0.57,0.23 1.08,0.57 1.52,0.99c0.44,0.43 0.79,0.94 1.03,1.51c0.23,0.56 0.36,1.17 0.36,1.78l0,8.35c0,0.58 -0.3,0.86 -0.89,0.86c-0.12,0.02 -0.24,0.01 -0.35,-0.03c-0.11,-0.03 -0.22,-0.09 -0.3,-0.18c-0.09,-0.08 -0.15,-0.18 -0.19,-0.3c-0.04,-0.11 -0.05,-0.23 -0.03,-0.35l0,-7.53c0.05,-0.46 0,-0.92 -0.14,-1.35c-0.14,-0.43 -0.37,-0.83 -0.67,-1.17c-0.31,-0.34 -0.68,-0.62 -1.09,-0.8c-0.42,-0.19 -0.86,-0.29 -1.32,-0.29c-0.46,0 -0.91,0.09 -1.34,0.28c-0.42,0.18 -0.8,0.45 -1.11,0.79c-0.31,0.34 -0.55,0.74 -0.7,1.18c-0.15,0.43 -0.21,0.9 -0.17,1.36l0,7.57c0,0.58 -0.3,0.86 -0.9,0.86c-0.12,0.02 -0.24,0.01 -0.35,-0.03c-0.11,-0.03 -0.22,-0.1 -0.3,-0.18c-0.08,-0.08 -0.14,-0.19 -0.18,-0.3c-0.04,-0.11 -0.05,-0.23 -0.03,-0.35l0,-11.84l0,0.08z" fill="#E64010" id="svg_15"/>
  <path d="m227.6,73.51c0,1.3 -0.22,1.95 -1.36,1.95l-8.12,0c0.07,1.12 0.54,2.17 1.32,2.98c0.78,0.8 1.82,1.29 2.93,1.39c0.6,0.04 1.21,-0.05 1.77,-0.27c0.57,-0.21 1.08,-0.54 1.51,-0.96c0.28,-0.26 0.65,-0.42 1.04,-0.43c0.1,-0.01 0.21,0.01 0.31,0.04c0.11,0.04 0.2,0.1 0.28,0.18c0.07,0.08 0.13,0.17 0.16,0.27c0.04,0.11 0.05,0.22 0.04,0.32c0.01,0.09 0,0.18 -0.03,0.27c-0.03,0.08 -0.08,0.16 -0.14,0.22c-0.6,0.73 -1.36,1.3 -2.21,1.67c-0.86,0.37 -1.79,0.54 -2.73,0.48c-3.97,0 -6.2,-3.23 -6.2,-7.05c0,-3.53 2.07,-7.09 5.82,-7.09c3.75,0 5.61,2.52 5.61,6.03zm-1.79,0.22c0,-2.46 -1.47,-4.44 -3.71,-4.44c-0.55,0.03 -1.09,0.16 -1.59,0.4c-0.5,0.24 -0.95,0.57 -1.32,0.99c-0.37,0.41 -0.65,0.89 -0.83,1.42c-0.19,0.52 -0.26,1.08 -0.23,1.63l7.68,0z" fill="#E64010" id="svg_16"/>
  <path d="m230.82,68.7c0,-0.64 0.28,-0.95 0.87,-0.95c0.59,0 0.89,0.31 0.89,0.95l0,0.9c0.35,-0.65 0.87,-1.2 1.5,-1.57c0.64,-0.38 1.37,-0.57 2.1,-0.56c0.61,-0.01 1.22,0.1 1.79,0.32c0.57,0.23 1.09,0.57 1.53,0.99c0.43,0.43 0.78,0.94 1.02,1.51c0.24,0.56 0.36,1.17 0.36,1.78l0,8.35c0,0.58 -0.28,0.86 -0.88,0.86c-0.12,0.01 -0.24,0 -0.35,-0.03c-0.12,-0.04 -0.22,-0.1 -0.3,-0.19c-0.09,-0.08 -0.15,-0.18 -0.19,-0.29c-0.04,-0.11 -0.05,-0.23 -0.04,-0.35l0,-7.53c0.05,-0.46 0,-0.92 -0.14,-1.35c-0.14,-0.43 -0.36,-0.83 -0.67,-1.17c-0.3,-0.34 -0.67,-0.62 -1.09,-0.8c-0.41,-0.19 -0.86,-0.29 -1.32,-0.29c-0.46,0 -0.91,0.09 -1.33,0.28c-0.43,0.18 -0.8,0.45 -1.12,0.79c-0.31,0.34 -0.55,0.74 -0.7,1.18c-0.15,0.43 -0.21,0.9 -0.17,1.36l0,7.57c0,0.58 -0.3,0.86 -0.9,0.86c-0.12,0.02 -0.24,0.01 -0.35,-0.03c-0.11,-0.03 -0.21,-0.1 -0.3,-0.18c-0.08,-0.08 -0.14,-0.19 -0.18,-0.3c-0.04,-0.11 -0.05,-0.23 -0.03,-0.35l0,-11.84l0,0.08z" fill="#E64010" id="svg_17"/>
  <path d="m244.88,65.99c-0.01,-0.12 -0.01,-0.24 0.03,-0.35c0.03,-0.12 0.1,-0.22 0.18,-0.31c0.08,-0.08 0.19,-0.14 0.3,-0.18c0.11,-0.04 0.23,-0.05 0.35,-0.03c0.61,0 0.9,0.28 0.9,0.87l0,1.97l2.11,0c0.64,0 0.95,0.27 0.95,0.83c0,0.56 -0.29,0.81 -0.9,0.81l-2.16,0l0,7.4c0,1.93 0.17,2.96 1.76,2.96c0.69,0 1.05,0.27 1.05,0.8c0,0.53 -0.36,0.85 -1.05,0.85c-2.87,0 -3.52,-1.72 -3.52,-4.53l0,-7.4l-0.76,0c-0.58,0 -0.87,-0.27 -0.87,-0.82c0,-0.55 0.23,-0.8 0.75,-0.8l0.88,0l0,-2.07z" fill="#E64010" id="svg_18"/>
  <path d="m257.09,79.81c1.3,0 2.95,-0.53 2.95,-2.1c0,-1.18 -1.47,-1.85 -2.76,-2.31c-2.2,-0.8 -4.85,-1.86 -4.85,-3.9c0,-2.74 2.29,-3.94 4.85,-3.94c1.29,-0.03 2.57,0.27 3.72,0.87c0.15,0.09 0.27,0.21 0.35,0.36c0.08,0.15 0.12,0.32 0.11,0.49c0.01,0.11 -0.01,0.22 -0.04,0.32c-0.04,0.11 -0.1,0.2 -0.18,0.28c-0.07,0.08 -0.17,0.14 -0.27,0.18c-0.1,0.05 -0.21,0.06 -0.32,0.06c-0.19,-0.01 -0.37,-0.06 -0.53,-0.15c-0.92,-0.44 -1.94,-0.66 -2.96,-0.63c-1.48,0 -2.95,0.51 -2.95,1.93c0,1.11 1.87,1.69 3.68,2.43c1.8,0.74 4,1.67 4,3.85c0,2.96 -2.6,4.04 -4.99,4.04c-1.6,-0.04 -3.14,-0.56 -4.44,-1.48c-0.1,-0.09 -0.19,-0.2 -0.24,-0.32c-0.06,-0.13 -0.08,-0.27 -0.07,-0.4c0,-0.67 0.34,-1 0.79,-1c0.25,0.02 0.5,0.12 0.71,0.27c0.99,0.74 2.2,1.14 3.44,1.15z" fill="#E64010" id="svg_19"/>
 </g>

</svg>