<svg width="400" height="400" viewBox="0 0 400 400" fill="none" xmlns="http://www.w3.org/2000/svg">
    <path d="M118.624 9.49634C118.953 7.80125 119.732 6.1917 120.902 4.78929C122.072 3.38689 123.603 2.22831 125.378 1.40106C127.154 0.573811 129.128 0.0995201 131.151 0.0140433C133.174 -0.0714334 135.194 0.234133 137.058 0.907646C139.161 1.0919 141.186 1.68442 142.977 2.63925C144.767 3.59408 146.273 4.88561 147.38 6.41373C148.487 7.94185 149.164 9.66553 149.358 11.4512C149.553 13.2369 149.26 15.0366 148.503 16.7109L30.3054 390.319C29.2444 393.668 26.6581 396.522 23.1157 398.253C19.5733 399.985 15.3648 400.452 11.4161 399.552C7.46744 398.652 4.10192 396.459 2.06003 393.455C0.0181538 390.451 -0.532866 386.883 0.528179 383.534L118.624 9.49634Z" fill="url(#paint0_linear_76_10)"/>
    <path d="M369.51 9.50192C369.851 7.83942 370.625 6.26233 371.775 4.88572C372.926 3.50911 374.425 2.3677 376.162 1.54473C377.899 0.72177 379.831 0.238023 381.817 0.12877C383.802 0.0195174 385.792 0.287513 387.64 0.913222C389.743 1.09748 391.769 1.68999 393.559 2.64483C395.349 3.59966 396.856 4.89118 397.962 6.41931C399.069 7.94743 399.746 9.6711 399.94 11.4568C400.135 13.2424 399.842 15.0422 399.085 16.7164L281.191 390.325C279.935 393.492 277.302 396.135 273.828 397.715C270.355 399.294 266.303 399.692 262.496 398.828C258.688 397.963 255.413 395.901 253.335 393.061C251.258 390.221 250.535 386.816 251.313 383.54L369.51 9.50192Z" fill="url(#paint1_linear_76_10)"/>
    <path d="M226.902 54.9202C227.231 53.2251 228.01 51.6155 229.18 50.2131C230.35 48.8107 231.881 47.6522 233.656 46.8249C235.432 45.9977 237.406 45.5233 239.429 45.4379C241.452 45.3524 243.472 45.658 245.336 46.3315C247.439 46.5157 249.465 47.1083 251.255 48.0631C253.045 49.0179 254.552 50.3094 255.658 51.8376C256.765 53.3657 257.442 55.0894 257.637 56.875C257.831 58.6607 257.538 60.4604 256.781 62.1347L204.721 226.436C203.66 229.785 201.074 232.639 197.532 234.37C193.989 236.102 189.781 236.569 185.832 235.669C181.883 234.77 178.518 232.577 176.476 229.573C174.434 226.569 173.883 223 174.944 219.651L226.902 54.9202Z" fill="url(#paint2_linear_76_10)"/>
    <defs>
        <linearGradient id="paint0_linear_76_10" x1="10.5" y1="400" x2="138" y2="9.99999" gradientUnits="userSpaceOnUse">
            <stop stop-color="white"/>
            <stop offset="1" stop-color="#F1F1F1"/>
        </linearGradient>
        <linearGradient id="paint1_linear_76_10" x1="261.478" y1="399.275" x2="388.793" y2="10.1426" gradientUnits="userSpaceOnUse">
            <stop stop-color="white"/>
            <stop offset="1" stop-color="#F1F1F1"/>
        </linearGradient>
        <linearGradient id="paint2_linear_76_10" x1="180.268" y1="236.117" x2="233.642" y2="45.2446" gradientUnits="userSpaceOnUse">
            <stop stop-color="white"/>
            <stop offset="1" stop-color="#F1F1F1"/>
        </linearGradient>
    </defs>
</svg>
