<svg width="284" height="115" viewBox="0 0 284 115" fill="none" xmlns="http://www.w3.org/2000/svg">
    <path d="M79.3099 14.3591C79.3578 14.067 79.4714 13.7896 79.6421 13.5479C79.8127 13.3063 80.036 13.1066 80.295 12.9641C80.5539 12.8215 80.8418 12.7398 81.1369 12.7251C81.4321 12.7103 81.7267 12.763 81.9985 12.8791C82.3053 12.9108 82.6007 13.0129 82.8618 13.1775C83.1229 13.342 83.3427 13.5645 83.5041 13.8279C83.6655 14.0912 83.7642 14.3882 83.7926 14.6959C83.821 15.0036 83.7783 15.3138 83.6678 15.6023L66.428 79.9823C66.2733 80.5593 65.8961 81.051 65.3794 81.3494C64.8627 81.6478 64.2489 81.7283 63.6729 81.5733C63.097 81.4182 62.6061 81.0403 62.3083 80.5227C62.0105 80.005 61.9301 79.3901 62.0849 78.8131L79.3099 14.3591Z" fill="#0D3755"/>
    <path d="M115.901 14.3594C115.951 14.0729 116.064 13.8011 116.232 13.5639C116.4 13.3267 116.618 13.13 116.872 12.9882C117.125 12.8464 117.407 12.763 117.696 12.7442C117.986 12.7254 118.276 12.7716 118.546 12.8794C118.853 12.9111 119.148 13.0132 119.409 13.1778C119.67 13.3423 119.89 13.5649 120.051 13.8282C120.213 14.0915 120.312 14.3885 120.34 14.6962C120.368 15.004 120.326 15.3141 120.215 15.6026L103.02 79.9826C102.836 80.5284 102.452 80.9838 101.946 81.256C101.439 81.5282 100.848 81.5968 100.293 81.4478C99.7375 81.2988 99.2597 80.9435 98.9567 80.4541C98.6537 79.9647 98.5482 79.378 98.6617 78.8134L115.901 14.3594Z" fill="#0D3755"/>
    <path d="M7.05604 5.11006C7.05604 3.63006 7.76513 2.90486 9.19808 2.90486C9.49698 2.85913 9.80243 2.88476 10.0896 2.97965C10.3767 3.07454 10.6374 3.23601 10.8505 3.45093C11.0636 3.66585 11.223 3.92813 11.3158 4.21644C11.4086 4.50475 11.4321 4.81093 11.3844 5.11006V42.6725H30.4265C31.9038 42.6725 32.6276 43.3829 32.6276 44.8037C32.6759 45.1042 32.6523 45.412 32.5587 45.7016C32.4652 45.9912 32.3044 46.2545 32.0895 46.4698C31.8747 46.685 31.6119 46.8461 31.3228 46.9398C31.0337 47.0336 30.7265 47.0572 30.4265 47.0089H9.96626C8.00149 47.0089 7.01172 45.8841 7.01172 43.6197V5.13966L7.05604 5.11006Z" fill="#0D3755"/>
    <path d="M48.5956 13.1902C56.4842 13.1902 60.6501 17.941 60.6501 23.9498V45.2914C60.6501 45.8802 60.4167 46.4448 60.0011 46.8612C59.5856 47.2775 59.0219 47.5114 58.4342 47.5114C57.8465 47.5114 57.2829 47.2775 56.8673 46.8612C56.4518 46.4448 56.2183 45.8802 56.2183 45.2914C56.2183 44.1518 56.2183 43.8114 56.2183 43.2638C54.8993 44.6097 53.3205 45.6725 51.5783 46.3875C49.836 47.1025 47.9667 47.4547 46.0842 47.4226C40.2638 47.4226 34.6797 44.1518 34.6797 37.5066C34.6797 30.5506 41.032 26.9838 47.2661 26.9838C50.649 26.9838 54.2683 27.9902 56.2183 29.9438V24.3642C56.2183 20.2646 52.8945 17.5266 47.3547 17.5266C43.499 17.5266 41.0024 19.0066 39.1706 19.0066C38.9118 19.0414 38.6485 19.019 38.3992 18.9409C38.1499 18.8628 37.9208 18.731 37.7279 18.5546C37.5349 18.3783 37.3829 18.1617 37.2825 17.9202C37.1821 17.6786 37.1358 17.418 37.1467 17.1566C37.1889 16.6766 37.3631 16.2178 37.65 15.8311C37.9369 15.4444 38.3252 15.145 38.7717 14.9662C41.897 13.7296 45.236 13.126 48.5956 13.1902ZM46.8229 43.323C51.2547 43.323 56.1297 40.955 56.1297 36.8406C56.1297 33.2146 51.6979 31.1426 47.2661 31.1426C43.1149 31.1426 39.1411 33.037 39.1411 37.2106C39.1411 41.3842 42.7899 43.323 46.8229 43.323Z" fill="#0D3755"/>
    <path d="M132.417 0.34375C133.002 0.34375 133.573 0.517351 134.059 0.8426C134.545 1.16785 134.923 1.63014 135.147 2.17101C135.371 2.71188 135.429 3.30703 135.315 3.88122C135.201 4.4554 134.92 4.98282 134.507 5.39679C134.093 5.81075 133.567 6.09266 132.994 6.20687C132.421 6.32109 131.827 6.26247 131.287 6.03843C130.747 5.8144 130.285 5.43501 129.961 4.94824C129.636 4.46147 129.463 3.88918 129.463 3.30375C129.463 2.51871 129.774 1.76582 130.328 1.21071C130.882 0.655604 131.634 0.34375 132.417 0.34375ZM130.364 15.4546C130.323 15.1566 130.351 14.8531 130.446 14.5677C130.541 14.2824 130.7 14.0229 130.912 13.8094C131.124 13.596 131.382 13.4344 131.666 13.3373C131.95 13.2401 132.253 13.21 132.55 13.2493C134.028 13.2493 134.87 13.9598 134.87 15.4546V44.8177C134.87 46.2977 134.102 47.0081 132.609 47.0081C132.309 47.054 132.003 47.0294 131.713 46.9365C131.424 46.8436 131.161 46.6847 130.943 46.4725C130.725 46.2603 130.56 46.0004 130.459 45.7133C130.359 45.4262 130.326 45.1196 130.364 44.8177V15.4546Z" fill="#0D3755"/>
    <path d="M146.037 15.8395C146.037 14.2855 146.746 13.5159 148.165 13.5159C149.583 13.5159 150.366 14.2855 150.366 15.8395V18.0891C151.228 16.4961 152.511 15.1715 154.074 14.2604C155.638 13.3493 157.421 12.887 159.229 12.9239C160.737 12.8965 162.235 13.1695 163.636 13.7271C165.037 14.2847 166.313 15.1158 167.391 16.172C168.469 17.2283 169.326 18.4886 169.913 19.8798C170.5 21.2709 170.806 22.7651 170.811 24.2755V44.8475C170.811 46.3275 170.087 46.9787 168.61 46.9787C168.32 47.0204 168.025 46.9941 167.747 46.9019C167.469 46.8098 167.217 46.6543 167.009 46.4477C166.802 46.2411 166.645 45.9891 166.551 45.7114C166.457 45.4337 166.429 45.138 166.468 44.8475V26.1995C166.468 20.2795 162.494 17.3195 158.52 17.3195C154.546 17.3195 150.336 20.3535 150.336 26.1995V44.8771C150.291 45.4212 150.044 45.9285 149.643 46.2984C149.242 46.6682 148.717 46.8734 148.172 46.8734C147.627 46.8734 147.102 46.6682 146.701 46.2984C146.3 45.9285 146.053 45.4212 146.008 44.8771L146.037 15.8395Z" fill="#0D3755"/>
    <path d="M192.012 13.1898C199.901 13.1898 204.052 17.9406 204.052 23.9494V45.291C204.052 45.8797 203.818 46.4444 203.403 46.8607C202.987 47.2771 202.423 47.511 201.836 47.511C201.248 47.511 200.684 47.2771 200.269 46.8607C199.853 46.4444 199.62 45.8797 199.62 45.291C199.62 44.1514 199.62 43.811 199.62 43.2634C198.3 44.6208 196.719 45.6949 194.971 46.4201C193.224 47.1452 191.347 47.5063 189.456 47.4814C183.636 47.4814 178.066 44.2106 178.066 37.5654C178.066 30.6094 184.419 27.0426 190.653 27.0426C194.021 27.0426 197.64 28.049 199.605 30.0026V24.3638C199.605 20.2642 196.281 17.5262 190.741 17.5262C186.886 17.5262 184.404 19.0062 182.557 19.0062C182.3 19.0386 182.038 19.0145 181.791 18.9353C181.543 18.8562 181.316 18.7239 181.125 18.5478C180.933 18.3718 180.783 18.156 180.683 17.9157C180.584 17.6753 180.538 17.4162 180.548 17.1562C180.601 16.6807 180.783 16.229 181.075 15.8505C181.367 15.4719 181.757 15.1812 182.203 15.0102C185.321 13.7637 188.655 13.1451 192.012 13.1898ZM190.224 43.3226C194.745 43.3226 199.546 40.9546 199.546 36.8402C199.546 33.2142 195.04 31.1422 190.682 31.1422C186.531 31.1422 182.557 33.0366 182.557 37.2102C182.557 41.3838 186.191 43.3226 190.224 43.3226Z" fill="#0D3755"/>
    <path d="M223.772 43.2635C226.978 43.2635 231.07 41.9611 231.07 38.0983C231.07 35.1383 227.392 33.5103 224.26 32.3855C218.853 30.4319 212.323 27.8123 212.323 22.7655C212.323 16.0463 217.967 13.0715 224.26 13.0715C227.453 13.0139 230.61 13.7513 233.448 15.2175C233.808 15.4268 234.104 15.7303 234.304 16.0953C234.505 16.4604 234.602 16.8732 234.586 17.2895C234.61 17.5645 234.574 17.8413 234.482 18.1013C234.389 18.3613 234.242 18.5983 234.05 18.7962C233.858 18.9942 233.626 19.1484 233.369 19.2485C233.112 19.3486 232.837 19.3922 232.562 19.3763C232.106 19.3704 231.658 19.2481 231.262 19.0211C229.034 17.9852 226.597 17.4787 224.142 17.5411C220.64 17.5411 217.021 18.7991 217.021 22.3067C217.021 25.0299 221.645 26.4655 226.092 28.2267C230.967 30.2543 235.945 32.3263 235.945 37.6839C235.945 44.9951 229.534 47.6591 223.669 47.6591C219.746 47.6068 215.927 46.3914 212.693 44.1663C212.433 43.9497 212.227 43.6746 212.094 43.3633C211.96 43.052 211.902 42.7135 211.925 42.3755C211.925 40.7179 212.752 39.9335 213.875 39.9335C214.503 39.9812 215.104 40.2127 215.603 40.5995C218.007 42.2699 220.847 43.1962 223.772 43.2635Z" fill="#0D3755"/>
    <path d="M95.1008 22.1891C95.1487 21.897 95.2623 21.6197 95.433 21.378C95.6037 21.1364 95.8269 20.9367 96.0859 20.7942C96.3448 20.6516 96.6327 20.5699 96.9279 20.5552C97.223 20.5404 97.5176 20.5931 97.7894 20.7091C98.0962 20.7409 98.3916 20.843 98.6527 21.0075C98.9138 21.1721 99.1336 21.3946 99.295 21.6579C99.4564 21.9213 99.5551 22.2183 99.5835 22.526C99.6119 22.8337 99.5692 23.1438 99.4587 23.4323L91.8655 51.7447C91.7108 52.3217 91.3336 52.8135 90.8169 53.1119C90.3002 53.4103 89.6864 53.4908 89.1104 53.3357C88.5345 53.1807 88.0436 52.8028 87.7458 52.2851C87.448 51.7675 87.3676 51.1525 87.5224 50.5755L95.1008 22.1891Z" fill="#0D3755"/>
    <path d="M143.173 78.0003C143.291 77.9912 143.409 78.008 143.52 78.0496C143.631 78.0912 143.732 78.1566 143.815 78.2412C143.898 78.3258 143.961 78.4275 144.001 78.5393C144.041 78.6511 144.055 78.7702 144.044 78.8883C144.051 79.0544 144.021 79.2199 143.958 79.3733C143.894 79.5267 143.797 79.6642 143.675 79.7763C142.273 81.0683 140.439 81.7866 138.534 81.7891C133.038 81.7891 130.32 77.1715 130.32 72.5243C130.32 67.8771 133.142 63.0227 138.667 63.0227C140.553 62.9876 142.377 63.6943 143.749 64.9911C143.885 65.093 143.998 65.2244 144.077 65.3755C144.156 65.5267 144.201 65.6937 144.207 65.8643C144.217 65.9846 144.202 66.1056 144.164 66.22C144.126 66.3345 144.065 66.4399 143.985 66.53C143.905 66.62 143.807 66.6927 143.698 66.7436C143.589 66.7946 143.47 66.8227 143.35 66.8263C143.074 66.8213 142.808 66.7221 142.596 66.5451C141.525 65.5158 140.092 64.9519 138.608 64.9763C134.368 64.9763 132.27 68.6615 132.27 72.3763C132.27 76.0911 134.442 79.9539 138.623 79.9539C139.359 79.9556 140.087 79.8083 140.765 79.5209C141.443 79.2335 142.056 78.812 142.567 78.2815C142.642 78.1936 142.734 78.123 142.839 78.0744C142.944 78.0259 143.057 78.0006 143.173 78.0003Z" fill="#E64010"/>
    <path d="M158.269 74.8926C158.269 78.5038 156.26 81.7598 152.449 81.7598C148.637 81.7598 146.613 78.3114 146.613 74.7298C146.613 71.1482 148.622 67.6406 152.522 67.6406C156.422 67.6406 158.269 71.2962 158.269 74.8926ZM148.504 74.5522C148.504 77.009 149.686 80.1022 152.449 80.1022C155.211 80.1022 156.422 77.5714 156.422 75.0406C156.422 72.5098 155.167 69.4166 152.449 69.4166C149.73 69.4166 148.504 72.0806 148.504 74.5522Z" fill="#E64010"/>
    <path d="M161.121 68.957C161.121 68.2614 161.416 67.8914 162.022 67.8914C162.628 67.8914 162.908 68.2318 162.908 68.883V69.8302C163.237 69.1831 163.735 68.6376 164.349 68.2518C164.963 67.8661 165.67 67.6545 166.395 67.6398C167.184 67.6471 167.953 67.8924 168.601 68.3439C169.249 68.7953 169.747 69.4318 170.029 70.1706C170.438 69.4016 171.049 68.7594 171.797 68.3134C172.544 67.8673 173.399 67.6344 174.268 67.6398C174.846 67.6118 175.424 67.7011 175.967 67.9022C176.51 68.1034 177.006 68.4122 177.427 68.8102C177.848 69.2082 178.184 69.6872 178.415 70.2185C178.647 70.7498 178.769 71.3225 178.774 71.9022V80.5454C178.774 81.1226 178.479 81.4038 177.888 81.4038C177.297 81.4038 176.972 81.1226 176.972 80.5454V72.7162C177.002 72.3225 176.953 71.9269 176.828 71.5524C176.703 71.178 176.505 70.8323 176.245 70.5359C175.985 70.2394 175.668 69.998 175.313 69.826C174.959 69.6539 174.573 69.5547 174.18 69.5342C173.706 69.5507 173.241 69.6631 172.811 69.8645C172.382 70.0658 171.998 70.3521 171.682 70.706C171.366 71.0599 171.125 71.4742 170.973 71.9239C170.821 72.3736 170.761 72.8495 170.797 73.323V80.5898C170.797 81.1818 170.516 81.4778 169.94 81.4778C169.819 81.4977 169.694 81.4886 169.577 81.4513C169.459 81.4139 169.352 81.3494 169.265 81.2629C169.177 81.1764 169.111 81.0703 169.071 80.9534C169.032 80.8364 169.021 80.7118 169.039 80.5898V72.7162C169.078 72.3225 169.035 71.9251 168.912 71.5492C168.788 71.1734 168.588 70.8274 168.324 70.5334C168.06 70.2395 167.737 70.004 167.377 69.8422C167.017 69.6803 166.627 69.5955 166.232 69.5934C165.762 69.6019 165.298 69.707 164.87 69.902C164.442 70.0971 164.058 70.3781 163.742 70.7276C163.426 71.0771 163.186 71.4878 163.035 71.9341C162.884 72.3805 162.825 72.8532 162.864 73.323V80.5898C162.864 81.1818 162.583 81.4778 162.007 81.4778C161.886 81.4977 161.761 81.4886 161.644 81.4513C161.526 81.4139 161.419 81.3494 161.332 81.2629C161.244 81.1764 161.178 81.0703 161.138 80.9534C161.099 80.8364 161.088 80.7118 161.106 80.5898V68.957H161.121Z" fill="#E64010"/>
    <path d="M181.965 68.6174C181.965 67.9958 182.246 67.685 182.851 67.685C183.457 67.685 183.752 67.9958 183.752 68.6174V70.4526C184.068 69.649 184.61 68.9549 185.314 68.4555C186.017 67.956 186.85 67.6728 187.711 67.6406C191.449 67.6406 193.325 71.2814 193.325 74.7742C193.325 78.267 191.449 81.745 187.711 81.745C186.905 81.781 186.106 81.5873 185.405 81.1866C184.704 80.7858 184.131 80.1943 183.752 79.4806V86.1554C183.758 86.2796 183.739 86.4037 183.696 86.5202C183.652 86.6367 183.586 86.7432 183.5 86.8332C183.415 86.9231 183.312 86.9947 183.197 87.0436C183.083 87.0924 182.961 87.1176 182.836 87.1174C182.246 87.1174 181.965 86.777 181.965 86.1258V68.6174ZM191.523 74.9222C191.523 72.5246 190.563 69.461 187.889 69.461C185.215 69.461 183.885 72.2878 183.885 74.8186C183.885 77.3494 185.097 80.1466 187.889 80.1466C190.681 80.1466 191.523 77.3494 191.523 74.9222Z" fill="#E64010"/>
    <path d="M207.478 74.8926C207.478 78.5038 205.454 81.7598 201.643 81.7598C197.831 81.7598 195.822 78.3114 195.822 74.7298C195.822 71.1482 197.817 67.6406 201.643 67.6406C205.469 67.6406 207.478 71.2962 207.478 74.8926ZM197.698 74.5522C197.698 77.009 198.88 80.1022 201.643 80.1022C204.405 80.1022 205.617 77.5714 205.617 75.0406C205.617 72.5098 204.361 69.4166 201.643 69.4166C198.925 69.4166 197.698 72.0806 197.698 74.5522Z" fill="#E64010"/>
    <path d="M210.329 68.8679C210.329 68.2315 210.609 67.9207 211.185 67.9207C211.762 67.9207 212.087 68.2315 212.087 68.8679V69.7707C212.434 69.118 212.954 68.5738 213.59 68.1978C214.226 67.8219 214.953 67.6287 215.691 67.6395C216.303 67.6277 216.91 67.738 217.479 67.9638C218.047 68.1897 218.565 68.5266 219.002 68.955C219.44 69.3834 219.787 69.8947 220.025 70.4591C220.263 71.0234 220.387 71.6296 220.389 72.2423V80.5895C220.389 81.1667 220.093 81.4479 219.502 81.4479C219.385 81.4681 219.264 81.4599 219.15 81.4241C219.036 81.3884 218.933 81.326 218.847 81.2422C218.762 81.1583 218.698 81.0555 218.661 80.942C218.623 80.8285 218.613 80.7077 218.631 80.5895V73.0563C218.678 72.6028 218.63 72.1444 218.491 71.7104C218.351 71.2765 218.122 70.8767 217.818 70.5366C217.515 70.1966 217.144 69.9238 216.73 69.7358C216.315 69.5479 215.866 69.4488 215.41 69.4451C214.95 69.4457 214.495 69.5417 214.073 69.7271C213.651 69.9125 213.272 70.1833 212.96 70.5225C212.648 70.8616 212.409 71.2618 212.259 71.6979C212.109 72.1339 212.05 72.5965 212.087 73.0563V80.6339C212.087 81.2111 211.791 81.4923 211.185 81.4923C211.069 81.5098 210.95 81.4997 210.838 81.4628C210.726 81.4258 210.624 81.3631 210.541 81.2796C210.458 81.1961 210.395 81.0942 210.358 80.9821C210.321 80.8699 210.311 80.7507 210.329 80.6339V68.7939V68.8679Z" fill="#E64010"/>
    <path d="M234.571 73.6779C234.571 74.9803 234.349 75.6315 233.212 75.6315H225.087C225.157 76.749 225.625 77.8042 226.405 78.6053C227.186 79.4065 228.228 79.9005 229.341 79.9975C229.943 80.0357 230.547 79.946 231.112 79.7343C231.677 79.5226 232.191 79.1937 232.621 78.7691C232.902 78.5056 233.27 78.3532 233.655 78.3399C233.763 78.3306 233.872 78.3454 233.974 78.3832C234.076 78.421 234.169 78.481 234.245 78.5588C234.321 78.6365 234.379 78.7302 234.415 78.8331C234.451 78.9359 234.464 79.0455 234.453 79.1539C234.46 79.2433 234.448 79.3332 234.417 79.4175C234.387 79.5019 234.338 79.5785 234.275 79.6423C233.681 80.3656 232.924 80.9373 232.066 81.3104C231.208 81.6834 230.275 81.8472 229.341 81.7883C225.367 81.7883 223.137 78.5619 223.137 74.7435C223.137 71.2063 225.205 67.6543 228.957 67.6543C232.709 67.6543 234.571 70.1703 234.571 73.6779ZM232.783 73.8999C232.783 71.4431 231.306 69.4599 229.075 69.4599C228.522 69.4863 227.98 69.6226 227.48 69.8607C226.979 70.0989 226.531 70.4343 226.162 70.8474C225.792 71.2605 225.508 71.7431 225.326 72.2671C225.144 72.7911 225.068 73.3461 225.101 73.8999H232.783Z" fill="#E64010"/>
    <path d="M237.792 68.8679C237.792 68.2315 238.072 67.9207 238.663 67.9207C239.254 67.9207 239.549 68.2315 239.549 68.8679V69.7707C239.897 69.118 240.417 68.5738 241.053 68.1978C241.689 67.8219 242.416 67.6287 243.154 67.6395C243.765 67.6277 244.373 67.738 244.942 67.9638C245.51 68.1897 246.028 68.5266 246.465 68.955C246.903 69.3834 247.25 69.8947 247.488 70.4591C247.726 71.0234 247.85 71.6296 247.852 72.2423V80.5895C247.852 81.1667 247.571 81.4479 246.965 81.4479C246.848 81.4648 246.729 81.4544 246.617 81.4175C246.504 81.3805 246.402 81.3181 246.317 81.235C246.233 81.1519 246.169 81.0504 246.13 80.9385C246.091 80.8265 246.079 80.7071 246.094 80.5895V73.0563C246.141 72.6028 246.093 72.1444 245.953 71.7104C245.814 71.2765 245.585 70.8767 245.281 70.5366C244.978 70.1966 244.607 69.9238 244.193 69.7358C243.778 69.5479 243.329 69.4488 242.873 69.4451C242.413 69.4457 241.957 69.5417 241.536 69.7271C241.114 69.9125 240.735 70.1833 240.423 70.5225C240.111 70.8616 239.872 71.2618 239.722 71.6979C239.571 72.1339 239.513 72.5965 239.549 73.0563V80.6339C239.549 81.2111 239.254 81.4923 238.648 81.4923C238.532 81.5098 238.413 81.4997 238.301 81.4628C238.189 81.4258 238.087 81.3631 238.004 81.2796C237.921 81.1961 237.858 81.0942 237.821 80.9821C237.784 80.8699 237.774 80.7507 237.792 80.6339V68.7939V68.8679Z" fill="#E64010"/>
    <path d="M251.855 66.1612C251.835 66.0433 251.843 65.9224 251.878 65.8083C251.914 65.6942 251.976 65.5902 252.06 65.5049C252.144 65.4197 252.246 65.3555 252.36 65.3178C252.473 65.2801 252.593 65.2699 252.711 65.288C253.317 65.288 253.613 65.5692 253.613 66.1612V68.1296H255.725C256.36 68.1296 256.671 68.396 256.671 68.9584C256.671 69.5208 256.375 69.7724 255.769 69.7724H253.613V77.1724C253.613 79.0964 253.775 80.1324 255.371 80.1324C256.065 80.1324 256.419 80.3988 256.419 80.9316C256.419 81.4644 256.065 81.7752 255.371 81.7752C252.505 81.7752 251.855 80.0584 251.855 77.2464V69.8464H251.086C250.51 69.8464 250.215 69.58 250.215 69.0324C250.215 68.4848 250.451 68.2332 250.968 68.2332H251.855V66.1612Z" fill="#E64010"/>
    <path d="M264.058 79.9844C265.358 79.9844 267.013 79.4516 267.013 77.8828C267.013 76.6988 265.535 76.0328 264.25 75.574C262.049 74.7748 259.405 73.7092 259.405 71.6668C259.405 68.9288 261.694 67.73 264.25 67.73C265.544 67.7046 266.824 68.0049 267.973 68.6032C268.118 68.689 268.238 68.8128 268.318 68.9614C268.399 69.11 268.438 69.2778 268.431 69.4468C268.439 69.5572 268.424 69.6682 268.387 69.7724C268.349 69.8766 268.29 69.9716 268.213 70.0513C268.137 70.131 268.044 70.1935 267.941 70.2347C267.839 70.2759 267.729 70.2949 267.618 70.2904C267.432 70.285 267.249 70.2342 267.086 70.1424C266.166 69.6996 265.153 69.4815 264.132 69.506C262.655 69.506 261.177 70.024 261.177 71.4448C261.177 72.5548 263.053 73.132 264.856 73.872C266.658 74.612 268.859 75.5444 268.859 77.72C268.859 80.68 266.259 81.7604 263.866 81.7604C262.275 81.7176 260.733 81.2025 259.434 80.2804C259.327 80.194 259.243 80.0828 259.189 79.9564C259.135 79.83 259.113 79.6923 259.124 79.5552C259.124 78.8892 259.464 78.5636 259.907 78.5636C260.164 78.5833 260.41 78.6757 260.616 78.83C261.614 79.5671 262.818 79.9709 264.058 79.9844Z" fill="#E64010"/>
</svg>
