<svg _ngcontent-gia-c5="" id="Layer_1" data-name="Layer 1" xmlns="http://www.w3.org/2000/svg" viewBox="0 0 565 80"><defs _ngcontent-gia-c5=""><style _ngcontent-gia-c5=""> .cls-1 { fill: #009ade; } .cls-2 { fill: #003764; } .cls-3 { fill: none; stroke: #003764; stroke-miterlimit: 10; stroke-width: 0.91px; } </style></defs><polygon _ngcontent-gia-c5="" points="11.02 54.69 11.02 37.42 2.37 37.42 2.37 63.33 28.28 63.33 28.28 54.69 11.02 54.69" class="cls-1"></polygon><polygon _ngcontent-gia-c5="" points="45.54 20.14 2.37 20.14 2.37 33.1 11 33.1 11 28.82 36.91 28.82 36.91 54.69 32.6 54.69 32.6 63.33 45.54 63.33 45.54 20.14" class="cls-2"></polygon><path _ngcontent-gia-c5="" d="M54.24,20H67.57V52.17H86.71V63.26H54.24Z" class="cls-2"></path><path _ngcontent-gia-c5="" d="M95.22,20H128.7v11.1H108.56v5.39h17.29V46.76H108.56v16.5H95.22Z" class="cls-2"></path><path _ngcontent-gia-c5="" d="M148.42,40.31,134.23,20.14h15.58l6.52,11.71,6.4-11.71h14.74L163.64,40.43,179,63.26H163l-7.36-12.87-7.61,12.87H132.84Z" class="cls-1"></path><path _ngcontent-gia-c5="" d="M235.37,33.14a13,13,0,0,0-13.15-10.38c-11.34,0-16.14,9.48-16.14,18.84s4.8,18.85,16.14,18.85c7.92,0,13-6.13,13.75-13.75h4.08c-1.14,10.56-7.81,17.23-17.83,17.23C208.72,63.93,202,53.36,202,41.6s6.72-22.32,20.22-22.32c8.16,0,16.09,4.92,17.23,13.86Z" class="cls-1"></path><path _ngcontent-gia-c5="" d="M245.57,32.06h3.48v7.26h.12a11.37,11.37,0,0,1,11.71-7.68v3.78c-6.85-.3-11.53,4.62-11.53,11.1V63h-3.78Z" class="cls-1"></path><path _ngcontent-gia-c5="" d="M291.12,47.54c0,8.89-5.22,16.39-14.64,16.39s-14.64-7.5-14.64-16.39,5.22-16.38,14.64-16.38S291.12,38.66,291.12,47.54Zm-25.5,0c0,6.54,3.66,13.21,10.86,13.21s10.86-6.67,10.86-13.21-3.66-13.2-10.86-13.2S265.62,41,265.62,47.54Z" class="cls-1"></path><path _ngcontent-gia-c5="" d="M293.65,32.06h4l7.92,26.53h.12l7.56-26.53h4.26l7.56,26.53h.12l7.92-26.53h4l-10,31h-4.14L315.43,37h-.12L307.75,63h-4.14Z" class="cls-1"></path><path _ngcontent-gia-c5="" d="M368.49,63H365V57.14h-.12c-1.62,4.09-6.54,6.79-11,6.79-9.42,0-13.92-7.57-13.92-16.39s4.5-16.38,13.92-16.38c4.56,0,9.18,2.34,10.74,6.78h.12V20.18h3.79Zm-14.65-2.28c8,0,10.86-6.79,10.86-13.21s-2.88-13.2-10.86-13.2c-7.2,0-10.14,6.78-10.14,13.2S346.64,60.75,353.84,60.75Z" class="cls-1"></path><path _ngcontent-gia-c5="" d="M387.63,35.24h-6.12V63h-3.78V35.24h-5.28V32.06h5.28V29.24c0-5.34,1.38-9.06,7.5-9.06a19.4,19.4,0,0,1,3.18.24v3.24a15.49,15.49,0,0,0-2.76-.3c-4.14,0-4.14,2.7-4.14,6v2.7h6.12Z" class="cls-1"></path><path _ngcontent-gia-c5="" d="M416.32,63h-3.48V57.44h-.12A11.51,11.51,0,0,1,402,63.93c-7.87,0-10.87-4.5-10.87-11.77V32.06H395V52.22c.18,5.58,2.28,8.53,8.29,8.53,6.48,0,9.3-6.13,9.3-12.43V32.06h3.78Z" class="cls-1"></path><path _ngcontent-gia-c5="" d="M423.4,32.06h3.78V37.4h.12c1.44-3.72,5.52-6.24,9.9-6.24,8.7,0,11.35,4.56,11.35,11.94V63h-3.79V43.7c0-5.28-1.74-9.36-7.86-9.36S427.36,38.9,427.18,45V63H423.4Z" class="cls-1"></path><path _ngcontent-gia-c5="" d="M482.93,63h-3.48V57.14h-.12c-1.62,4.09-6.54,6.79-11,6.79-9.42,0-13.92-7.57-13.92-16.39s4.5-16.38,13.92-16.38c4.56,0,9.18,2.34,10.74,6.78h.12V20.18h3.78Zm-14.64-2.28c8,0,10.86-6.79,10.86-13.21s-2.88-13.2-10.86-13.2c-7.2,0-10.14,6.78-10.14,13.2S461.09,60.75,468.29,60.75Z" class="cls-1"></path><path _ngcontent-gia-c5="" d="M490.2,20.18H494v6.06H490.2Zm0,11.88H494V63H490.2Z" class="cls-1"></path><path _ngcontent-gia-c5="" d="M501.18,32.06H505V37.4h.12c1.44-3.72,5.52-6.24,9.91-6.24,8.7,0,11.34,4.56,11.34,11.94V63h-3.78V43.7c0-5.28-1.74-9.36-7.87-9.36S505.14,38.9,505,45V63h-3.78Z" class="cls-1"></path><path _ngcontent-gia-c5="" d="M559.63,60.51c0,9.3-3.72,14.88-13.74,14.88-6.18,0-12.36-2.82-12.84-9.36h3.78c.78,4.56,4.92,6.18,9.06,6.18,7,0,10-4.08,10-11.7V56.3h-.11a10.59,10.59,0,0,1-9.85,6.37c-9.9,0-14-7-14-15.91,0-8.52,5-15.6,14-15.6a10.85,10.85,0,0,1,9.85,6.24h.11V32.06h3.78Zm-3.78-13.33c0-6.06-2.76-12.84-10-12.84s-10.2,6.42-10.2,12.84c0,6.24,3.18,12.31,10.2,12.31C552.43,59.49,555.85,53.42,555.85,47.18Z" class="cls-1"></path><line _ngcontent-gia-c5="" x1="190.64" y1="76" x2="190.64" y2="4" class="cls-3"></line></svg>
