<?xml version="1.0" encoding="UTF-8"?>
<svg version="1.1" xmlns="http://www.w3.org/2000/svg" width="897" height="275">
<path d="M0 0 C1.4371999 0.0005206 2.87440052 -0.00000479 4.31159973 -0.00151062 C7.29923363 -0.00142172 10.28659308 0.00884094 13.27416992 0.02709961 C17.07648965 0.049846 20.87841219 0.05031066 24.68078136 0.04358196 C27.63987168 0.0402198 30.59887368 0.04691307 33.55794716 0.0567112 C34.95917612 0.06052018 36.36041496 0.06172959 37.76164818 0.06012535 C50.72557 0.05764121 63.05034619 0.76965841 73.19921875 9.75390625 C79.58801407 16.86791618 82.85857373 25.4196849 83.26953125 34.92578125 C82.38031725 48.35291264 78.11177988 61.3610989 74.64453125 74.36328125 C39.99453125 74.36328125 5.34453125 74.36328125 -30.35546875 74.36328125 C-31.09506901 81.85480607 -31.09506901 81.85480607 -28.35546875 85.36328125 C-20.20219501 88.61552401 -10.28072432 87.7128523 -1.62890625 87.77734375 C-0.02893105 87.79608768 1.57103461 87.8156634 3.17098999 87.83602905 C7.34981617 87.88701609 11.52867429 87.92681902 15.7076416 87.96417236 C19.98486004 88.0044235 24.26194949 88.05541873 28.5390625 88.10546875 C36.90746346 88.20183137 45.27592909 88.28636096 53.64453125 88.36328125 C53.33953256 90.09405981 53.03177851 91.82435292 52.72290039 93.55444336 C52.55182266 94.51805283 52.38074493 95.48166229 52.20448303 96.47447205 C51.38701106 100.69183619 50.26566545 104.79886675 49.08203125 108.92578125 C48.86095703 109.71791016 48.63988281 110.51003906 48.41210938 111.32617188 C46.79147046 117.06940283 46.79147046 117.06940283 45.64453125 119.36328125 C33.57849774 119.45621807 21.51255028 119.52716625 9.44623089 119.57052994 C3.84252408 119.59134893 -1.7609367 119.6195624 -7.36450195 119.66503906 C-12.77859584 119.70869994 -18.192454 119.73246108 -23.60671043 119.74279022 C-25.66585179 119.75014536 -27.72498116 119.76450775 -29.78402138 119.78620148 C-54.39402233 120.03502953 -54.39402233 120.03502953 -64.796875 111.90234375 C-72.02093179 104.76881399 -75.78243702 95.51230922 -76.41015625 85.49609375 C-76.00930495 62.53304065 -67.36787132 34.28193279 -51.04296875 17.91796875 C-36.43618776 4.03303449 -19.80928319 -0.14436238 0 0 Z M-19.23046875 41.48828125 C-21.5535991 44.03549206 -21.5535991 44.03549206 -21.35546875 46.36328125 C-2.54546875 46.36328125 16.26453125 46.36328125 35.64453125 46.36328125 C36.45403042 38.14354851 36.45403042 38.14354851 34.08203125 34.92578125 C27.38480866 30.63268984 20.02774366 31.02799939 12.33203125 31.05078125 C11.25501953 31.03466797 10.17800781 31.01855469 9.06835938 31.00195312 C-1.88876348 30.99531647 -11.733427 32.90531701 -19.23046875 41.48828125 Z " fill="#2067CE" transform="translate(326.35546875,58.63671875)"/>
<path d="M0 0 C1.4772506 -0.00202851 2.95450021 -0.00494635 4.43174744 -0.00869751 C7.50513383 -0.01308304 10.57825602 -0.00681236 13.65161133 0.00732422 C17.55696387 0.02442929 21.46169817 0.01454276 25.36702824 -0.00339317 C28.4102785 -0.01432119 31.45338621 -0.01074404 34.49664116 -0.0030098 C35.93529779 -0.00103337 37.37396812 -0.00337514 38.81260872 -0.01044846 C52.72384303 -0.06387559 64.46968708 1.3592341 75.0234375 10.9921875 C82.45522566 18.85023783 84.55312058 28.83498593 84.27734375 39.3984375 C83.70020179 44.50766268 82.55591789 49.42710601 81.27734375 54.3984375 C81.03419434 55.35991699 80.79104492 56.32139648 80.54052734 57.31201172 C75.31274817 77.71195386 69.31680296 96.62261653 51.27734375 109.3984375 C41.55123263 115.12209719 32.07775765 119.62256977 20.58886719 119.68896484 C19.48730034 119.69904068 19.48730034 119.69904068 18.36347961 119.70932007 C15.95448897 119.72819524 13.54577858 119.73221914 11.13671875 119.734375 C9.44671519 119.74081106 7.75671272 119.74754001 6.06671143 119.75454712 C2.52963684 119.76649433 -1.00734027 119.77023067 -4.54443359 119.76904297 C-9.05096205 119.76884012 -13.55685747 119.79611795 -18.06323624 119.83058739 C-21.55337324 119.85295516 -25.0433604 119.85687748 -28.53356171 119.85582352 C-30.19356208 119.85816557 -31.85356748 119.86690937 -33.5134964 119.88248825 C-45.478459 119.98425717 -56.26579491 119.05912203 -65.9375 111.234375 C-73.8725385 103.07361331 -76.86840724 92.54838855 -76.72265625 81.3984375 C-75.66320228 72.39778932 -73.41143235 63.68927081 -71.03515625 54.9609375 C-70.72126953 53.74083984 -70.40738281 52.52074219 -70.08398438 51.26367188 C-65.0299664 32.6597427 -54.76656533 17.61777735 -38.01953125 7.81640625 C-25.82683469 1.25724619 -13.64789223 -0.06721232 0 0 Z M-18.984375 38.42578125 C-25.0463218 45.30506919 -26.71515743 55.57931726 -29.03515625 64.2109375 C-29.43565186 65.69678345 -29.43565186 65.69678345 -29.84423828 67.21264648 C-31.15625421 72.32985411 -32.34221426 77.08113198 -31.72265625 82.3984375 C-30.28927966 84.816824 -29.35894284 86.13623492 -26.734375 87.21777344 C-19.38420815 88.53030323 -12.17813944 88.69622906 -4.72265625 88.6484375 C-3.51609375 88.65617187 -2.30953125 88.66390625 -1.06640625 88.671875 C8.67795798 88.6506916 18.23477332 88.39094096 26.27734375 82.3984375 C31.3054669 76.49279228 33.12510683 69.19737916 35.07250977 61.84423828 C35.5901116 59.89743004 36.13232496 57.95871029 36.67773438 56.01953125 C39.19900973 46.82907352 39.19900973 46.82907352 39.27734375 37.3984375 C35.97416322 33.60949512 33.11936756 33.01185241 28.27734375 32.3984375 C23.89557483 32.20945863 19.51463092 32.21262235 15.12939453 32.21313477 C13.04698944 32.21095804 10.96512348 32.19279405 8.8828125 32.17382812 C-6.01946183 31.95193679 -6.01946183 31.95193679 -18.984375 38.42578125 Z " fill="#2067CE" transform="translate(812.72265625,58.6015625)"/>
<path d="M0 0 C37.95 0 75.9 0 115 0 C113.74441961 6.90569217 112.49592679 13.62119899 110.6875 20.375 C110.49994141 21.14199219 110.31238281 21.90898438 110.11914062 22.69921875 C107.80714214 31.30788191 101.4896104 35.34060455 94.6875 40.5625 C93.89061768 41.17818848 93.09373535 41.79387695 92.27270508 42.42822266 C86.63591935 46.77230105 80.95940523 51.06179529 75.25488281 55.31640625 C68.78668438 60.14294607 62.37439687 65.04191286 55.97143555 69.95458984 C48.39131264 75.75163818 40.70157266 81.35218005 33 87 C51.15 87.33 69.3 87.66 88 88 C85.36 98.23 82.72 108.46 80 119 C42.05 119 4.1 119 -35 119 C-31.82673498 93.61387983 -31.82673498 93.61387983 -25.53125 86.0234375 C-23.03935193 84.19558919 -20.52614789 82.60544845 -17.82910156 81.10058594 C-14.18339229 78.90693172 -10.90862733 76.18089974 -7.5625 73.5625 C-6.09618872 72.4373193 -4.62875247 71.313603 -3.16015625 70.19140625 C1.43929841 66.66456411 6.03266027 63.1298516 10.625 59.59375 C14.57677441 56.55392353 18.53863618 53.52731223 22.5 50.5 C27.83645646 46.42073576 33.17214491 42.34049528 38.5 38.25 C39.5415625 37.45078125 40.583125 36.6515625 41.65625 35.828125 C43.83555022 34.20533717 43.83555022 34.20533717 45 33 C27.51 32.67 10.02 32.34 -8 32 C-5.48172436 21.29732853 -2.83298753 10.62370324 0 0 Z " fill="#2067CE" transform="translate(433,59)"/>
<path d="M0 0 C1.25963011 0.00138269 1.25963011 0.00138269 2.5447073 0.00279331 C3.50529552 0.00141865 4.46588375 0.00004398 5.45558071 -0.00137234 C6.51796963 0.00222294 7.58035854 0.00581821 8.67494106 0.00952244 C10.34302067 0.0093034 10.34302067 0.0093034 12.04479885 0.00907993 C15.74046143 0.00977962 19.43607434 0.01757463 23.13172817 0.02539158 C25.68620686 0.02725556 28.24068589 0.02867956 30.79516506 0.0296793 C36.84418902 0.03311439 42.89319147 0.04100518 48.9422068 0.05102879 C55.82722346 0.062191 62.71224096 0.06770065 69.59726441 0.07272422 C83.76371022 0.08318783 97.93014009 0.1007866 112.09657192 0.12304783 C108.63101175 28.31811784 108.63101175 28.31811784 99.90907192 35.62304783 C98.28811691 36.73707872 96.66394659 37.84829811 94.99842739 38.8945322 C92.02386219 40.8159715 89.21918269 42.95754081 86.38270473 45.07544041 C83.95154303 46.88798026 81.50397018 48.67642784 79.05360317 50.46289158 C73.41054564 54.60290727 67.8967337 58.90078802 62.38636684 63.2148447 C58.21640482 66.47801206 54.02676846 69.70494503 49.78407192 72.87304783 C43.5089406 77.56215695 37.30565746 82.34682818 31.09657192 87.12304783 C48.91657192 87.45304783 66.73657192 87.78304783 85.09657192 88.12304783 C82.65229307 98.51123293 80.02836111 108.86178567 77.09657192 119.12304783 C39.14657192 119.12304783 1.19657192 119.12304783 -37.90342808 119.12304783 C-37.24342808 115.82304783 -36.58342808 112.52304783 -35.90342808 109.12304783 C-35.6172562 107.54523533 -35.33108433 105.96742283 -35.03624058 104.34179783 C-33.05275217 94.52450099 -30.90956747 88.44257197 -22.41124058 82.43945408 C-21.84695347 82.07094334 -21.28266636 81.70243259 -20.70127964 81.32275486 C-18.05040839 79.55382747 -15.54132963 77.61015559 -13.00840855 75.67773533 C-10.96394912 74.12154149 -8.90501267 72.58668291 -6.84092808 71.05664158 C-2.28982925 67.67522796 2.19839342 64.21668501 6.68641567 60.75195408 C11.367337 57.13873325 16.0695427 53.55332664 20.76869106 49.96386814 C24.17199579 47.3631384 27.57255593 44.75907552 30.96375942 42.14257908 C31.55866177 41.68367283 32.15356411 41.22476658 32.7664938 40.75195408 C34.3641796 39.51846012 35.96088022 38.2836904 37.55750942 37.04882908 C39.36060787 35.68124826 41.21359205 34.37836775 43.09657192 33.12304783 C25.27657192 32.79304783 7.45657192 32.46304783 -10.90342808 32.12304783 C-9.60405308 27.02867283 -8.30467808 21.93429783 -6.96592808 16.68554783 C-6.55737583 15.07623386 -6.14882359 13.4669199 -5.72789097 11.80883884 C-5.40554478 10.55256687 -5.08319859 9.2962949 -4.75108433 8.00195408 C-4.49965672 7.00560947 -4.49965672 7.00560947 -4.24314976 5.9891367 C-2.74417438 0.17739819 -2.74417438 0.17739819 0 0 Z " fill="#2067CE" transform="translate(562.9034280776978,58.876952171325684)"/>
<path d="M0 0 C3.95807715 -0.11761144 7.91569621 -0.18771882 11.875 -0.25 C13.53789062 -0.30027344 13.53789062 -0.30027344 15.234375 -0.3515625 C25.78413042 -0.47567727 33.59881414 1.90159808 41.3125 9.2109375 C47.84533907 16.1369567 49.35557569 23.19648643 49.28372192 32.44711304 C48.79561195 38.55943431 47.12502962 44.33057283 45.4507122 50.20371437 C44.79379856 52.50895039 44.15646175 54.81887615 43.52345276 57.13078308 C42.17845219 62.02948157 40.80924657 66.9212354 39.4375 71.8125 C37.84314093 77.50393277 36.25903614 83.19791918 34.69658089 88.89819908 C34.07011754 91.16532745 33.42732745 93.42738816 32.78355408 95.68965149 C32.39846534 97.08561182 32.01411322 98.48177564 31.63061523 99.87817383 C31.29086166 101.08774246 30.95110809 102.2973111 30.60105896 103.54353333 C29.93471864 107.37540884 30.09758065 110.22437567 31 114 C35.50522937 117.37892203 40.54362304 117.64836682 46 118 C45.4212551 120.54278345 44.83702943 123.08412635 44.25 125.625 C44.09273438 126.31851563 43.93546875 127.01203125 43.7734375 127.7265625 C42.11012422 134.89160432 40.05611737 141.93982275 38 149 C31.32899108 149.10192421 24.65818507 149.17168442 17.98657227 149.21972656 C15.71989437 149.23976707 13.45326768 149.26700711 11.18676758 149.30175781 C7.91735144 149.35060868 4.64862243 149.37304512 1.37890625 149.390625 C-0.12632851 149.42159271 -0.12632851 149.42159271 -1.66197205 149.45318604 C-9.82639103 149.45575463 -15.51657521 147.34461284 -22.25 142.8125 C-28.82834937 136.08464269 -31.51058639 128.62281463 -31.42010498 119.32540894 C-30.73107475 109.40856545 -27.33500789 99.6366245 -24.7265625 90.09765625 C-24.07980422 87.68716831 -23.43443087 85.27630839 -22.79037476 82.86509705 C-21.09909911 76.5490544 -19.38817651 70.23849629 -17.67327881 63.92883301 C-15.92886597 57.50275698 -14.20896257 51.07009001 -12.484375 44.63867188 C-9.96231666 35.25006666 -7.43578056 25.86268871 -4.88916016 16.48071289 C-4.49318886 15.01486 -4.49318886 15.01486 -4.08921814 13.51939392 C-2.84934093 8.9640438 -1.55838294 4.45962407 0 0 Z " fill="#2067CE" transform="translate(192,29)"/>
<path d="M0 0 C19.14 0 38.28 0 58 0 C56.84168691 5.79156543 55.72258918 11.35264927 54.20678711 17.02026367 C54.03839923 17.65326323 53.87001135 18.28626278 53.69652081 18.93844414 C53.14310419 21.01575976 52.58526672 23.09185934 52.02734375 25.16796875 C51.62762234 26.6645179 51.22816429 28.16113742 50.82894897 29.65782166 C49.75761308 33.67091003 48.68229861 37.68292173 47.60599136 41.69467926 C46.71130113 45.03100114 45.81863111 48.36786217 44.92594051 51.70471954 C42.63471539 60.26895251 40.33890258 68.8319486 38.04069424 77.39431 C36.49485056 83.15410166 34.9512977 88.91450276 33.40917969 94.67529297 C31.4195353 102.10742508 29.42594149 109.53848763 27.4289856 116.96865845 C26.68471965 119.73814122 25.94186556 122.50799689 25.20016479 125.27816772 C24.17514106 129.10577928 23.14455312 132.93187935 22.11328125 136.7578125 C21.81005951 137.89266586 21.50683777 139.02751923 21.19442749 140.19676208 C20.91797394 141.21867142 20.64152039 142.24058075 20.35668945 143.29345703 C20.11723099 144.18420929 19.87777252 145.07496155 19.63105774 145.9927063 C19 148 19 148 18 149 C16.22008076 149.09370624 14.43643261 149.11744271 12.65405273 149.11352539 C11.5129454 149.11344986 10.37183807 149.11337433 9.19615173 149.11329651 C7.9545076 149.10813522 6.71286346 149.10297394 5.43359375 149.09765625 C3.53795433 149.09553383 3.53795433 149.09553383 1.60401917 149.09336853 C-1.76124889 149.08870582 -5.1264499 149.0797148 -8.49169922 149.06866455 C-11.9234967 149.05844846 -15.35530109 149.05387049 -18.78710938 149.04882812 C-25.52475824 149.0377738 -32.26237525 149.0210171 -39 149 C-38.38881623 143.10471337 -37.24808222 137.59806553 -35.69018555 131.88574219 C-35.4557222 131.00915451 -35.22125885 130.13256683 -34.97969055 129.22941589 C-34.20380923 126.33383615 -33.42032531 123.44037281 -32.63671875 120.546875 C-32.08352548 118.48907185 -31.53078505 116.43114691 -30.97846985 114.37310791 C-29.51648953 108.93073124 -28.04797077 103.49013907 -26.57818604 98.04986572 C-25.13058841 92.68672135 -23.68973507 87.3217665 -22.24804688 81.95703125 C-14.89707386 54.62020814 -7.46124911 27.30692536 0 0 Z " fill="#2067CE" transform="translate(39,29)"/>
<path d="M0 0 C1.01037827 0.00222061 2.02075653 0.00444122 3.06175232 0.00672913 C4.77341331 0.00684242 4.77341331 0.00684242 6.51965332 0.00695801 C7.76129745 0.01211929 9.00294159 0.01728058 10.2822113 0.02259827 C12.17785072 0.02472069 12.17785072 0.02472069 14.11178589 0.02688599 C17.47705394 0.0315487 20.84225495 0.04053972 24.20750427 0.05158997 C27.63930175 0.06180606 31.07110614 0.06638403 34.50291443 0.07142639 C41.2405633 0.08248071 47.9781803 0.09923742 54.71580505 0.12025452 C54.052495 8.00397088 51.8987491 15.48419063 49.84080505 23.09291077 C49.43946138 24.59217507 49.03857871 26.09156285 48.63812256 27.59106445 C47.56041437 31.62108818 46.47611355 35.64931056 45.39046097 39.67720032 C44.26110622 43.87142655 43.1376492 48.06723228 42.01341248 52.26283264 C39.7071535 60.86509923 37.39319521 69.46528044 35.07707214 78.06489563 C33.75686037 82.96692849 32.43850963 87.8694604 31.12059021 92.77210999 C28.75922398 101.5555605 26.39506482 110.33825581 24.02830505 119.12025452 C23.84411011 119.80382648 23.65991516 120.48739845 23.47013855 121.19168472 C22.25809687 125.68915237 21.0441095 130.18609122 19.8290863 134.68275452 C19.52585953 135.80729538 19.22263275 136.93183624 18.91021729 138.0904541 C18.63376877 139.1122023 18.35732025 140.1339505 18.07249451 141.18666077 C17.83303604 142.0729718 17.59357758 142.95928284 17.34686279 143.87245178 C16.85173467 145.63607861 16.29507454 147.38244604 15.71580505 149.12025452 C-3.42419495 149.12025452 -22.56419495 149.12025452 -42.28419495 149.12025452 C-37.68856639 129.58883316 -37.68856639 129.58883316 -35.26319885 120.53358459 C-34.98939896 119.50330139 -34.71559906 118.47301819 -34.4335022 117.41151428 C-33.54493536 114.07030787 -32.65291399 110.73003528 -31.76075745 107.38978577 C-31.13046568 105.02303175 -30.50037322 102.65622464 -29.87046814 100.28936768 C-28.55575838 95.35133377 -27.23947749 90.41372258 -25.92189026 85.47645569 C-24.25017162 79.21215137 -22.5811282 72.94713857 -20.91312599 66.68184376 C-19.30074887 60.6259146 -17.68706822 54.57033301 -16.07325745 48.51478577 C-15.77419117 47.39221689 -15.47512489 46.26964802 -15.166996 45.1130619 C-13.48443435 38.79939203 -11.79775025 32.48685178 -10.10402679 26.17616653 C-9.54317485 24.08559858 -8.98332111 21.99476265 -8.42432404 19.90369797 C-7.59382959 16.80004772 -6.75874433 13.69766879 -5.92237854 10.59559631 C-5.67069223 9.65228612 -5.41900593 8.70897593 -5.15969276 7.73708057 C-4.92736631 6.8792633 -4.69503986 6.02144602 -4.45567322 5.13763428 C-4.25275351 4.38282115 -4.04983379 3.62800802 -3.840765 2.85032177 C-3.00787686 0.26133503 -2.78463693 0.14660096 0 0 Z " fill="#2067CE" transform="translate(118.28419494628906,28.879745483398438)"/>
<path d="M0 0 C14.85 0 29.7 0 45 0 C38.81273443 24.23132623 32.46624685 48.41287002 25.9765625 72.56469727 C24.72197249 77.23396942 23.47111657 81.90423358 22.22115326 86.57474613 C21.24645708 90.21496861 20.26975489 93.85465046 19.29243469 97.49416924 C18.82927659 99.22002084 18.36677504 100.94604878 17.904953 102.67225838 C17.26878234 105.04907556 16.6298846 107.42514265 15.99023438 109.80102539 C15.70826202 110.85790054 15.70826202 110.85790054 15.42059326 111.93612671 C14.11425906 116.77148188 14.11425906 116.77148188 13 119 C-1.52 119 -16.04 119 -31 119 C-30.28375941 113.98631588 -29.41135034 109.32885937 -28.1015625 104.47705078 C-27.81579094 103.39923088 -27.81579094 103.39923088 -27.52424622 102.29963684 C-26.89503053 99.93048049 -26.26008131 97.56290262 -25.625 95.1953125 C-25.17684112 93.5132596 -24.72901247 91.83111869 -24.28149414 90.14889526 C-23.09833209 85.70544727 -21.91018414 81.26334659 -20.72113037 76.82147217 C-19.77848646 73.29670996 -18.83945407 69.77099098 -17.90061951 66.24521255 C-12.0144154 44.14112729 -6.03854957 22.06297928 0 0 Z " fill="#2067CE" transform="translate(694,59)"/>
<path d="M0 0 C3.7433257 2.59697643 5.63996386 5.15426658 7.06640625 9.43359375 C7.72726386 17.35305137 7.63785326 23.77552807 3.06640625 30.43359375 C2.50953125 31.29984375 1.95265625 32.16609375 1.37890625 33.05859375 C-4.40139285 38.99511715 -11.19643479 42.98980762 -19.51953125 43.76953125 C-33.30692092 43.91166929 -33.30692092 43.91166929 -38.93359375 39.43359375 C-43.32429708 34.9273456 -45.02710302 30.84804741 -45.24609375 24.62109375 C-45.03000805 16.51787982 -42.40022319 11.16178192 -36.890625 5.2578125 C-26.65120125 -4.28672021 -12.39626141 -7.02388488 0 0 Z " fill="#2067CE" transform="translate(744.93359375,3.56640625)"/>
<path d="M0 0 C2.97 0 5.94 0 9 0 C18 19.40163934 18 19.40163934 18 24 C18.66 24 19.32 24 20 24 C20.23074219 23.47019531 20.46148438 22.94039062 20.69921875 22.39453125 C22.7615638 18.59808226 25.5169043 15.32328133 28.19140625 11.9465332 C30.54889148 8.950139 32.61432595 6.00955392 34.5 2.6875 C37 0 37 0 39.43164062 -0.26245117 C40.78032227 -0.21568237 40.78032227 -0.21568237 42.15625 -0.16796875 C43.51459961 -0.13159302 43.51459961 -0.13159302 44.90039062 -0.09448242 C45.59326172 -0.06330322 46.28613281 -0.03212402 47 0 C44.71041743 13.76326243 42.18843608 27.41522712 39 41 C35.7 41 32.4 41 29 41 C29.2165625 39.80761719 29.433125 38.61523438 29.65625 37.38671875 C29.93763596 35.82033692 30.21887849 34.25392932 30.5 32.6875 C30.64308594 31.90181641 30.78617188 31.11613281 30.93359375 30.30664062 C31.06894531 29.54931641 31.20429687 28.79199219 31.34375 28.01171875 C31.46943359 27.31522217 31.59511719 26.61872559 31.72460938 25.90112305 C32.07168026 23.82532567 32.07168026 23.82532567 32 21 C30.37380483 23.10325242 28.74900468 25.20755729 27.125 27.3125 C26.66480469 27.90740234 26.20460938 28.50230469 25.73046875 29.11523438 C23.73752851 31.70028005 21.81133955 34.28299068 20 37 C18.02 37 16.04 37 14 37 C10.535 28.585 10.535 28.585 7 20 C5.35 26.93 3.7 33.86 2 41 C-1.3 41 -4.6 41 -8 41 C-2.64974842 11.65458453 -2.64974842 11.65458453 0 0 Z " fill="#9CA6AD" transform="translate(635,218)"/>
<path d="M0 0 C4.39570794 -0.0872253 8.79119271 -0.14046869 13.1875 -0.1875 C14.43337891 -0.21263672 15.67925781 -0.23777344 16.96289062 -0.26367188 C18.16494141 -0.27333984 19.36699219 -0.28300781 20.60546875 -0.29296875 C21.71043701 -0.3086792 22.81540527 -0.32438965 23.95385742 -0.34057617 C28.34864456 0.15078618 30.91835224 1.91835224 34 5 C34.66501558 8.95509264 35.08792332 13.28282486 32.87890625 16.76953125 C31.5 18.125 31.5 18.125 29 20 C29.474375 20.33 29.94875 20.66 30.4375 21 C32.81396445 24.0418745 33.09243201 27.25294857 33 31 C31.77313216 35.25314183 30.4999379 36.65888044 26.83984375 39.15625 C20.47918509 42.19808518 13.37693521 41.4211966 6.5 41.25 C5.09117126 41.22990166 3.68231479 41.21165678 2.2734375 41.1953125 C-1.15175664 41.14839203 -4.57551524 41.08274777 -8 41 C-2.80165565 12.48777541 -2.80165565 12.48777541 0 0 Z M9 8 C8.34 10.97 7.68 13.94 7 17 C8.91635217 17.05423638 10.83314925 17.09289963 12.75 17.125 C13.81734375 17.14820313 14.8846875 17.17140625 15.984375 17.1953125 C18.9524622 17.00307887 20.57050559 16.67669333 23 15 C23.99077298 12.54713404 23.99077298 12.54713404 24 10 C22.11153817 7.67133771 22.11153817 7.67133771 18.9609375 7.8046875 C17.18589844 7.83949219 17.18589844 7.83949219 15.375 7.875 C13.59222656 7.90207031 13.59222656 7.90207031 11.7734375 7.9296875 C10.85820312 7.95289063 9.94296875 7.97609375 9 8 Z M6 24 C5.34 26.97 4.68 29.94 4 33 C6.4377963 33.05397335 8.87439685 33.09365616 11.3125 33.125 C12.34793945 33.15013672 12.34793945 33.15013672 13.40429688 33.17578125 C17.17135396 33.21217794 18.78431704 33.14378864 22 31 C22.5 28.5 22.5 28.5 22 26 C18.36804504 23.57869669 16.61650652 23.78977215 12.3125 23.875 C11.13300781 23.89304688 9.95351563 23.91109375 8.73828125 23.9296875 C7.38283203 23.96449219 7.38283203 23.96449219 6 24 Z " fill="#9CA6AD" transform="translate(421,218)"/>
<path d="M0 0 C3.15177939 -0.56732029 5.86288137 -0.71838466 9 0 C11.76431851 2.52905736 13.2627706 5.71370459 15 9 C16.04599549 10.82863222 17.10596248 12.64870877 18.16723633 14.46850586 C19.80021527 17.2997289 21.39631717 20.1520805 23 23 C24.65 15.41 26.3 7.82 28 0 C31.3 0 34.6 0 38 0 C37.31590508 8.84993678 35.66870709 17.43603669 33.9375 26.125 C33.65257132 27.57283339 33.36806298 29.02074957 33.08398438 30.46875 C32.39416131 33.98013338 31.69867425 37.49036568 31 41 C27.46580211 41.70559232 24.51144032 41.90188033 21 41 C17.81312248 37.7841924 15.92333308 34.00803636 13.875 30 C13.30007813 28.95070312 12.72515625 27.90140625 12.1328125 26.8203125 C10.71991827 24.23000642 9.34530937 21.62586105 8 19 C7.52322462 20.87982475 7.04833785 22.76012854 6.57421875 24.640625 C6.30955811 25.68766602 6.04489746 26.73470703 5.7722168 27.81347656 C4.71241349 32.18671489 3.84489114 36.5805694 3 41 C-0.63 41 -4.26 41 -8 41 C-2.64974842 11.65458453 -2.64974842 11.65458453 0 0 Z " fill="#9CA6AD" transform="translate(723,218)"/>
<path d="M0 0 C1.51400391 0.01740234 1.51400391 0.01740234 3.05859375 0.03515625 C4.07050781 0.04417969 5.08242188 0.05320313 6.125 0.0625 C6.90746094 0.07410156 7.68992187 0.08570313 8.49609375 0.09765625 C9.78373109 5.2923445 11.06530743 10.48847638 12.34130859 15.68603516 C12.77617097 17.45369722 13.21268206 19.22095455 13.65087891 20.98779297 C14.28071823 23.52857335 14.90459941 26.07075387 15.52734375 28.61328125 C15.72420776 29.40196594 15.92107178 30.19065063 16.12390137 31.00323486 C16.97425391 34.49770285 17.49609375 37.47910945 17.49609375 41.09765625 C14.19609375 41.09765625 10.89609375 41.09765625 7.49609375 41.09765625 C6.83609375 38.78765625 6.17609375 36.47765625 5.49609375 34.09765625 C2.5971906 33.90800838 -0.28929494 33.76979654 -3.19140625 33.66015625 C-4.00802734 33.60150391 -4.82464844 33.54285156 -5.66601562 33.48242188 C-8.12723616 33.41267069 -10.12725162 33.43876234 -12.50390625 34.09765625 C-14.10896778 35.78930766 -15.17496204 37.51633798 -16.35229492 39.52368164 C-17.50390625 41.09765625 -17.50390625 41.09765625 -20.3984375 41.78125 C-21.36136719 41.70003906 -22.32429687 41.61882812 -23.31640625 41.53515625 C-24.78013672 41.44041016 -24.78013672 41.44041016 -26.2734375 41.34375 C-27.00949219 41.26253906 -27.74554687 41.18132812 -28.50390625 41.09765625 C-24.54210577 33.35120896 -19.9821151 26.1665099 -15.11328125 18.9765625 C-12.08714804 14.50428243 -9.17982868 9.95844401 -6.28393555 5.40112305 C-2.91268518 0.11359927 -2.91268518 0.11359927 0 0 Z M0.49609375 11.09765625 C-0.90315732 13.2246362 -2.24723818 15.35932635 -3.56640625 17.53515625 C-3.94345703 18.14681641 -4.32050781 18.75847656 -4.70898438 19.38867188 C-6.6539887 22.06067976 -6.6539887 22.06067976 -7.50390625 25.09765625 C-3.87390625 25.09765625 -0.24390625 25.09765625 3.49609375 25.09765625 C2.77280466 18.05516895 2.77280466 18.05516895 1.49609375 11.09765625 C1.16609375 11.09765625 0.83609375 11.09765625 0.49609375 11.09765625 Z " fill="#9CA6AD" transform="translate(792.50390625,217.90234375)"/>
<path d="M0 0 C1.51400391 0.01740234 1.51400391 0.01740234 3.05859375 0.03515625 C4.07050781 0.04417969 5.08242188 0.05320313 6.125 0.0625 C6.90746094 0.07410156 7.68992187 0.08570313 8.49609375 0.09765625 C9.78373109 5.2923445 11.06530743 10.48847638 12.34130859 15.68603516 C12.77617097 17.45369722 13.21268206 19.22095455 13.65087891 20.98779297 C14.28071823 23.52857335 14.90459941 26.07075387 15.52734375 28.61328125 C15.72420776 29.40196594 15.92107178 30.19065063 16.12390137 31.00323486 C16.97425391 34.49770285 17.49609375 37.47910945 17.49609375 41.09765625 C14.19609375 41.09765625 10.89609375 41.09765625 7.49609375 41.09765625 C6.83609375 38.78765625 6.17609375 36.47765625 5.49609375 34.09765625 C2.5971906 33.90800838 -0.28929494 33.76979654 -3.19140625 33.66015625 C-4.00802734 33.60150391 -4.82464844 33.54285156 -5.66601562 33.48242188 C-8.12723616 33.41267069 -10.12725162 33.43876234 -12.50390625 34.09765625 C-14.10896778 35.78930766 -15.17496204 37.51633798 -16.35229492 39.52368164 C-17.50390625 41.09765625 -17.50390625 41.09765625 -20.3984375 41.78125 C-21.36136719 41.70003906 -22.32429687 41.61882812 -23.31640625 41.53515625 C-24.78013672 41.44041016 -24.78013672 41.44041016 -26.2734375 41.34375 C-27.00949219 41.26253906 -27.74554687 41.18132812 -28.50390625 41.09765625 C-24.54210577 33.35120896 -19.9821151 26.1665099 -15.11328125 18.9765625 C-12.08714804 14.50428243 -9.17982868 9.95844401 -6.28393555 5.40112305 C-2.91268518 0.11359927 -2.91268518 0.11359927 0 0 Z M0.49609375 11.09765625 C-0.90315732 13.2246362 -2.24723818 15.35932635 -3.56640625 17.53515625 C-3.94345703 18.14681641 -4.32050781 18.75847656 -4.70898438 19.38867188 C-6.6539887 22.06067976 -6.6539887 22.06067976 -7.50390625 25.09765625 C-3.87390625 25.09765625 -0.24390625 25.09765625 3.49609375 25.09765625 C2.77280466 18.05516895 2.77280466 18.05516895 1.49609375 11.09765625 C1.16609375 11.09765625 0.83609375 11.09765625 0.49609375 11.09765625 Z " fill="#9CA6AD" transform="translate(599.50390625,217.90234375)"/>
<path d="M0 0 C-0.99 2.97 -1.98 5.94 -3 9 C-4.98 8.2265625 -4.98 8.2265625 -7 7.4375 C-11.8176108 5.81640821 -15.0544188 5.95882501 -20 7 C-20.99 7.495 -20.99 7.495 -22 8 C-22 9.32 -22 10.64 -22 12 C-20.87980469 12.38671875 -19.75960937 12.7734375 -18.60546875 13.171875 C-17.13257091 13.69723984 -15.65992774 14.22331905 -14.1875 14.75 C-13.44951172 15.00265625 -12.71152344 15.2553125 -11.95117188 15.515625 C-4.97127612 18.0422841 -4.97127612 18.0422841 -3 22 C-2.46242161 26.76140861 -2.51110974 29.00341602 -4.625 33.3125 C-8.87555317 38.12233649 -13.72563872 39.65089878 -19.9609375 40.16015625 C-26.65724859 40.43035828 -32.99006246 39.00496877 -39 36 C-37.90931332 32.22454612 -37.0916909 29.52956528 -34 27 C-33.195625 27.474375 -32.39125 27.94875 -31.5625 28.4375 C-25.88624489 30.92708558 -20.04037857 31.7536583 -14 30 C-13.96085984 27.55944351 -13.96085984 27.55944351 -15 25 C-18.07964024 23.43268214 -18.07964024 23.43268214 -21.8125 22.4375 C-30.08125131 19.96115893 -30.08125131 19.96115893 -33 16 C-34.19331781 11.01275455 -33.55842697 6.99075753 -31.0625 2.5625 C-21.55333701 -5.39414659 -10.95755739 -3.70396306 0 0 Z " fill="#9CA6AD" transform="translate(858,220)"/>
<path d="M0 0 C3.3 0 6.6 0 10 0 C12.37247413 5.31761443 14.72004216 10.64209908 17 16 C18.23370442 14.64996613 19.46170084 13.29471571 20.6875 11.9375 C21.42871094 11.1228125 22.16992188 10.308125 22.93359375 9.46875 C24.72328131 7.33059776 25.93850856 5.37098982 27.25 2.9375 C28.37109375 1.2421875 28.37109375 1.2421875 30 0 C34.06302114 -0.58729609 37.92539602 -0.40940997 42 0 C37.8965302 5.56353728 33.63796597 10.97128625 29.25 16.3125 C28.10814455 17.70341788 26.9674698 19.09530608 25.828125 20.48828125 C25.3321582 21.09196533 24.83619141 21.69564941 24.32519531 22.31762695 C21.25029781 26.22129657 20.35132235 29.35026656 19.375 34.1875 C18.98441406 36.09595703 18.98441406 36.09595703 18.5859375 38.04296875 C18.39257812 39.01878906 18.19921875 39.99460937 18 41 C14.37 41 10.74 41 7 41 C7.55338542 38.39583333 8.10677083 35.79166667 8.66015625 33.1875 C9.51676817 25.15307091 7.02682719 18.89212199 3.9375 11.625 C3.19372219 9.84756174 2.45269169 8.06897054 1.71484375 6.2890625 C1.38605225 5.51256348 1.05726074 4.73606445 0.71850586 3.93603516 C0 2 0 2 0 0 Z " fill="#9CA6AD" transform="translate(467,218)"/>
<path d="M0 0 C3.63 0 7.26 0 11 0 C9.02 10.56 7.04 21.12 5 32 C11.27 32.33 17.54 32.66 24 33 C23.67 35.64 23.34 38.28 23 41 C12.77 41 2.54 41 -8 41 C-2.71428571 12.14285714 -2.71428571 12.14285714 0 0 Z " fill="#9CA6AD" transform="translate(541,218)"/>
<path d="M0 0 C3.63 0 7.26 0 11 0 C8.36 13.53 5.72 27.06 3 41 C-0.63 41 -4.26 41 -8 41 C-2.8470948 12.73700306 -2.8470948 12.73700306 0 0 Z " fill="#9CA6AD" transform="translate(697,218)"/>
</svg>
