<?xml version="1.0" encoding="UTF-8"?><svg id="Layer_2" xmlns="http://www.w3.org/2000/svg" viewBox="0 0 894.98 259.66"><defs><style>.cls-1{fill:#2067ce;}.cls-2{fill:#9ca6ad;}</style></defs><g id="Layer_1-2"><path class="cls-1" d="M747.17,7.81c-3.8-4.96-10.11-7.81-17.29-7.81-13.42,0-26.51,9.66-29.82,21.97-1.67,6.21-.62,12.2,2.96,16.86,3.75,4.88,9.96,7.68,17.04,7.68,13.33,0,26.83-9.86,30.08-21.98,1.64-6.14.59-12.08-2.98-16.71Z"/><polygon class="cls-1" points="662.81 174.85 662.22 177.04 705.32 177.04 736.34 61.31 736.93 59.12 693.82 59.12 662.81 174.85"/><path class="cls-1" d="M400.41,72.35c-6.4-8.33-16.29-12.92-27.85-12.92h-58.3c-24.17,0-49.25,20.24-55.91,45.12l-6.79,25.36c-3.45,12.84-1.45,25.37,5.49,34.4,6.44,8.4,16.4,13.03,28.02,13.03h85.29l8.23-30.73h-69.54c-7.56,0-12.38-1.28-14.31-3.81-1.4-1.82-1.27-6.59-.54-10.71h104.88l6.31-23.57h0s.87-3.36.87-3.36c2.86-12.31.76-24.19-5.87-32.83ZM346.34,89.34c7.8,0,12.28,2.28,14.19,4.78,1.38,1.79,1.66,6.46.89,10.66h-59.05c4.32-8.79,12.82-15.44,26.58-15.44h17.39Z"/><polygon class="cls-1" points="432.74 59.44 424.43 90.41 480.69 90.41 404.73 148.66 397.02 177.36 510.83 177.36 519.07 146.63 462.07 146.63 538.65 88.46 546.43 59.44 432.74 59.44"/><polygon class="cls-1" points="560.06 59.44 551.75 90.41 608.01 90.41 532.05 148.66 524.34 177.36 638.15 177.36 646.39 146.63 589.39 146.63 665.97 88.46 673.76 59.44 560.06 59.44"/><path class="cls-1" d="M887.85,72.35c-6.39-8.33-16.27-12.92-27.84-12.92h-59.81c-24.16,0-49.24,20.24-55.91,45.12l-6.79,25.36c-3.45,12.83-1.44,25.36,5.49,34.4,6.45,8.4,16.41,13.03,28.02,13.03h59.81c24.04,0,49.02-20.24,55.68-45.12l6.8-25.36c3.46-12.91,1.48-25.49-5.46-34.52ZM850.31,106.49l-5.75,21.5c-3.65,13.59-10.78,18.64-26.3,18.64h-23.02c-7.67,0-12.55-1.29-14.51-3.82-1.78-2.33-1.86-6.43-.24-12.51l5.77-21.5c3.6-13.41,10.77-18.39,26.45-18.39h23.03c7.79,0,12.5,1.21,14.41,3.7,1.71,2.23,1.77,6.39.16,12.38Z"/><polygon class="cls-1" points="132.08 177.36 76.47 177.36 116.17 29.2 171.78 29.2 132.08 177.36"/><polygon class="cls-1" points="55.61 177.36 0 177.36 39.7 29.2 95.31 29.2 55.61 177.36"/><path class="cls-1" d="M210.27,29.2h-17.65l-30.26,112.92c-4.77,17.78,8.64,35.25,27.05,35.25h19.12s19.54,0,19.54,0l8.23-30.73h-8.08c-5.78,0-9.99-5.49-8.5-11.07l18.67-69.7c4.96-18.5-8.98-36.66-28.13-36.66Z"/><path class="cls-2" d="M420.3,239.59c1.03,1.49,1.54,3.3,1.54,5.43,0,4.57-1.8,8.02-5.4,10.37-3.6,2.35-8.4,3.52-14.39,3.52h-23.06l8.8-43.98h21.24c4.73,0,8.38.87,10.93,2.61,2.55,1.74,3.83,4.22,3.83,7.45,0,2.68-.7,4.97-2.1,6.88-1.4,1.91-3.32,3.36-5.75,4.37,1.88.75,3.34,1.88,4.37,3.36ZM409.34,249.61c1.59-1.09,2.39-2.66,2.39-4.71,0-3.02-2.2-4.52-6.6-4.52h-12.31l-2.14,10.87h12c2.85,0,5.07-.54,6.66-1.63ZM396.33,222.59l-2.07,10.37h10.37c2.68,0,4.76-.53,6.25-1.6,1.49-1.07,2.23-2.61,2.23-4.62,0-2.76-2.16-4.15-6.47-4.15h-10.3Z"/><path class="cls-2" d="M457.78,243.64l-3.02,15.27h-10.18l3.08-15.71-11.31-28.27h10.18l7.85,19.6,15.77-19.6h10.49l-22.87,28.71Z"/><path class="cls-2" d="M517.78,214.93h10.24l-7.16,35.68h22.05l-1.7,8.29h-32.23l8.8-43.98Z"/><path class="cls-2" d="M586.13,249.48h-20.48l-5.72,9.42h-10.87l28.46-43.98h10.05l10.81,43.98h-10.18l-2.07-9.42ZM584.43,241.76l-3.71-16.96-10.37,16.96h14.07Z"/><path class="cls-2" d="M668.81,214.93l-8.73,43.98h-9.55l5.15-26.14-16.77,21.49h-4.52l-9.05-21.74-5.28,26.39h-9.55l8.8-43.98h8.29l10.99,27.39,21.49-27.39h8.73Z"/><path class="cls-2" d="M686.84,214.93h10.24l-8.79,43.98h-10.24l8.8-43.98Z"/><path class="cls-2" d="M755.32,214.93l-8.8,43.98h-8.36l-16.4-27.52-5.53,27.52h-10.05l8.8-43.98h8.42l16.4,27.58,5.47-27.58h10.05Z"/><path class="cls-2" d="M795.78,249.48h-20.48l-5.72,9.42h-10.87l28.46-43.98h10.05l10.81,43.98h-10.18l-2.07-9.42ZM794.08,241.76l-3.71-16.96-10.37,16.96h14.07Z"/><path class="cls-2" d="M825.49,258.28c-3.18-.92-5.74-2.09-7.67-3.52l4.15-7.85c2.01,1.47,4.27,2.6,6.79,3.39,2.51.8,5.09,1.19,7.73,1.19,2.81,0,5.03-.46,6.66-1.38,1.63-.92,2.45-2.18,2.45-3.77,0-1.3-.65-2.29-1.95-2.98-1.3-.69-3.37-1.43-6.22-2.23-2.85-.84-5.17-1.64-6.97-2.42-1.8-.77-3.36-1.94-4.68-3.49-1.32-1.55-1.98-3.6-1.98-6.16,0-2.97.83-5.59,2.48-7.85,1.65-2.26,4-4,7.04-5.21,3.04-1.21,6.57-1.82,10.59-1.82,2.97,0,5.78.32,8.42.97s4.9,1.58,6.79,2.8l-3.83,7.79c-1.63-1.13-3.48-1.98-5.53-2.54s-4.19-.85-6.41-.85c-2.89,0-5.17.5-6.85,1.51-1.68,1-2.51,2.3-2.51,3.9,0,.96.36,1.77,1.07,2.42.71.65,1.61,1.17,2.7,1.57,1.09.4,2.62.87,4.59,1.41,2.81.75,5.11,1.52,6.91,2.29,1.8.78,3.34,1.91,4.62,3.39,1.28,1.49,1.92,3.45,1.92,5.88,0,3.02-.84,5.64-2.51,7.88-1.68,2.24-4.04,3.98-7.1,5.21-3.06,1.24-6.62,1.85-10.68,1.85-3.48,0-6.81-.46-9.99-1.38Z"/></g></svg>