<?xml version="1.0" encoding="UTF-8"?><svg id="Layer_2" xmlns="http://www.w3.org/2000/svg" viewBox="0 0 895.98 262.9"><defs><style>.cls-1{fill:#2067ce;}.cls-2{fill:#9ca6ad;}</style></defs><g id="Layer_1-2"><path class="cls-1" d="M748.17,7.81c-3.8-4.96-10.11-7.81-17.29-7.81-13.42,0-26.51,9.66-29.82,21.97-1.67,6.21-.62,12.2,2.96,16.86,3.75,4.88,9.96,7.68,17.04,7.68,13.33,0,26.83-9.86,30.08-21.98,1.64-6.14.59-12.08-2.98-16.71Z"/><polygon class="cls-1" points="663.81 174.85 663.22 177.04 706.32 177.04 737.34 61.31 737.93 59.12 694.82 59.12 663.81 174.85"/><path class="cls-1" d="M401.41,72.35c-6.4-8.33-16.29-12.92-27.85-12.92h-58.3c-24.17,0-49.25,20.24-55.91,45.12l-6.79,25.36c-3.45,12.84-1.45,25.37,5.49,34.4,6.44,8.4,16.4,13.03,28.02,13.03h85.29l8.23-30.73h-69.54c-7.56,0-12.38-1.28-14.31-3.81-1.4-1.82-1.27-6.59-.54-10.71h104.88l6.31-23.57h0s.87-3.36.87-3.36c2.86-12.31.76-24.19-5.87-32.83ZM347.34,89.34c7.8,0,12.28,2.28,14.19,4.78,1.38,1.79,1.66,6.46.89,10.66h-59.05c4.32-8.79,12.82-15.44,26.58-15.44h17.39Z"/><polygon class="cls-1" points="433.74 59.44 425.43 90.41 481.69 90.41 405.73 148.66 398.02 177.36 511.83 177.36 520.07 146.63 463.07 146.63 539.65 88.46 547.43 59.44 433.74 59.44"/><polygon class="cls-1" points="561.06 59.44 552.75 90.41 609.01 90.41 533.05 148.66 525.34 177.36 639.15 177.36 647.39 146.63 590.39 146.63 666.97 88.46 674.76 59.44 561.06 59.44"/><path class="cls-1" d="M888.85,72.35c-6.39-8.33-16.27-12.92-27.84-12.92h-59.81c-24.16,0-49.24,20.24-55.91,45.12l-6.79,25.36c-3.45,12.83-1.44,25.36,5.49,34.4,6.45,8.4,16.41,13.03,28.02,13.03h59.81c24.04,0,49.02-20.24,55.68-45.12l6.8-25.36c3.46-12.91,1.48-25.49-5.46-34.52ZM851.31,106.49l-5.75,21.5c-3.65,13.59-10.78,18.64-26.3,18.64h-23.02c-7.67,0-12.55-1.29-14.51-3.82-1.78-2.33-1.86-6.43-.24-12.51l5.77-21.5c3.6-13.41,10.77-18.39,26.45-18.39h23.03c7.79,0,12.5,1.21,14.41,3.7,1.71,2.23,1.77,6.39.16,12.38Z"/><polygon class="cls-1" points="133.08 177.36 76.47 177.36 116.17 29.2 172.78 29.2 133.08 177.36"/><polygon class="cls-1" points="56.61 177.36 0 177.36 39.7 29.2 96.31 29.2 56.61 177.36"/><path class="cls-1" d="M211.27,29.2h-18.65l-30.41,113.47c-4.69,17.5,8.5,34.69,26.62,34.69h20.7s19.54,0,19.54,0l8.23-30.73h-8.08c-5.78,0-9.99-5.49-8.5-11.07l18.67-69.7c4.96-18.5-8.98-36.66-28.13-36.66Z"/><path class="cls-2" d="M417.92,242.26c.97,1.55,1.38,3.47,1.23,5.76-.32,4.66-2.37,8.2-6.16,10.61-3.79,2.42-8.74,3.62-14.87,3.62h-22.71l12.15-45.29h20.9c4.7,0,8.28.87,10.72,2.62s3.56,4.26,3.34,7.54c-.19,2.8-1.09,5.21-2.69,7.21-1.6,2.01-3.67,3.5-6.19,4.5,1.89.73,3.32,1.88,4.29,3.43ZM407.47,253.72c2.01-1.29,3.1-3.19,3.27-5.69.13-1.94-.45-3.33-1.75-4.17-1.3-.84-3.31-1.26-6.03-1.26h-13.91l-3.48,13.07h13.59c3.54,0,6.31-.65,8.32-1.94ZM394.15,223.57l-3.37,12.49h11.97c3.19,0,5.76-.64,7.7-1.91,1.94-1.27,3-3.14,3.16-5.6.23-3.32-2.27-4.98-7.49-4.98h-11.97Z"/><path class="cls-2" d="M454.68,246.79l-4.16,15.46h-8.35l4.26-16.04-9.85-29.25h8.35l7.42,22.13,19.37-22.13h8.8l-25.84,29.83Z"/><path class="cls-2" d="M519.41,216.97h8.41l-10.24,38.17h23.68l-1.91,7.12h-32.09l12.15-45.29Z"/><path class="cls-2" d="M586.4,251.77h-22.77l-7.25,10.48h-8.99l32.53-45.29h8.35l8.17,45.29h-8.35l-1.68-10.48ZM585.29,245.18l-3.23-19.93-13.85,19.93h17.08Z"/><path class="cls-2" d="M670.42,216.97l-12.15,45.29h-7.96l7.91-29.7-21.02,24.52h-3.75l-8.64-25.1-8.08,30.28h-8.02l12.15-45.29h6.86l9.91,30.15,25.54-30.15h7.25Z"/><path class="cls-2" d="M690.41,216.97h8.41l-12.15,45.29h-8.41l12.15-45.29Z"/><path class="cls-2" d="M758.99,216.97l-12.15,45.29h-6.92l-16.41-31.7-8.5,31.7h-8.35l12.15-45.29h6.92l16.47,31.7,8.44-31.7h8.35Z"/><path class="cls-2" d="M798.16,251.77h-22.77l-7.25,10.48h-8.99l32.53-45.29h8.35l8.17,45.29h-8.35l-1.68-10.48ZM797.05,245.18l-3.23-19.93-13.85,19.93h17.08Z"/><path class="cls-2" d="M825.32,261.42c-3.12-.99-5.54-2.26-7.25-3.82l4.01-6.6c1.79,1.51,3.97,2.71,6.52,3.59,2.55.88,5.18,1.33,7.9,1.33,3.32,0,6-.57,8.04-1.71,2.04-1.14,3.13-2.71,3.26-4.69.08-1.12-.26-2.06-1.01-2.82-.75-.75-1.7-1.37-2.85-1.84-1.16-.47-2.77-1.01-4.84-1.62-2.88-.86-5.19-1.69-6.95-2.49-1.76-.8-3.23-2-4.41-3.59-1.19-1.59-1.69-3.67-1.52-6.21.2-2.93,1.2-5.5,3.02-7.7,1.81-2.2,4.25-3.9,7.3-5.11,3.06-1.21,6.53-1.81,10.41-1.81,2.93,0,5.69.33,8.28,1,2.58.67,4.79,1.61,6.6,2.82l-3.75,6.66c-1.61-1.12-3.45-1.98-5.52-2.59-2.07-.6-4.25-.91-6.54-.91-3.36,0-6.07.62-8.12,1.84-2.05,1.23-3.14,2.86-3.28,4.88-.08,1.17.26,2.14,1.03,2.91.77.78,1.72,1.39,2.85,1.84s2.8,1.02,5,1.71c2.79.82,5.07,1.62,6.82,2.39,1.76.78,3.22,1.92,4.39,3.43s1.67,3.47,1.51,5.89c-.2,2.98-1.21,5.56-3.02,7.76s-4.28,3.9-7.4,5.11c-3.12,1.21-6.65,1.81-10.57,1.81-3.49,0-6.8-.5-9.93-1.49Z"/></g></svg>