<?xml version="1.0" encoding="UTF-8"?><svg id="Layer_2" xmlns="http://www.w3.org/2000/svg" viewBox="0 0 895.98 177.36"><defs><style>.cls-1{fill:#2067ce;}</style></defs><g id="Layer_1-2"><path class="cls-1" d="M748.17,7.81c-3.8-4.96-10.11-7.81-17.29-7.81-13.42,0-26.51,9.66-29.82,21.97-1.67,6.21-.62,12.2,2.96,16.86,3.75,4.88,9.96,7.68,17.04,7.68,13.33,0,26.83-9.86,30.08-21.98,1.64-6.14.59-12.08-2.98-16.71Z"/><polygon class="cls-1" points="663.81 174.85 663.22 177.04 706.32 177.04 737.34 61.31 737.93 59.12 694.82 59.12 663.81 174.85"/><path class="cls-1" d="M401.41,72.35c-6.4-8.33-16.29-12.92-27.85-12.92h-58.3c-24.17,0-49.25,20.24-55.91,45.12l-6.79,25.36c-3.45,12.84-1.45,25.37,5.49,34.4,6.44,8.4,16.4,13.03,28.02,13.03h85.29l8.23-30.73h-69.54c-7.56,0-12.38-1.28-14.31-3.81-1.4-1.82-1.27-6.59-.54-10.71h104.88l6.31-23.57h0s.87-3.36.87-3.36c2.86-12.31.76-24.19-5.87-32.83ZM347.34,89.34c7.8,0,12.28,2.28,14.19,4.78,1.38,1.79,1.66,6.46.89,10.66h-59.05c4.32-8.79,12.82-15.44,26.58-15.44h17.39Z"/><polygon class="cls-1" points="433.74 59.44 425.43 90.41 481.69 90.41 405.73 148.66 398.02 177.36 511.83 177.36 520.07 146.63 463.07 146.63 539.65 88.46 547.43 59.44 433.74 59.44"/><polygon class="cls-1" points="561.06 59.44 552.75 90.41 609.01 90.41 533.05 148.66 525.34 177.36 639.15 177.36 647.39 146.63 590.39 146.63 666.97 88.46 674.76 59.44 561.06 59.44"/><path class="cls-1" d="M888.85,72.35c-6.39-8.33-16.27-12.92-27.84-12.92h-59.81c-24.16,0-49.24,20.24-55.91,45.12l-6.79,25.36c-3.45,12.83-1.44,25.36,5.49,34.4,6.45,8.4,16.41,13.03,28.02,13.03h59.81c24.04,0,49.02-20.24,55.68-45.12l6.8-25.36c3.46-12.91,1.48-25.49-5.46-34.52ZM851.31,106.49l-5.75,21.5c-3.65,13.59-10.78,18.64-26.3,18.64h-23.02c-7.67,0-12.55-1.29-14.51-3.82-1.78-2.33-1.86-6.43-.24-12.51l5.77-21.5c3.6-13.41,10.77-18.39,26.45-18.39h23.03c7.79,0,12.5,1.21,14.41,3.7,1.71,2.23,1.77,6.39.16,12.38Z"/><polygon class="cls-1" points="133.08 177.36 76.47 177.36 116.17 29.2 172.78 29.2 133.08 177.36"/><polygon class="cls-1" points="56.61 177.36 0 177.36 39.7 29.2 96.31 29.2 56.61 177.36"/><path class="cls-1" d="M211.27,29.2h-18.65l-30.41,113.47c-4.69,17.5,8.5,34.69,26.62,34.69h20.7s19.54,0,19.54,0l8.23-30.73h-8.08c-5.78,0-9.99-5.49-8.5-11.07l18.67-69.7c4.96-18.5-8.98-36.66-28.13-36.66Z"/></g></svg>