<?xml version="1.0" encoding="utf-8"?>
<!-- Generator: Adobe Illustrator 16.0.0, SVG Export Plug-In . SVG Version: 6.00 Build 0)  -->
<!DOCTYPE svg PUBLIC "-//W3C//DTD SVG 1.1//EN" "http://www.w3.org/Graphics/SVG/1.1/DTD/svg11.dtd">
<svg version="1.1" id="Layer_1" xmlns="http://www.w3.org/2000/svg" xmlns:xlink="http://www.w3.org/1999/xlink" x="0px" y="0px"
	 width="192.756px" height="70.87px" viewBox="0 0 192.756 70.87" enable-background="new 0 0 192.756 70.87" xml:space="preserve">
<g>
	<g>
		<path fill="#FFFFFF" d="M56.868,19.26c0.258-0.969,0.888-1.303,1.819-1.051c0.97,0.261,1.39,0.872,1.127,1.842L48.15,63.601
			c-0.26,0.971-0.888,1.301-1.86,1.039c-0.969-0.258-1.345-0.859-1.086-1.831L56.868,19.26z"/>
	</g>
	<g>
		<path fill="#FFFFFF" d="M81.633,19.26c0.261-0.969,0.89-1.299,1.82-1.05c0.971,0.262,1.389,0.871,1.129,1.841l-11.666,43.55
			c-0.26,0.971-0.888,1.301-1.857,1.039c-0.972-0.259-1.352-0.859-1.091-1.831L81.633,19.26z"/>
	</g>
	<g>
		<path fill="#FFFFFF" d="M7.956,13.008c0-1.004,0.482-1.486,1.446-1.486c1.004,0,1.486,0.482,1.486,1.486v25.382h12.892
			c1.004,0,1.486,0.481,1.486,1.445c0,1.004-0.482,1.486-1.486,1.486H9.923c-1.325,0-1.968-0.763-1.968-2.289V13.008z"/>
		<path fill="#FFFFFF" d="M36.078,18.47c5.341,0,8.153,3.213,8.153,7.269v14.418c0,0.764-0.522,1.486-1.486,1.486
			s-1.446-0.683-1.486-1.446c-0.04-0.763-0.04-1.004-0.04-1.365c-1.727,1.848-4.297,2.812-6.868,2.812
			c-3.936,0-7.711-2.209-7.711-6.708c0-4.699,4.297-7.108,8.514-7.108c2.289,0,4.739,0.683,6.064,2.008v-3.815
			c0-2.771-2.249-4.619-6.024-4.619c-2.61,0-4.297,0.964-5.542,0.964c-0.683,0-1.365-0.321-1.365-1.245
			c0-0.522,0.441-1.165,1.124-1.446C31.178,18.952,33.307,18.47,36.078,18.47z M34.873,38.832c3.053,0,6.306-1.606,6.306-4.378
			c0-2.45-3.052-3.855-6.024-3.855c-2.811,0-5.502,1.285-5.502,4.097C29.652,37.587,32.142,38.832,34.873,38.832z"/>
		<path fill="#FFFFFF" d="M92.816,9.795c1.125,0,2.008,0.883,2.008,2.008s-0.883,2.008-2.008,2.008
			c-1.124,0-2.008-0.884-2.008-2.008S91.692,9.795,92.816,9.795z M91.411,19.996c0-1.004,0.522-1.486,1.485-1.486
			c1.005,0,1.566,0.482,1.566,1.486v19.84c0,1.004-0.521,1.486-1.525,1.486s-1.526-0.482-1.526-1.486V19.996z"/>
		<path fill="#FFFFFF" d="M102.035,20.277c0-1.044,0.482-1.566,1.445-1.566c1.005,0,1.486,0.522,1.486,1.566v1.526
			c1.325-2.409,3.654-3.494,6.024-3.494c3.855,0,7.831,2.892,7.831,7.67v13.897c0,0.963-0.481,1.445-1.485,1.445
			c-0.964,0-1.446-0.482-1.446-1.445V27.265c0-4.056-2.69-6.024-5.382-6.024c-2.771,0-5.542,2.048-5.542,6.024v12.612
			c0,0.963-0.481,1.445-1.486,1.445c-0.963,0-1.445-0.482-1.445-1.445V20.277z"/>
		<path fill="#FFFFFF" d="M133.153,18.47c5.342,0,8.152,3.213,8.152,7.269v14.418c0,0.764-0.521,1.486-1.485,1.486
			s-1.446-0.683-1.486-1.446c-0.04-0.763-0.04-1.004-0.04-1.365c-1.727,1.848-4.297,2.812-6.867,2.812
			c-3.937,0-7.711-2.209-7.711-6.708c0-4.699,4.297-7.108,8.514-7.108c2.289,0,4.739,0.683,6.064,2.008v-3.815
			c0-2.771-2.249-4.619-6.024-4.619c-2.61,0-4.297,0.964-5.542,0.964c-0.683,0-1.365-0.321-1.365-1.245
			c0-0.522,0.441-1.165,1.124-1.446C128.254,18.952,130.382,18.47,133.153,18.47z M131.948,38.832c3.053,0,6.306-1.606,6.306-4.378
			c0-2.45-3.053-3.855-6.024-3.855c-2.812,0-5.502,1.285-5.502,4.097C126.728,37.587,129.218,38.832,131.948,38.832z"/>
		<path fill="#FFFFFF" d="M154.66,38.792c2.169,0,4.939-0.884,4.939-3.495c0-1.968-2.489-3.092-4.618-3.855
			c-3.654-1.325-8.072-3.092-8.072-6.506c0-4.538,3.815-6.546,8.072-6.546c2.089,0,4.297,0.402,6.225,1.446
			c0.522,0.281,0.764,0.844,0.764,1.406c0,0.924-0.603,1.406-1.366,1.406c-0.28,0-0.602-0.081-0.883-0.241
			c-0.964-0.562-2.932-1.044-4.819-1.044c-2.37,0-4.819,0.843-4.819,3.213c0,1.847,3.133,2.811,6.145,4.056
			c3.293,1.366,6.667,2.771,6.667,6.386c0,4.94-4.338,6.747-8.313,6.747c-2.892,0-5.221-0.964-7.43-2.369
			c-0.361-0.241-0.522-0.723-0.522-1.205c0-1.124,0.562-1.646,1.325-1.646c0.361,0,0.764,0.161,1.165,0.441
			C150.523,37.908,152.411,38.792,154.66,38.792z"/>
	</g>
	<path fill="#FFFFFF" d="M67.557,24.548c0.259-0.968,0.887-1.302,1.818-1.05c0.971,0.261,1.388,0.87,1.129,1.84l-5.135,19.181
		c-0.258,0.97-0.889,1.301-1.859,1.039c-0.968-0.263-1.35-0.86-1.089-1.83L67.557,24.548z"/>
</g>
<g>
	<path fill="#FFFFFF" d="M97.879,62.565l2.728-8.848c0.212-0.698,0.634-1.056,1.168-1.056c0.553,0,0.896,0.389,1.009,1.185
		l1.511,10.132c0,0.049,0.015,0.081,0.015,0.13c0,0.356-0.259,0.583-0.601,0.583c-0.39,0-0.584-0.21-0.648-0.648l-1.382-9.854
		l-3.164,9.824c-0.147,0.469-0.39,0.695-0.666,0.695c-0.293,0-0.521-0.227-0.667-0.695l-3.051-9.841l-1.494,9.855
		c-0.063,0.438-0.243,0.664-0.648,0.664c-0.343,0-0.57-0.178-0.57-0.55c0-0.066,0-0.129,0.018-0.196l1.606-10.099
		c0.13-0.812,0.473-1.217,1.04-1.217c0.518,0,0.926,0.356,1.136,1.088L97.879,62.565z"/>
	<path fill="#FFFFFF" d="M110.01,62.694l3.312-9.562c0.112-0.31,0.292-0.471,0.566-0.471c0.344,0,0.716,0.324,0.716,0.667
		c0,0.063-0.015,0.13-0.047,0.193l-3.623,10.18c-0.242,0.664-0.552,1.006-0.925,1.006c-0.341,0-0.615-0.292-0.829-0.859
		l-3.715-10.326c-0.034-0.097-0.052-0.193-0.052-0.292c0-0.39,0.213-0.584,0.617-0.584c0.311,0,0.52,0.161,0.634,0.486
		L110.01,62.694z"/>
	<path fill="#FFFFFF" d="M124.345,62.338c0.422,0,0.585,0.293,0.585,0.6c0,0.229-0.065,0.44-0.246,0.603
		c-1.007,0.876-2.143,1.347-3.475,1.347c-3.701,0-5.533-3.101-5.533-6.234c0-3.181,1.898-6.396,5.631-6.396
		c1.283,0,2.453,0.423,3.427,1.333c0.211,0.178,0.308,0.371,0.308,0.583c0,0.39-0.259,0.649-0.584,0.649
		c-0.162,0-0.391-0.08-0.503-0.194c-0.698-0.699-1.688-1.055-2.694-1.055c-2.857,0-4.27,2.483-4.27,4.966
		c0,2.534,1.459,5.098,4.284,5.098c1.023,0,1.948-0.406,2.662-1.118C124.066,62.388,124.197,62.338,124.345,62.338z"/>
</g>
</svg>
