<?xml version="1.0" encoding="utf-8"?>
<!-- Generator: Adobe Illustrator 16.0.0, SVG Export Plug-In . SVG Version: 6.00 Build 0)  -->
<!DOCTYPE svg PUBLIC "-//W3C//DTD SVG 1.1//EN" "http://www.w3.org/Graphics/SVG/1.1/DTD/svg11.dtd">
<svg version="1.1" id="Layer_1" xmlns="http://www.w3.org/2000/svg" xmlns:xlink="http://www.w3.org/1999/xlink" x="0px" y="0px"
	 width="192.756px" height="70.87px" viewBox="0 0 192.756 70.87" enable-background="new 0 0 192.756 70.87" xml:space="preserve">
<g>
	<g>
		<path fill="#E64010" d="M100.097,62.246c0.424,0,0.587,0.293,0.587,0.603c0,0.229-0.065,0.44-0.244,0.603
			c-1.011,0.881-2.151,1.354-3.487,1.354c-3.716,0-5.558-3.113-5.558-6.258c0-3.194,1.907-6.421,5.655-6.421
			c1.287,0,2.461,0.424,3.438,1.336c0.212,0.18,0.31,0.375,0.31,0.587c0,0.391-0.261,0.651-0.587,0.651
			c-0.163,0-0.391-0.081-0.505-0.195c-0.701-0.7-1.695-1.06-2.705-1.06c-2.868,0-4.286,2.494-4.286,4.987
			c0,2.542,1.467,5.117,4.302,5.117c1.027,0,1.956-0.408,2.673-1.125C99.82,62.295,99.95,62.246,100.097,62.246z"/>
		<path fill="#E64010" d="M110.32,60.16c0,2.444-1.369,4.645-3.944,4.645c-2.591,0-3.943-2.331-3.943-4.759
			c0-2.429,1.353-4.759,3.943-4.759C108.968,55.287,110.32,57.731,110.32,60.16z M103.704,59.932c0,1.662,0.798,3.748,2.672,3.748
			c1.858,0,2.689-1.711,2.689-3.422c0-1.646-0.848-3.797-2.689-3.797C104.502,56.461,103.704,58.221,103.704,59.932z"/>
		<path fill="#E64010" d="M112.249,56.15c0-0.472,0.195-0.717,0.603-0.717c0.392,0,0.604,0.229,0.604,0.668v0.636
			c0.439-0.863,1.401-1.45,2.363-1.45c1.075,0,2.053,0.685,2.46,1.711c0.521-1.026,1.646-1.711,2.868-1.711
			c1.663,0,3.048,1.174,3.048,2.885v5.834c0,0.391-0.195,0.587-0.604,0.587c-0.407,0-0.619-0.196-0.619-0.587v-5.312
			c0-1.174-0.7-2.151-1.89-2.151c-1.386,0-2.282,1.189-2.282,2.559v4.905c0,0.407-0.195,0.603-0.586,0.603
			c-0.408,0-0.604-0.195-0.604-0.603v-5.312c0-1.189-0.717-2.119-1.906-2.119c-1.386,0-2.266,1.157-2.266,2.526v4.905
			c0,0.407-0.195,0.603-0.587,0.603c-0.407,0-0.603-0.195-0.603-0.603V56.15z"/>
		<path fill="#E64010" d="M126.354,55.923c0-0.424,0.195-0.636,0.603-0.636c0.408,0,0.604,0.212,0.604,0.636v1.238
			c0.358-1.026,1.581-1.874,2.688-1.874c2.526,0,3.797,2.461,3.797,4.824c0,2.362-1.271,4.709-3.797,4.709
			c-1.156,0-2.216-0.586-2.688-1.613v4.515c0,0.407-0.294,0.651-0.619,0.651c-0.392,0-0.587-0.229-0.587-0.668V55.923z
			 M132.824,60.176c0-1.613-0.652-3.683-2.461-3.683c-1.891,0-2.705,1.906-2.705,3.618c0,1.743,0.814,3.602,2.705,3.602
			C132.172,63.713,132.824,61.822,132.824,60.176z"/>
		<path fill="#E64010" d="M143.623,60.16c0,2.444-1.369,4.645-3.944,4.645c-2.591,0-3.943-2.331-3.943-4.759
			c0-2.429,1.353-4.759,3.943-4.759C142.271,55.287,143.623,57.731,143.623,60.16z M137.007,59.932c0,1.662,0.798,3.748,2.672,3.748
			c1.858,0,2.689-1.711,2.689-3.422c0-1.646-0.848-3.797-2.689-3.797C137.805,56.461,137.007,58.221,137.007,59.932z"/>
		<path fill="#E64010" d="M145.553,56.086c0-0.424,0.195-0.636,0.587-0.636c0.407,0,0.603,0.212,0.603,0.636v0.619
			c0.538-0.978,1.483-1.418,2.444-1.418c1.564,0,3.178,1.174,3.178,3.112v5.639c0,0.392-0.195,0.587-0.603,0.587
			c-0.392,0-0.587-0.195-0.587-0.587v-5.117c0-1.646-1.092-2.444-2.184-2.444c-1.124,0-2.249,0.831-2.249,2.444v5.117
			c0,0.392-0.195,0.587-0.603,0.587c-0.392,0-0.587-0.195-0.587-0.587V56.086z"/>
		<path fill="#E64010" d="M161.962,59.345c0,0.88-0.146,1.32-0.912,1.32h-5.509c0,1.467,1.467,2.949,2.917,2.949
			c0.913,0,1.483-0.179,2.217-0.831c0.212-0.195,0.473-0.293,0.7-0.293c0.31,0,0.538,0.18,0.538,0.554
			c0,0.131-0.032,0.245-0.114,0.326c-0.766,0.962-1.89,1.45-3.341,1.45c-2.688,0-4.204-2.184-4.204-4.758
			c0-2.396,1.401-4.792,3.943-4.792C160.609,55.271,161.962,56.966,161.962,59.345z M160.756,59.491c0-1.662-0.961-3.015-2.51-3.015
			c-1.564,0-2.688,1.386-2.688,3.015H160.756z"/>
		<path fill="#E64010" d="M164.144,56.086c0-0.424,0.195-0.636,0.587-0.636c0.407,0,0.603,0.212,0.603,0.636v0.619
			c0.538-0.978,1.483-1.418,2.444-1.418c1.564,0,3.178,1.174,3.178,3.112v5.639c0,0.392-0.195,0.587-0.603,0.587
			c-0.392,0-0.587-0.195-0.587-0.587v-5.117c0-1.646-1.092-2.444-2.184-2.444c-1.124,0-2.249,0.831-2.249,2.444v5.117
			c0,0.392-0.195,0.587-0.603,0.587c-0.392,0-0.587-0.195-0.587-0.587V56.086z"/>
		<path fill="#E64010" d="M173.663,54.276c0-0.391,0.195-0.586,0.586-0.586c0.408,0,0.604,0.195,0.604,0.586v1.337h1.434
			c0.424,0,0.636,0.179,0.636,0.554s-0.195,0.555-0.603,0.555h-1.467v4.986c0,1.304,0.114,1.955,1.189,1.955
			c0.473,0,0.717,0.18,0.717,0.538c0,0.375-0.244,0.57-0.717,0.57c-1.939,0-2.379-1.157-2.379-3.063v-5.003h-0.521
			c-0.392,0-0.587-0.18-0.587-0.555c0-0.358,0.163-0.537,0.505-0.537h0.604V54.276z"/>
		<path fill="#E64010" d="M181.922,63.599c0.88,0,2.005-0.358,2.005-1.418c0-0.799-1.011-1.255-1.875-1.564
			c-1.482-0.538-3.275-1.255-3.275-2.64c0-1.842,1.549-2.657,3.275-2.657c0.848,0,1.744,0.163,2.526,0.587
			c0.212,0.114,0.31,0.343,0.31,0.57c0,0.375-0.244,0.57-0.554,0.57c-0.114,0-0.245-0.032-0.358-0.098
			c-0.392-0.228-1.19-0.424-1.956-0.424c-0.961,0-1.955,0.343-1.955,1.304c0,0.75,1.271,1.141,2.493,1.646
			c1.336,0.554,2.705,1.124,2.705,2.591c0,2.005-1.76,2.738-3.373,2.738c-1.174,0-2.119-0.392-3.016-0.962
			c-0.146-0.098-0.211-0.293-0.211-0.489c0-0.456,0.228-0.668,0.537-0.668c0.146,0,0.31,0.065,0.473,0.18
			C180.243,63.24,181.009,63.599,181.922,63.599z"/>
	</g>
</g>
<g>
	<g>
		<path fill="#0D3755" d="M56.868,19.26c0.258-0.969,0.888-1.303,1.819-1.051c0.97,0.261,1.39,0.872,1.127,1.842L48.15,63.601
			c-0.26,0.971-0.888,1.301-1.86,1.039c-0.969-0.258-1.345-0.859-1.086-1.831L56.868,19.26z"/>
	</g>
	<g>
		<path fill="#0D3755" d="M81.633,19.26c0.261-0.969,0.89-1.299,1.82-1.05c0.971,0.262,1.389,0.871,1.129,1.841l-11.666,43.55
			c-0.26,0.971-0.888,1.301-1.857,1.039c-0.972-0.259-1.352-0.859-1.091-1.831L81.633,19.26z"/>
	</g>
	<g>
		<path fill="#0D3755" d="M7.956,13.008c0-1.004,0.482-1.486,1.446-1.486c1.004,0,1.486,0.482,1.486,1.486v25.382h12.892
			c1.004,0,1.486,0.481,1.486,1.445c0,1.004-0.482,1.486-1.486,1.486H9.923c-1.325,0-1.968-0.763-1.968-2.289V13.008z"/>
		<path fill="#0D3755" d="M36.078,18.47c5.341,0,8.153,3.213,8.153,7.269v14.418c0,0.764-0.522,1.486-1.486,1.486
			s-1.446-0.683-1.486-1.446c-0.04-0.763-0.04-1.004-0.04-1.365c-1.727,1.848-4.297,2.812-6.868,2.812
			c-3.936,0-7.711-2.209-7.711-6.708c0-4.699,4.297-7.108,8.514-7.108c2.289,0,4.739,0.683,6.064,2.008v-3.815
			c0-2.771-2.249-4.619-6.024-4.619c-2.61,0-4.297,0.964-5.542,0.964c-0.683,0-1.365-0.321-1.365-1.245
			c0-0.522,0.441-1.165,1.124-1.446C31.178,18.952,33.307,18.47,36.078,18.47z M34.873,38.832c3.053,0,6.306-1.606,6.306-4.378
			c0-2.45-3.052-3.855-6.024-3.855c-2.811,0-5.502,1.285-5.502,4.097C29.652,37.587,32.142,38.832,34.873,38.832z"/>
		<path fill="#0D3755" d="M92.816,9.795c1.125,0,2.008,0.883,2.008,2.008s-0.883,2.008-2.008,2.008
			c-1.124,0-2.008-0.884-2.008-2.008S91.692,9.795,92.816,9.795z M91.411,19.996c0-1.004,0.522-1.486,1.485-1.486
			c1.005,0,1.566,0.482,1.566,1.486v19.84c0,1.004-0.521,1.486-1.525,1.486s-1.526-0.482-1.526-1.486V19.996z"/>
		<path fill="#0D3755" d="M102.035,20.277c0-1.044,0.482-1.566,1.445-1.566c1.005,0,1.486,0.522,1.486,1.566v1.526
			c1.325-2.409,3.654-3.494,6.024-3.494c3.855,0,7.831,2.892,7.831,7.67v13.897c0,0.963-0.481,1.445-1.485,1.445
			c-0.964,0-1.446-0.482-1.446-1.445V27.265c0-4.056-2.69-6.024-5.382-6.024c-2.771,0-5.542,2.048-5.542,6.024v12.612
			c0,0.963-0.481,1.445-1.486,1.445c-0.963,0-1.445-0.482-1.445-1.445V20.277z"/>
		<path fill="#0D3755" d="M133.153,18.47c5.342,0,8.152,3.213,8.152,7.269v14.418c0,0.764-0.521,1.486-1.485,1.486
			s-1.446-0.683-1.486-1.446c-0.04-0.763-0.04-1.004-0.04-1.365c-1.727,1.848-4.297,2.812-6.867,2.812
			c-3.937,0-7.711-2.209-7.711-6.708c0-4.699,4.297-7.108,8.514-7.108c2.289,0,4.739,0.683,6.064,2.008v-3.815
			c0-2.771-2.249-4.619-6.024-4.619c-2.61,0-4.297,0.964-5.542,0.964c-0.683,0-1.365-0.321-1.365-1.245
			c0-0.522,0.441-1.165,1.124-1.446C128.254,18.952,130.382,18.47,133.153,18.47z M131.948,38.832c3.053,0,6.306-1.606,6.306-4.378
			c0-2.45-3.053-3.855-6.024-3.855c-2.812,0-5.502,1.285-5.502,4.097C126.728,37.587,129.218,38.832,131.948,38.832z"/>
		<path fill="#0D3755" d="M154.66,38.792c2.169,0,4.939-0.884,4.939-3.495c0-1.968-2.489-3.092-4.618-3.855
			c-3.654-1.325-8.072-3.092-8.072-6.506c0-4.538,3.815-6.546,8.072-6.546c2.089,0,4.297,0.402,6.225,1.446
			c0.522,0.281,0.764,0.844,0.764,1.406c0,0.924-0.603,1.406-1.366,1.406c-0.28,0-0.602-0.081-0.883-0.241
			c-0.964-0.562-2.932-1.044-4.819-1.044c-2.37,0-4.819,0.843-4.819,3.213c0,1.847,3.133,2.811,6.145,4.056
			c3.293,1.366,6.667,2.771,6.667,6.386c0,4.94-4.338,6.747-8.313,6.747c-2.892,0-5.221-0.964-7.43-2.369
			c-0.361-0.241-0.522-0.723-0.522-1.205c0-1.124,0.562-1.646,1.325-1.646c0.361,0,0.764,0.161,1.165,0.441
			C150.523,37.908,152.411,38.792,154.66,38.792z"/>
	</g>
	<path fill="#0D3755" d="M67.557,24.548c0.259-0.968,0.887-1.302,1.818-1.05c0.971,0.261,1.388,0.87,1.129,1.84l-5.135,19.181
		c-0.258,0.97-0.889,1.301-1.859,1.039c-0.968-0.263-1.35-0.86-1.089-1.83L67.557,24.548z"/>
</g>
</svg>
