<?xml version="1.0" encoding="utf-8"?>
<!-- Generator: Adobe Illustrator 16.0.0, SVG Export Plug-In . SVG Version: 6.00 Build 0)  -->
<!DOCTYPE svg PUBLIC "-//W3C//DTD SVG 1.1//EN" "http://www.w3.org/Graphics/SVG/1.1/DTD/svg11.dtd">
<svg version="1.1" id="Layer_1" xmlns="http://www.w3.org/2000/svg" xmlns:xlink="http://www.w3.org/1999/xlink" x="0px" y="0px"
	 width="192.756px" height="70.87px" viewBox="0 0 192.756 70.87" enable-background="new 0 0 192.756 70.87" xml:space="preserve">
<g>
	<g>
		<path d="M56.868,19.26c0.258-0.969,0.888-1.303,1.819-1.051c0.97,0.261,1.39,0.872,1.127,1.842L48.15,63.601
			c-0.26,0.971-0.888,1.301-1.86,1.039c-0.969-0.258-1.345-0.859-1.086-1.831L56.868,19.26z"/>
	</g>
	<g>
		<path d="M81.633,19.26c0.261-0.969,0.89-1.299,1.82-1.05c0.971,0.262,1.389,0.871,1.129,1.841l-11.666,43.55
			c-0.26,0.971-0.888,1.301-1.857,1.039c-0.972-0.259-1.352-0.859-1.091-1.831L81.633,19.26z"/>
	</g>
	<g>
		<path d="M7.956,13.008c0-1.004,0.482-1.486,1.446-1.486c1.004,0,1.486,0.482,1.486,1.486v25.382h12.892
			c1.004,0,1.486,0.481,1.486,1.445c0,1.004-0.482,1.486-1.486,1.486H9.923c-1.325,0-1.968-0.763-1.968-2.289V13.008z"/>
		<path d="M36.078,18.47c5.341,0,8.153,3.213,8.153,7.269v14.418c0,0.764-0.522,1.486-1.486,1.486s-1.446-0.683-1.486-1.446
			c-0.04-0.763-0.04-1.004-0.04-1.365c-1.727,1.848-4.297,2.812-6.868,2.812c-3.936,0-7.711-2.209-7.711-6.708
			c0-4.699,4.297-7.108,8.514-7.108c2.289,0,4.739,0.683,6.064,2.008v-3.815c0-2.771-2.249-4.619-6.024-4.619
			c-2.61,0-4.297,0.964-5.542,0.964c-0.683,0-1.365-0.321-1.365-1.245c0-0.522,0.441-1.165,1.124-1.446
			C31.178,18.952,33.307,18.47,36.078,18.47z M34.873,38.832c3.053,0,6.306-1.606,6.306-4.378c0-2.45-3.052-3.855-6.024-3.855
			c-2.811,0-5.502,1.285-5.502,4.097C29.652,37.587,32.142,38.832,34.873,38.832z"/>
		<path d="M92.816,9.795c1.125,0,2.008,0.883,2.008,2.008s-0.883,2.008-2.008,2.008c-1.124,0-2.008-0.884-2.008-2.008
			S91.692,9.795,92.816,9.795z M91.411,19.996c0-1.004,0.522-1.486,1.485-1.486c1.005,0,1.566,0.482,1.566,1.486v19.84
			c0,1.004-0.521,1.486-1.525,1.486s-1.526-0.482-1.526-1.486V19.996z"/>
		<path d="M102.035,20.277c0-1.044,0.482-1.566,1.445-1.566c1.005,0,1.486,0.522,1.486,1.566v1.526
			c1.325-2.409,3.654-3.494,6.024-3.494c3.855,0,7.831,2.892,7.831,7.67v13.897c0,0.963-0.481,1.445-1.485,1.445
			c-0.964,0-1.446-0.482-1.446-1.445V27.265c0-4.056-2.69-6.024-5.382-6.024c-2.771,0-5.542,2.048-5.542,6.024v12.612
			c0,0.963-0.481,1.445-1.486,1.445c-0.963,0-1.445-0.482-1.445-1.445V20.277z"/>
		<path d="M133.153,18.47c5.342,0,8.152,3.213,8.152,7.269v14.418c0,0.764-0.521,1.486-1.485,1.486s-1.446-0.683-1.486-1.446
			c-0.04-0.763-0.04-1.004-0.04-1.365c-1.727,1.848-4.297,2.812-6.867,2.812c-3.937,0-7.711-2.209-7.711-6.708
			c0-4.699,4.297-7.108,8.514-7.108c2.289,0,4.739,0.683,6.064,2.008v-3.815c0-2.771-2.249-4.619-6.024-4.619
			c-2.61,0-4.297,0.964-5.542,0.964c-0.683,0-1.365-0.321-1.365-1.245c0-0.522,0.441-1.165,1.124-1.446
			C128.254,18.952,130.382,18.47,133.153,18.47z M131.948,38.832c3.053,0,6.306-1.606,6.306-4.378c0-2.45-3.053-3.855-6.024-3.855
			c-2.812,0-5.502,1.285-5.502,4.097C126.728,37.587,129.218,38.832,131.948,38.832z"/>
		<path d="M154.66,38.792c2.169,0,4.939-0.884,4.939-3.495c0-1.968-2.489-3.092-4.618-3.855c-3.654-1.325-8.072-3.092-8.072-6.506
			c0-4.538,3.815-6.546,8.072-6.546c2.089,0,4.297,0.402,6.225,1.446c0.522,0.281,0.764,0.844,0.764,1.406
			c0,0.924-0.603,1.406-1.366,1.406c-0.28,0-0.602-0.081-0.883-0.241c-0.964-0.562-2.932-1.044-4.819-1.044
			c-2.37,0-4.819,0.843-4.819,3.213c0,1.847,3.133,2.811,6.145,4.056c3.293,1.366,6.667,2.771,6.667,6.386
			c0,4.94-4.338,6.747-8.313,6.747c-2.892,0-5.221-0.964-7.43-2.369c-0.361-0.241-0.522-0.723-0.522-1.205
			c0-1.124,0.562-1.646,1.325-1.646c0.361,0,0.764,0.161,1.165,0.441C150.523,37.908,152.411,38.792,154.66,38.792z"/>
	</g>
	<path d="M67.557,24.548c0.259-0.968,0.887-1.302,1.818-1.05c0.971,0.261,1.388,0.87,1.129,1.84l-5.135,19.181
		c-0.258,0.97-0.889,1.301-1.859,1.039c-0.968-0.263-1.35-0.86-1.089-1.83L67.557,24.548z"/>
</g>
<g>
	<path d="M91.439,53.361c0-0.488,0.229-0.733,0.668-0.733h4.954c0.407,0,0.604,0.196,0.604,0.604c0,0.391-0.196,0.586-0.604,0.586
		h-4.433v4.01h3.65c0.407,0,0.604,0.212,0.604,0.619c0,0.374-0.196,0.57-0.604,0.57h-3.65v4.481h4.563c0.473,0,0.7,0.195,0.7,0.603
		c0,0.392-0.228,0.587-0.7,0.587h-5.085c-0.587,0-0.668-0.146-0.668-0.733V53.361z"/>
	<path d="M102.454,59.814l-2.313-3.096c-0.114-0.163-0.18-0.326-0.18-0.473c0-0.343,0.294-0.587,0.619-0.587
		c0.261,0,0.473,0.114,0.636,0.358l1.988,2.853l2.021-2.868c0.163-0.245,0.375-0.359,0.619-0.359c0.343,0,0.636,0.245,0.636,0.57
		c0,0.163-0.064,0.326-0.195,0.489l-2.396,3.015l2.705,3.667c0.212,0.277,0.31,0.538,0.31,0.766c0,0.358-0.179,0.538-0.521,0.538
		c-0.293,0-0.57-0.163-0.814-0.505l-2.444-3.39l-2.444,3.405c-0.212,0.31-0.44,0.457-0.701,0.457c-0.31,0-0.473-0.163-0.473-0.506
		c0-0.212,0.098-0.456,0.277-0.7L102.454,59.814z"/>
	<path d="M108.532,55.985c0-0.424,0.195-0.636,0.603-0.636c0.408,0,0.604,0.212,0.604,0.636v1.238
		c0.358-1.026,1.581-1.874,2.688-1.874c2.526,0,3.797,2.461,3.797,4.824c0,2.362-1.271,4.709-3.797,4.709
		c-1.156,0-2.216-0.586-2.688-1.613v4.515c0,0.407-0.294,0.651-0.619,0.651c-0.392,0-0.587-0.229-0.587-0.668V55.985z
		 M115.002,60.238c0-1.613-0.652-3.683-2.461-3.683c-1.891,0-2.705,1.906-2.705,3.618c0,1.743,0.814,3.602,2.705,3.602
		C114.35,63.775,115.002,61.885,115.002,60.238z"/>
	<path d="M118.137,56.148c0-0.424,0.195-0.636,0.587-0.636c0.407,0,0.603,0.212,0.603,0.636v0.782
		c0.604-1.076,1.744-1.581,2.853-1.581c0.863,0,1.189,0.392,1.189,0.75c0,0.325-0.261,0.635-0.636,0.635
		c-0.44,0-0.554-0.113-1.108-0.113c-1.06,0-2.298,1.107-2.298,2.362v5.117c0,0.392-0.195,0.587-0.603,0.587
		c-0.392,0-0.587-0.195-0.587-0.587V56.148z"/>
	<path d="M132.114,59.407c0,0.88-0.146,1.32-0.912,1.32h-5.509c0,1.467,1.467,2.949,2.917,2.949c0.913,0,1.483-0.179,2.217-0.831
		c0.212-0.195,0.473-0.293,0.7-0.293c0.31,0,0.538,0.18,0.538,0.554c0,0.131-0.032,0.245-0.114,0.326
		c-0.766,0.962-1.89,1.45-3.341,1.45c-2.688,0-4.204-2.184-4.204-4.758c0-2.396,1.401-4.792,3.943-4.792
		C130.762,55.333,132.114,57.028,132.114,59.407z M130.908,59.554c0-1.662-0.961-3.015-2.51-3.015c-1.564,0-2.688,1.386-2.688,3.015
		H130.908z"/>
	<path d="M137.322,63.661c0.88,0,2.005-0.358,2.005-1.418c0-0.799-1.011-1.255-1.875-1.564c-1.482-0.538-3.275-1.255-3.275-2.64
		c0-1.842,1.549-2.657,3.275-2.657c0.848,0,1.744,0.163,2.526,0.587c0.212,0.114,0.31,0.343,0.31,0.57
		c0,0.375-0.244,0.57-0.554,0.57c-0.114,0-0.245-0.032-0.358-0.098c-0.392-0.228-1.19-0.424-1.956-0.424
		c-0.961,0-1.955,0.343-1.955,1.304c0,0.75,1.271,1.141,2.493,1.646c1.336,0.554,2.705,1.124,2.705,2.591
		c0,2.005-1.76,2.738-3.373,2.738c-1.174,0-2.119-0.392-3.016-0.962c-0.146-0.098-0.211-0.293-0.211-0.489
		c0-0.456,0.228-0.668,0.537-0.668c0.146,0,0.31,0.065,0.473,0.18C135.644,63.303,136.409,63.661,137.322,63.661z"/>
	<path d="M145.514,63.661c0.88,0,2.005-0.358,2.005-1.418c0-0.799-1.011-1.255-1.875-1.564c-1.482-0.538-3.275-1.255-3.275-2.64
		c0-1.842,1.549-2.657,3.275-2.657c0.848,0,1.744,0.163,2.526,0.587c0.212,0.114,0.31,0.343,0.31,0.57
		c0,0.375-0.244,0.57-0.554,0.57c-0.114,0-0.245-0.032-0.358-0.098c-0.392-0.228-1.19-0.424-1.956-0.424
		c-0.961,0-1.955,0.343-1.955,1.304c0,0.75,1.271,1.141,2.493,1.646c1.336,0.554,2.705,1.124,2.705,2.591
		c0,2.005-1.76,2.738-3.373,2.738c-1.174,0-2.119-0.392-3.016-0.962c-0.146-0.098-0.211-0.293-0.211-0.489
		c0-0.456,0.228-0.668,0.537-0.668c0.146,0,0.31,0.065,0.473,0.18C143.835,63.303,144.601,63.661,145.514,63.661z"/>
	<path d="M151.163,51.895c0.457,0,0.815,0.358,0.815,0.815c0,0.456-0.358,0.814-0.815,0.814c-0.456,0-0.814-0.358-0.814-0.814
		C150.349,52.253,150.707,51.895,151.163,51.895z M150.593,56.034c0-0.407,0.212-0.603,0.604-0.603c0.407,0,0.636,0.195,0.636,0.603
		v8.051c0,0.407-0.212,0.603-0.62,0.603c-0.407,0-0.619-0.195-0.619-0.603V56.034z"/>
	<path d="M157.118,62.569l2.069-6.242c0.163-0.473,0.407-0.7,0.733-0.7c0.343,0,0.57,0.195,0.57,0.57
		c0,0.081-0.016,0.179-0.049,0.261l-2.656,7.74c-0.114,0.326-0.358,0.489-0.717,0.489c-0.31,0-0.538-0.163-0.652-0.489l-2.591-7.724
		c-0.032-0.099-0.049-0.196-0.049-0.277c0-0.358,0.261-0.57,0.603-0.57c0.343,0,0.555,0.261,0.701,0.717L157.118,62.569z"/>
	<path d="M169.404,59.407c0,0.88-0.146,1.32-0.912,1.32h-5.509c0,1.467,1.467,2.949,2.917,2.949c0.913,0,1.483-0.179,2.217-0.831
		c0.212-0.195,0.473-0.293,0.7-0.293c0.311,0,0.538,0.18,0.538,0.554c0,0.131-0.032,0.245-0.114,0.326
		c-0.766,0.962-1.89,1.45-3.341,1.45c-2.688,0-4.204-2.184-4.204-4.758c0-2.396,1.401-4.792,3.943-4.792
		C168.052,55.333,169.404,57.028,169.404,59.407z M168.198,59.554c0-1.662-0.961-3.015-2.51-3.015c-1.564,0-2.688,1.386-2.688,3.015
		H168.198z"/>
</g>
</svg>
