<?xml version="1.0"?>
<svg width="170.08" height="70.87" xmlns="http://www.w3.org/2000/svg" xmlns:svg="http://www.w3.org/2000/svg" enable-background="new 0 0 170.08 70.87" version="1.1" xml:space="preserve">

 <g class="layer">
  <title>Layer 1</title>
  <g id="svg_1" transform="translate(-8)">
   <g id="svg_2">
    <path d="m56.91,19.23c0.26,-0.97 0.89,-1.3 1.82,-1.05c0.97,0.26 1.39,0.87 1.13,1.84l-11.66,43.53c-0.26,0.97 -0.89,1.3 -1.86,1.04c-0.97,-0.26 -1.35,-0.86 -1.09,-1.83l11.66,-43.53z" fill="#013755" id="svg_3"/>
   </g>
   <g id="svg_4">
    <path d="m81.67,19.23c0.27,-0.97 0.89,-1.3 1.82,-1.05c0.97,0.26 1.39,0.87 1.13,1.84l-11.66,43.53c-0.26,0.97 -0.89,1.3 -1.86,1.04c-0.97,-0.26 -1.35,-0.86 -1.09,-1.83l11.66,-43.53z" fill="#013755" id="svg_5"/>
   </g>
   <g id="svg_6">
    <path d="m8,12.97c0,-1 0.48,-1.48 1.45,-1.48c1,0 1.48,0.48 1.48,1.48l0,25.38l12.89,0c1,0 1.48,0.48 1.48,1.44c0,1.01 -0.48,1.49 -1.48,1.49l-13.85,0c-1.33,0 -1.97,-0.77 -1.97,-2.29l0,-26.02z" fill="#013755" id="svg_7"/>
    <path d="m36.12,18.43c5.34,0 8.15,3.21 8.15,7.27l0,14.41c0,0.77 -0.53,1.49 -1.49,1.49s-1.44,-0.69 -1.48,-1.45s-0.04,-1 -0.04,-1.36c-1.73,1.84 -4.3,2.81 -6.87,2.81c-3.93,0 -7.71,-2.21 -7.71,-6.71c0,-4.69 4.3,-7.1 8.51,-7.1c2.29,0 4.74,0.68 6.07,2l0,-3.81c0,-2.77 -2.25,-4.62 -6.03,-4.62c-2.61,0 -4.29,0.97 -5.54,0.97c-0.68,0 -1.36,-0.33 -1.36,-1.25c0,-0.52 0.44,-1.16 1.12,-1.44c1.77,-0.73 3.9,-1.21 6.67,-1.21zm-1.21,20.36c3.05,0 6.31,-1.61 6.31,-4.38c0,-2.45 -3.06,-3.85 -6.03,-3.85c-2.81,0 -5.5,1.28 -5.5,4.09c0,2.89 2.49,4.14 5.22,4.14z" fill="#013755" id="svg_8"/>
    <path d="m92.85,9.76c1.13,0 2.01,0.88 2.01,2.01s-0.88,2 -2.01,2s-2,-0.88 -2,-2s0.88,-2.01 2,-2.01zm-1.4,10.2c0,-1.01 0.52,-1.49 1.48,-1.49c1.01,0 1.57,0.48 1.57,1.49l0,19.83c0,1 -0.52,1.49 -1.53,1.49s-1.52,-0.49 -1.52,-1.49l0,-19.83z" fill="#013755" id="svg_9"/>
    <path d="m102.07,20.24c0,-1.04 0.48,-1.57 1.45,-1.57c1,0 1.48,0.53 1.48,1.57l0,1.53c1.33,-2.41 3.65,-3.5 6.02,-3.5c3.86,0 7.83,2.89 7.83,7.67l0,13.89c0,0.97 -0.48,1.45 -1.48,1.45c-0.97,0 -1.45,-0.48 -1.45,-1.45l0,-12.61c0,-4.05 -2.69,-6.02 -5.38,-6.02c-2.77,0 -5.54,2.05 -5.54,6.02l0,12.61c0,0.97 -0.48,1.45 -1.48,1.45c-0.97,0 -1.45,-0.48 -1.45,-1.45l0,-19.59z" fill="#013755" id="svg_10"/>
    <path d="m133.18,18.43c5.34,0 8.15,3.21 8.15,7.27l0,14.41c0,0.77 -0.52,1.49 -1.48,1.49c-0.96,0 -1.45,-0.69 -1.49,-1.45c-0.04,-0.76 -0.04,-1 -0.04,-1.36c-1.72,1.84 -4.29,2.81 -6.86,2.81c-3.94,0 -7.71,-2.21 -7.71,-6.71c0,-4.69 4.3,-7.1 8.51,-7.1c2.29,0 4.74,0.68 6.06,2l0,-3.81c0,-2.77 -2.24,-4.62 -6.02,-4.62c-2.61,0 -4.29,0.97 -5.54,0.97c-0.68,0 -1.36,-0.33 -1.36,-1.25c0,-0.52 0.44,-1.16 1.12,-1.44c1.77,-0.73 3.89,-1.21 6.66,-1.21zm-1.2,20.36c3.05,0 6.3,-1.61 6.3,-4.38c0,-2.45 -3.05,-3.85 -6.02,-3.85c-2.81,0 -5.5,1.28 -5.5,4.09c0,2.89 2.49,4.14 5.22,4.14z" fill="#013755" id="svg_11"/>
    <path d="m154.69,38.75c2.17,0 4.94,-0.89 4.94,-3.5c0,-1.96 -2.49,-3.09 -4.62,-3.85c-3.65,-1.33 -8.07,-3.09 -8.07,-6.5c0,-4.54 3.81,-6.55 8.07,-6.55c2.09,0 4.3,0.4 6.22,1.45c0.52,0.28 0.77,0.84 0.77,1.4c0,0.93 -0.61,1.41 -1.37,1.41c-0.28,0 -0.6,-0.08 -0.88,-0.24c-0.97,-0.57 -2.93,-1.05 -4.82,-1.05c-2.37,0 -4.82,0.85 -4.82,3.21c0,1.85 3.14,2.81 6.15,4.06c3.29,1.36 6.66,2.77 6.66,6.38c0,4.94 -4.33,6.75 -8.31,6.75c-2.89,0 -5.22,-0.97 -7.43,-2.37c-0.36,-0.24 -0.52,-0.72 -0.52,-1.21c0,-1.12 0.56,-1.64 1.33,-1.64c0.36,0 0.76,0.16 1.16,0.44c1.41,0.92 3.29,1.81 5.54,1.81z" fill="#013755" id="svg_12"/>
   </g>
   <path d="m67.6,24.51c0.26,-0.97 0.89,-1.3 1.82,-1.05c0.97,0.26 1.39,0.87 1.13,1.84l-5.14,19.17c-0.26,0.97 -0.89,1.3 -1.86,1.04c-0.97,-0.26 -1.34,-0.86 -1.08,-1.83l5.13,-19.17z" fill="#013755" id="svg_13"/>
  </g>
 </g>
</svg>