<?xml version="1.0" encoding="utf-8"?>
<!-- Generator: Adobe Illustrator 16.0.0, SVG Export Plug-In . SVG Version: 6.00 Build 0)  -->
<!DOCTYPE svg PUBLIC "-//W3C//DTD SVG 1.1//EN" "http://www.w3.org/Graphics/SVG/1.1/DTD/svg11.dtd">
<svg version="1.1" id="Layer_1" xmlns="http://www.w3.org/2000/svg" xmlns:xlink="http://www.w3.org/1999/xlink" x="0px" y="0px"
	 width="192.756px" height="70.87px" viewBox="0 0 192.756 70.87" enable-background="new 0 0 192.756 70.87" xml:space="preserve">
<g>
	<g>
		<path fill="#013755" d="M56.868,19.26c0.258-0.969,0.888-1.303,1.819-1.051c0.97,0.261,1.39,0.872,1.127,1.842L48.15,63.601
			c-0.26,0.971-0.888,1.301-1.86,1.039c-0.969-0.258-1.345-0.859-1.086-1.831L56.868,19.26z"/>
	</g>
	<g>
		<path fill="#013755" d="M81.633,19.26c0.261-0.969,0.89-1.299,1.82-1.05c0.971,0.262,1.389,0.871,1.129,1.841l-11.666,43.55
			c-0.26,0.971-0.888,1.301-1.857,1.039c-0.972-0.259-1.352-0.859-1.091-1.831L81.633,19.26z"/>
	</g>
	<g>
		<path fill="#013755" d="M7.956,13.008c0-1.004,0.482-1.486,1.446-1.486c1.004,0,1.486,0.482,1.486,1.486v25.382h12.892
			c1.004,0,1.486,0.481,1.486,1.445c0,1.004-0.482,1.486-1.486,1.486H9.923c-1.325,0-1.968-0.763-1.968-2.289V13.008z"/>
		<path fill="#013755" d="M36.078,18.47c5.341,0,8.153,3.213,8.153,7.269v14.418c0,0.764-0.522,1.486-1.486,1.486
			s-1.446-0.683-1.486-1.446c-0.04-0.763-0.04-1.004-0.04-1.365c-1.727,1.848-4.297,2.812-6.868,2.812
			c-3.936,0-7.711-2.209-7.711-6.708c0-4.699,4.297-7.108,8.514-7.108c2.289,0,4.739,0.683,6.064,2.008v-3.815
			c0-2.771-2.249-4.619-6.024-4.619c-2.61,0-4.297,0.964-5.542,0.964c-0.683,0-1.365-0.321-1.365-1.245
			c0-0.522,0.441-1.165,1.124-1.446C31.178,18.952,33.307,18.47,36.078,18.47z M34.873,38.832c3.053,0,6.306-1.606,6.306-4.378
			c0-2.45-3.052-3.855-6.024-3.855c-2.811,0-5.502,1.285-5.502,4.097C29.652,37.587,32.142,38.832,34.873,38.832z"/>
		<path fill="#013755" d="M92.816,9.795c1.125,0,2.008,0.883,2.008,2.008s-0.883,2.008-2.008,2.008
			c-1.124,0-2.008-0.884-2.008-2.008S91.692,9.795,92.816,9.795z M91.411,19.996c0-1.004,0.522-1.486,1.485-1.486
			c1.005,0,1.566,0.482,1.566,1.486v19.84c0,1.004-0.521,1.486-1.525,1.486s-1.526-0.482-1.526-1.486V19.996z"/>
		<path fill="#013755" d="M102.035,20.277c0-1.044,0.482-1.566,1.445-1.566c1.005,0,1.486,0.522,1.486,1.566v1.526
			c1.325-2.409,3.654-3.494,6.024-3.494c3.855,0,7.831,2.892,7.831,7.67v13.897c0,0.963-0.481,1.445-1.485,1.445
			c-0.964,0-1.446-0.482-1.446-1.445V27.265c0-4.056-2.69-6.024-5.382-6.024c-2.771,0-5.542,2.048-5.542,6.024v12.612
			c0,0.963-0.481,1.445-1.486,1.445c-0.963,0-1.445-0.482-1.445-1.445V20.277z"/>
		<path fill="#013755" d="M133.153,18.47c5.342,0,8.152,3.213,8.152,7.269v14.418c0,0.764-0.521,1.486-1.485,1.486
			s-1.446-0.683-1.486-1.446c-0.04-0.763-0.04-1.004-0.04-1.365c-1.727,1.848-4.297,2.812-6.867,2.812
			c-3.937,0-7.711-2.209-7.711-6.708c0-4.699,4.297-7.108,8.514-7.108c2.289,0,4.739,0.683,6.064,2.008v-3.815
			c0-2.771-2.249-4.619-6.024-4.619c-2.61,0-4.297,0.964-5.542,0.964c-0.683,0-1.365-0.321-1.365-1.245
			c0-0.522,0.441-1.165,1.124-1.446C128.254,18.952,130.382,18.47,133.153,18.47z M131.948,38.832c3.053,0,6.306-1.606,6.306-4.378
			c0-2.45-3.053-3.855-6.024-3.855c-2.812,0-5.502,1.285-5.502,4.097C126.728,37.587,129.218,38.832,131.948,38.832z"/>
		<path fill="#013755" d="M154.66,38.792c2.169,0,4.939-0.884,4.939-3.495c0-1.968-2.489-3.092-4.618-3.855
			c-3.654-1.325-8.072-3.092-8.072-6.506c0-4.538,3.815-6.546,8.072-6.546c2.089,0,4.297,0.402,6.225,1.446
			c0.522,0.281,0.764,0.844,0.764,1.406c0,0.924-0.603,1.406-1.366,1.406c-0.28,0-0.602-0.081-0.883-0.241
			c-0.964-0.562-2.932-1.044-4.819-1.044c-2.37,0-4.819,0.843-4.819,3.213c0,1.847,3.133,2.811,6.145,4.056
			c3.293,1.366,6.667,2.771,6.667,6.386c0,4.94-4.338,6.747-8.313,6.747c-2.892,0-5.221-0.964-7.43-2.369
			c-0.361-0.241-0.522-0.723-0.522-1.205c0-1.124,0.562-1.646,1.325-1.646c0.361,0,0.764,0.161,1.165,0.441
			C150.523,37.908,152.411,38.792,154.66,38.792z"/>
	</g>
	<path fill="#013755" d="M67.557,24.548c0.259-0.968,0.887-1.302,1.818-1.05c0.971,0.261,1.388,0.87,1.129,1.84l-5.135,19.181
		c-0.258,0.97-0.889,1.301-1.859,1.039c-0.968-0.263-1.35-0.86-1.089-1.83L67.557,24.548z"/>
</g>
<g>
	<path fill="#E5007E" d="M98.989,62.223h-5.606l-0.668,1.857c-0.146,0.407-0.392,0.619-0.733,0.619c-0.375,0-0.521-0.277-0.521-0.57
		c0-0.114,0.032-0.229,0.065-0.326l3.683-10.43c0.18-0.488,0.505-0.733,0.945-0.733s0.766,0.245,0.945,0.733l3.813,10.43
		c0.049,0.114,0.065,0.244,0.065,0.343c0,0.325-0.196,0.554-0.555,0.554c-0.293,0-0.488-0.131-0.587-0.391L98.989,62.223z
		 M93.726,60.983h4.823l-2.379-6.682L93.726,60.983z"/>
	<path fill="#E5007E" d="M102.59,55.997c0-0.424,0.195-0.636,0.603-0.636c0.408,0,0.604,0.212,0.604,0.636v1.238
		c0.358-1.026,1.581-1.874,2.688-1.874c2.526,0,3.798,2.461,3.798,4.824c0,2.362-1.271,4.709-3.798,4.709
		c-1.157,0-2.216-0.586-2.688-1.613v4.515c0,0.407-0.293,0.651-0.619,0.651c-0.392,0-0.587-0.229-0.587-0.668V55.997z M109.06,60.25
		c0-1.613-0.652-3.683-2.461-3.683c-1.891,0-2.705,1.906-2.705,3.618c0,1.743,0.814,3.602,2.705,3.602
		C108.407,63.787,109.06,61.896,109.06,60.25z"/>
	<path fill="#E5007E" d="M112.856,51.906c0.457,0,0.815,0.358,0.815,0.815c0,0.456-0.358,0.814-0.815,0.814
		c-0.456,0-0.814-0.358-0.814-0.814C112.042,52.265,112.4,51.906,112.856,51.906z M112.286,56.046c0-0.407,0.212-0.603,0.604-0.603
		c0.407,0,0.636,0.195,0.636,0.603v8.051c0,0.407-0.212,0.603-0.62,0.603c-0.407,0-0.619-0.195-0.619-0.603V56.046z"/>
	<path fill="#E5007E" d="M122.151,55.851c0-0.358,0.196-0.538,0.587-0.538c0.407,0,0.619,0.195,0.619,0.57v8.197
		c0,2.868-1.923,4.302-3.911,4.302c-0.912,0-1.988-0.179-2.868-0.733c-0.228-0.146-0.326-0.374-0.326-0.603
		c0-0.326,0.212-0.636,0.587-0.636c0.244,0,0.424,0.131,0.619,0.244c0.619,0.343,1.304,0.506,1.939,0.506
		c1.467,0,2.754-0.913,2.754-2.934v-0.831c-0.424,1.06-1.548,1.483-2.525,1.483c-2.607,0-3.977-2.331-3.977-4.775
		c0-2.428,1.385-4.742,3.977-4.742c0.994,0,2.184,0.685,2.525,1.532V55.851z M119.593,63.754c1.32,0,2.607-1.206,2.607-3.617
		c0-2.363-1.319-3.586-2.656-3.586c-1.304,0-2.64,1.189-2.64,3.536C116.904,62.516,118.273,63.754,119.593,63.754z"/>
	<path fill="#E5007E" d="M126.242,51.906c0.457,0,0.815,0.358,0.815,0.815c0,0.456-0.358,0.814-0.815,0.814
		c-0.456,0-0.814-0.358-0.814-0.814C125.428,52.265,125.786,51.906,126.242,51.906z M125.672,56.046
		c0-0.407,0.212-0.603,0.604-0.603c0.407,0,0.636,0.195,0.636,0.603v8.051c0,0.407-0.212,0.603-0.62,0.603
		c-0.407,0-0.619-0.195-0.619-0.603V56.046z"/>
	<path fill="#E5007E" d="M129.298,52.574c0-0.407,0.195-0.619,0.587-0.619c0.407,0,0.619,0.212,0.619,0.619v11.522
		c0,0.407-0.195,0.603-0.604,0.603c-0.407,0-0.603-0.195-0.603-0.603V52.574z"/>
	<path fill="#E5007E" d="M133.515,51.906c0.457,0,0.815,0.358,0.815,0.815c0,0.456-0.358,0.814-0.815,0.814
		c-0.456,0-0.814-0.358-0.814-0.814C132.7,52.265,133.059,51.906,133.515,51.906z M132.944,56.046c0-0.407,0.212-0.603,0.604-0.603
		c0.407,0,0.636,0.195,0.636,0.603v8.051c0,0.407-0.212,0.603-0.62,0.603c-0.407,0-0.619-0.195-0.619-0.603V56.046z"/>
	<path fill="#E5007E" d="M137.237,54.351c0-0.391,0.195-0.586,0.586-0.586c0.408,0,0.604,0.195,0.604,0.586v1.337h1.434
		c0.424,0,0.636,0.179,0.636,0.554s-0.195,0.555-0.603,0.555h-1.467v4.986c0,1.304,0.114,1.955,1.189,1.955
		c0.473,0,0.717,0.18,0.717,0.538c0,0.375-0.244,0.57-0.717,0.57c-1.939,0-2.379-1.157-2.379-3.063v-5.003h-0.521
		c-0.392,0-0.587-0.18-0.587-0.555c0-0.358,0.163-0.537,0.505-0.537h0.604V54.351z"/>
	<path fill="#E5007E" d="M145.034,64.585l-2.657-7.92c-0.049-0.146-0.081-0.277-0.081-0.391c0-0.408,0.195-0.604,0.57-0.604
		c0.342,0,0.587,0.195,0.701,0.57l2.15,6.649l2.233-6.73c0.113-0.343,0.342-0.506,0.684-0.506c0.392,0,0.587,0.196,0.587,0.587
		c0,0.114,0,0.245-0.049,0.375l-4.025,11.244c-0.13,0.375-0.391,0.538-0.733,0.538c-0.374,0-0.554-0.195-0.554-0.587
		c0-0.114,0.017-0.228,0.065-0.358L145.034,64.585z"/>
</g>
</svg>
