<svg xmlns="http://www.w3.org/2000/svg" xmlns:xlink="http://www.w3.org/1999/xlink" viewBox="0 0 70.87 70.87"><defs><style>.e6402d13-d12f-4902-8c7e-8d85430f1378{fill:url(#a7c73bf4-8c76-4310-937d-4e23d061c622);}.e08792c8-caf5-4c8c-97c9-36a5fe8b973d{fill:#fff;}</style><linearGradient id="a7c73bf4-8c76-4310-937d-4e23d061c622" x1="58.86" y1="76.01" x2="12.01" y2="-5.14" gradientUnits="userSpaceOnUse"><stop offset="0" stop-color="#013755"/><stop offset="1" stop-color="#e64010"/></linearGradient></defs><g id="ff6d85a3-de1f-4e6d-a417-bc10a78f1a32" data-name="components"><rect id="bd92ba9b-7890-4b1a-b101-56453de1502b" data-name="Background" class="e6402d13-d12f-4902-8c7e-8d85430f1378" width="70.87" height="70.87" rx="4.25"/><g id="a9867dbe-b41d-4614-af36-710405b67ede" data-name="Signet"><path class="e08792c8-caf5-4c8c-97c9-36a5fe8b973d" d="M27.33,12.47a1.32,1.32,0,0,1,1.82-1.05,1.36,1.36,0,0,1,1.13,1.84L18.62,56.79a1.33,1.33,0,0,1-1.86,1A1.33,1.33,0,0,1,15.67,56Z"/><path class="e08792c8-caf5-4c8c-97c9-36a5fe8b973d" d="M52.1,12.47a1.32,1.32,0,0,1,1.82-1.05A1.35,1.35,0,0,1,55,13.26L43.38,56.79a1.53,1.53,0,0,1-3-.79Z"/><path class="e08792c8-caf5-4c8c-97c9-36a5fe8b973d" d="M38,17.76a1.32,1.32,0,0,1,1.82-1.05A1.36,1.36,0,0,1,41,18.55L35.83,37.71a1.33,1.33,0,0,1-1.85,1,1.33,1.33,0,0,1-1.09-1.83Z"/></g></g></svg>