<svg xmlns="http://www.w3.org/2000/svg" viewBox="0 0 70.87 70.87"><defs><style>.f5d73a87-85ea-4ea5-8fb4-fa86d994fdcd{fill:#013755;}.aaee5731-ae39-41b0-a8e6-02476c304d42{fill:#fff;}</style></defs><g id="b28f9dae-a836-471c-b19b-8ee57748a04e" data-name="laminas"><rect id="a4b0bbff-f719-446f-bb70-09e2f0fa9ecb" data-name="Background" class="f5d73a87-85ea-4ea5-8fb4-fa86d994fdcd" width="70.87" height="70.87" rx="4.25"/><g id="f36eaab0-5473-4ecb-857e-f9ff96ced5da" data-name="Signet"><path class="aaee5731-ae39-41b0-a8e6-02476c304d42" d="M27.33,12.47a1.32,1.32,0,0,1,1.82-1.05,1.36,1.36,0,0,1,1.13,1.84L18.62,56.79a1.33,1.33,0,0,1-1.86,1A1.33,1.33,0,0,1,15.67,56Z"/><path class="aaee5731-ae39-41b0-a8e6-02476c304d42" d="M52.1,12.47a1.32,1.32,0,0,1,1.82-1.05A1.35,1.35,0,0,1,55,13.26L43.38,56.79a1.53,1.53,0,0,1-3-.79Z"/><path class="aaee5731-ae39-41b0-a8e6-02476c304d42" d="M38,17.76a1.32,1.32,0,0,1,1.82-1.05A1.36,1.36,0,0,1,41,18.55L35.83,37.71a1.33,1.33,0,0,1-1.85,1,1.33,1.33,0,0,1-1.09-1.83Z"/></g></g></svg>