<svg xmlns="http://www.w3.org/2000/svg" xmlns:xlink="http://www.w3.org/1999/xlink" viewBox="0 0 70.87 70.87"><defs><style>.b0f9a307-1fb8-41e0-b9b7-389f04d18b7b{fill:url(#e7e746d3-e315-4b57-8fc5-4aa96edf4e22);}.ed3a41c1-b73c-4d6e-95b2-4822f559a3e0{fill:#fff;}</style><linearGradient id="e7e746d3-e315-4b57-8fc5-4aa96edf4e22" x1="58.86" y1="76.01" x2="12.01" y2="-5.14" gradientUnits="userSpaceOnUse"><stop offset="0" stop-color="#013755"/><stop offset="1" stop-color="#e5007e"/></linearGradient></defs><g id="fa9abce0-9c24-4265-9aab-24880688c806" data-name="api-tools"><rect id="ad54441e-269b-44ce-ae67-4c36778d7632" data-name="Background" class="b0f9a307-1fb8-41e0-b9b7-389f04d18b7b" width="70.87" height="70.87" rx="4.25"/><g id="facb7ff9-1612-4231-8a2d-94332e691076" data-name="Signet"><path class="ed3a41c1-b73c-4d6e-95b2-4822f559a3e0" d="M27.33,12.47a1.32,1.32,0,0,1,1.82-1.05,1.36,1.36,0,0,1,1.13,1.84L18.62,56.79a1.33,1.33,0,0,1-1.86,1A1.33,1.33,0,0,1,15.67,56Z"/><path class="ed3a41c1-b73c-4d6e-95b2-4822f559a3e0" d="M52.1,12.47a1.32,1.32,0,0,1,1.82-1.05A1.35,1.35,0,0,1,55,13.26L43.38,56.79a1.53,1.53,0,0,1-3-.79Z"/><path class="ed3a41c1-b73c-4d6e-95b2-4822f559a3e0" d="M38,17.76a1.32,1.32,0,0,1,1.82-1.05A1.36,1.36,0,0,1,41,18.55L35.83,37.71a1.33,1.33,0,0,1-1.85,1,1.33,1.33,0,0,1-1.09-1.83Z"/></g></g></svg>