<svg xmlns="http://www.w3.org/2000/svg" xmlns:xlink="http://www.w3.org/1999/xlink" viewBox="0 0 70.87 70.87"><defs><style>.bcae96e5-2445-4476-a30f-cea79e357dfb{fill:url(#bbaa554a-add3-4490-93cf-9f723cb92781);}.b3b88b72-2410-4420-9e02-4050cbcc6fc0{fill:#fff;}</style><linearGradient id="bbaa554a-add3-4490-93cf-9f723cb92781" x1="58.86" y1="76.01" x2="12.01" y2="-5.14" gradientUnits="userSpaceOnUse"><stop offset="0" stop-color="#013755"/><stop offset="0.35" stop-color="#009ee3"/><stop offset="0.65" stop-color="#013755"/><stop offset="1" stop-color="#e64010"/></linearGradient></defs><g id="f2c5f102-bd64-4fe9-8253-115c50645e02" data-name="components-mvc"><rect id="f0f605c7-466f-4864-b3af-7dbd231f933f" data-name="Background" class="bcae96e5-2445-4476-a30f-cea79e357dfb" width="70.87" height="70.87" rx="4.25"/><g id="fa2cb311-1de7-4db7-ac36-89897b9e7988" data-name="Signet"><path class="b3b88b72-2410-4420-9e02-4050cbcc6fc0" d="M27.33,12.47a1.32,1.32,0,0,1,1.82-1.05,1.36,1.36,0,0,1,1.13,1.84L18.62,56.79a1.33,1.33,0,0,1-1.86,1A1.33,1.33,0,0,1,15.67,56Z"/><path class="b3b88b72-2410-4420-9e02-4050cbcc6fc0" d="M52.1,12.47a1.32,1.32,0,0,1,1.82-1.05A1.35,1.35,0,0,1,55,13.26L43.38,56.79a1.53,1.53,0,0,1-3-.79Z"/><path class="b3b88b72-2410-4420-9e02-4050cbcc6fc0" d="M38,17.76a1.32,1.32,0,0,1,1.82-1.05A1.36,1.36,0,0,1,41,18.55L35.83,37.71a1.33,1.33,0,0,1-1.85,1,1.33,1.33,0,0,1-1.09-1.83Z"/></g></g></svg>