<svg id="a9bee2a7-106a-43d5-84ca-fb4fa2b47eba" data-name="laminas_white" xmlns="http://www.w3.org/2000/svg" viewBox="0 0 70.87 70.87"><defs><style>.fc373cb9-4acc-454d-8b82-e1916dfd49f1{fill:#fff;}.e34a64dd-7b55-4841-8b70-22049dc715e9{fill:#013755;}</style></defs><rect id="b6c99cbf-a122-4a40-8e4b-ee3422ebb7f7" data-name="Background" class="fc373cb9-4acc-454d-8b82-e1916dfd49f1" width="70.87" height="70.87" rx="4.25"/><path class="e34a64dd-7b55-4841-8b70-22049dc715e9" d="M27.33,12.47a1.32,1.32,0,0,1,1.82-1.05,1.36,1.36,0,0,1,1.13,1.84L18.62,56.79a1.33,1.33,0,0,1-1.86,1A1.33,1.33,0,0,1,15.67,56Z"/><path class="e34a64dd-7b55-4841-8b70-22049dc715e9" d="M52.1,12.47a1.32,1.32,0,0,1,1.82-1.05A1.35,1.35,0,0,1,55,13.26L43.38,56.79a1.53,1.53,0,0,1-3-.79Z"/><path class="e34a64dd-7b55-4841-8b70-22049dc715e9" d="M38,17.76a1.32,1.32,0,0,1,1.82-1.05A1.36,1.36,0,0,1,41,18.55L35.83,37.71a1.33,1.33,0,0,1-1.85,1,1.33,1.33,0,0,1-1.09-1.83Z"/></svg>