<svg xmlns="http://www.w3.org/2000/svg" xmlns:xlink="http://www.w3.org/1999/xlink" viewBox="0 0 70.87 70.87"><defs><style>.e277956b-14e1-430b-974a-cf2837603d9e{fill:url(#fc41508e-3470-4c95-8db5-2d52b5914e95);}.aad93391-876d-4fec-a0fa-7f3ba74654df{fill:#fff;}</style><linearGradient id="fc41508e-3470-4c95-8db5-2d52b5914e95" x1="58.86" y1="76.01" x2="12.01" y2="-5.14" gradientUnits="userSpaceOnUse"><stop offset="0" stop-color="#013755"/><stop offset="1" stop-color="#009ee3"/></linearGradient></defs><g id="f23d1ccb-ce85-4920-b536-8805e6b865a3" data-name="mvc"><rect id="ab3ad0d2-d4da-49ef-a136-f17c97a22349" data-name="Background" class="e277956b-14e1-430b-974a-cf2837603d9e" width="70.87" height="70.87" rx="4.25"/><g id="b11785cb-e285-4d3e-99a8-8698c2b1c86d" data-name="Signet"><path class="aad93391-876d-4fec-a0fa-7f3ba74654df" d="M27.33,12.47a1.32,1.32,0,0,1,1.82-1.05,1.36,1.36,0,0,1,1.13,1.84L18.62,56.79a1.33,1.33,0,0,1-1.86,1A1.33,1.33,0,0,1,15.67,56Z"/><path class="aad93391-876d-4fec-a0fa-7f3ba74654df" d="M52.1,12.47a1.32,1.32,0,0,1,1.82-1.05A1.35,1.35,0,0,1,55,13.26L43.38,56.79a1.53,1.53,0,0,1-3-.79Z"/><path class="aad93391-876d-4fec-a0fa-7f3ba74654df" d="M38,17.76a1.32,1.32,0,0,1,1.82-1.05A1.36,1.36,0,0,1,41,18.55L35.83,37.71a1.33,1.33,0,0,1-1.85,1,1.33,1.33,0,0,1-1.09-1.83Z"/></g></g></svg>