<svg xmlns="http://www.w3.org/2000/svg" xmlns:xlink="http://www.w3.org/1999/xlink" viewBox="0 0 70.87 70.87"><defs><style>.af54ff91-8829-460e-95ed-c1fb374dff24{fill:url(#acd3aab1-9ddf-44cf-8d1f-d777d6539661);}.a1d907a2-2060-4ad3-9af6-60f8649127a4{fill:#fff;}</style><linearGradient id="acd3aab1-9ddf-44cf-8d1f-d777d6539661" x1="58.86" y1="76.01" x2="12.01" y2="-5.14" gradientUnits="userSpaceOnUse"><stop offset="0" stop-color="#013755"/><stop offset="1" stop-color="#009655"/></linearGradient></defs><g id="ef0ec66a-3942-467b-a80b-c2ccbbd91eb6" data-name="mezzio"><rect id="ad0abd30-0be1-449c-8403-0cd4c451400c" data-name="Background" class="af54ff91-8829-460e-95ed-c1fb374dff24" width="70.87" height="70.87" rx="4.25"/><g id="a96ab944-17f0-4b76-bf5a-7f00833b575f" data-name="Signet"><path class="a1d907a2-2060-4ad3-9af6-60f8649127a4" d="M27.33,12.47a1.32,1.32,0,0,1,1.82-1.05,1.36,1.36,0,0,1,1.13,1.84L18.62,56.79a1.33,1.33,0,0,1-1.86,1A1.33,1.33,0,0,1,15.67,56Z"/><path class="a1d907a2-2060-4ad3-9af6-60f8649127a4" d="M52.1,12.47a1.32,1.32,0,0,1,1.82-1.05A1.35,1.35,0,0,1,55,13.26L43.38,56.79a1.53,1.53,0,0,1-3-.79Z"/><path class="a1d907a2-2060-4ad3-9af6-60f8649127a4" d="M38,17.76a1.32,1.32,0,0,1,1.82-1.05A1.36,1.36,0,0,1,41,18.55L35.83,37.71a1.33,1.33,0,0,1-1.85,1,1.33,1.33,0,0,1-1.09-1.83Z"/></g></g></svg>