<svg xmlns="http://www.w3.org/2000/svg" width="933.333" height="933.333" version="1.0" viewBox="0 0 700 700"><path d="M278 112.7c-3.1 1.2-6 4.7-7.4 9.2-.9 2.5-4 13.8-7 25.1s-8.9 33.3-13.1 49c-4.2 15.7-9.2 34.1-11 41-1.8 6.9-7.2 26.9-12 44.5-4.7 17.6-8.8 32.7-9 33.5-.4 2.1-10.2 38.7-11.5 43-1.6 5.5-26.1 97.3-26.5 99.3-.2 1-1.4 5.2-2.5 9.5-15.5 56.2-23.3 86.4-23.4 91.5-.1 5.4.2 6.1 3.1 8.7 6.1 5.5 17.1 6.4 21.9 1.9 2.5-2.4 3.6-5.3 8.4-22.9 7.6-28.3 16.3-60.9 17.5-65.5.7-2.8 5.2-19.6 10-37.5s9.8-36.3 11-41c1.3-4.7 3.5-13 5-18.5 2.7-10.1 3.7-13.8 8-30 6.9-26 21-78.3 25.5-95 2.8-10.5 5.3-19.8 5.5-20.8.2-1 3.4-12.7 7-26s8.6-31.9 11.1-41.2c2.5-9.4 5.9-22 7.5-28 1.6-6.1 3.2-12.8 3.5-15 .6-5.3-2-10.3-6.8-12.8-3.8-1.9-12.2-3.1-14.8-2zM521.5 113.1c-5.1 3.1-5.5 4.2-14 36.4-2 7.7-4.3 16.2-5.1 19-1.6 5.7-9.4 35.2-9.9 37.5-.2.8-.4 1.5-.5 1.5-.1 0-.3.7-.5 1.5-.1.8-3.7 14.1-7.8 29.5-4.2 15.4-8.5 31.4-9.6 35.5-1.1 4.1-4.5 16.7-7.5 28s-12.5 46.6-21 78.5-16.7 62.3-18.1 67.5c-1.4 5.2-2.8 10.3-3 11.2-.2.9-1.3 5-2.4 9-1.1 4-3.6 13.4-5.6 20.8-2 7.4-5.4 20.2-7.6 28.5-11.1 41.2-11.1 41.3-9 46.2 2.4 5.9 13.2 9.7 20.5 7.3 6-2 6.3-2.7 19.1-51 2.6-9.6 4.8-18.2 5-19 .2-.8 3.3-12.3 6.9-25.5 9.2-34.4 10.2-37.9 13.1-49 2.4-9.1 10.7-39.8 31-115.5 4-15.1 11.3-42.1 16.1-60 4.7-17.9 11.3-42.4 14.6-54.5 3.3-12.1 6.1-22.8 6.3-23.8.2-1 3-11.1 6.1-22.5 3.1-11.4 5.7-22.4 5.7-24.4.1-4.4-2.5-8.4-7.1-11.1-3.9-2.3-13-3.2-15.7-1.6zM383.4 165c-4.9 1.9-7 6.9-13.9 32.5-3.6 13.7-7.8 29.3-9.2 34.5-1.4 5.2-2.7 10.2-2.9 11-.2.8-2.4 9.1-4.9 18.5-2.5 9.3-5.4 20.1-6.5 24-1 3.8-6.1 23-11.4 42.5-11.1 41.5-11.3 42.4-9.3 47.2 2.6 6.3 14.9 10.3 21.6 7 3.9-1.8 6.3-6.1 8.7-15.7.1-.6 6.4-24 13.9-52 7.5-28.1 13.8-51.7 14-52.5.9-3.7 18.8-70 20.1-74.4 2.3-7.3 2.2-13-.2-16.3-3.8-5.1-14.5-8.4-20-6.3z"/></svg>