<?xml version="1.0" standalone="no"?>
<!DOCTYPE svg PUBLIC "-//W3C//DTD SVG 20010904//EN"
 "http://www.w3.org/TR/2001/REC-SVG-20010904/DTD/svg10.dtd">
<svg version="1.0" xmlns="http://www.w3.org/2000/svg"
 width="260.000000pt" height="260.000000pt" viewBox="0 0 260.000000 260.000000"
 preserveAspectRatio="xMidYMid meet">
<metadata>
Created by potrace 1.11, written by Peter Selinger 2001-2013
</metadata>
<g transform="translate(0.000000,260.000000) scale(0.100000,-0.100000)"
fill="#000000" stroke="none">
<path d="M1011 2162 c-6 -11 -108 -383 -227 -828 -156 -582 -214 -812 -207
-824 15 -23 61 -36 81 -24 12 8 78 239 234 820 120 445 218 818 218 830 0 29
-19 44 -57 44 -21 0 -36 -6 -42 -18z"/>
<path d="M1921 2167 c-13 -16 -441 -1610 -441 -1644 0 -29 37 -48 74 -39 20 5
28 17 40 59 38 134 426 1588 426 1596 0 34 -76 55 -99 28z"/>
<path d="M1408 1977 c-7 -8 -58 -181 -112 -385 -96 -361 -99 -373 -81 -392 20
-22 67 -27 83 -7 13 16 202 718 202 751 0 40 -62 62 -92 33z"/>
</g>
</svg>
