<?xml version="1.0" standalone="no"?>
<!DOCTYPE svg PUBLIC "-//W3C//DTD SVG 20010904//EN"
 "http://www.w3.org/TR/2001/REC-SVG-20010904/DTD/svg10.dtd">
<svg version="1.0" xmlns="http://www.w3.org/2000/svg"
 width="256.000000pt" height="256.000000pt" viewBox="0 0 256.000000 256.000000"
 preserveAspectRatio="xMidYMid meet">
<metadata>
Created by potrace 1.11, written by Peter Selinger 2001-2013
</metadata>
<g transform="translate(0.000000,256.000000) scale(0.100000,-0.100000)"
fill="#000000" stroke="none">
<path d="M1052 1988 c-5 -7 -30 -89 -55 -183 -25 -93 -104 -389 -176 -657 -72
-268 -131 -497 -131 -507 0 -24 34 -44 60 -36 22 7 23 9 95 280 31 116 108
402 171 637 63 235 114 434 114 442 0 29 -59 47 -78 24z"/>
<path d="M1795 1990 c-20 -32 -366 -1341 -360 -1361 8 -23 54 -34 71 -17 12
12 67 214 285 1030 43 164 79 307 79 318 0 30 -60 55 -75 30z"/>
<path d="M1372 1828 c-5 -7 -46 -148 -90 -313 -58 -216 -77 -305 -71 -317 15
-27 67 -24 79 5 13 30 160 582 160 601 0 29 -59 47 -78 24z"/>
</g>
</svg>
